%TF.GenerationSoftware,KiCad,Pcbnew,(6.0.5)*%
%TF.CreationDate,2022-06-11T16:02:27+01:00*%
%TF.ProjectId,heating-controller-esp32,68656174-696e-4672-9d63-6f6e74726f6c,rev?*%
%TF.SameCoordinates,Original*%
%TF.FileFunction,Paste,Top*%
%TF.FilePolarity,Positive*%
%FSLAX46Y46*%
G04 Gerber Fmt 4.6, Leading zero omitted, Abs format (unit mm)*
G04 Created by KiCad (PCBNEW (6.0.5)) date 2022-06-11 16:02:27*
%MOMM*%
%LPD*%
G01*
G04 APERTURE LIST*
G04 Aperture macros list*
%AMRoundRect*
0 Rectangle with rounded corners*
0 $1 Rounding radius*
0 $2 $3 $4 $5 $6 $7 $8 $9 X,Y pos of 4 corners*
0 Add a 4 corners polygon primitive as box body*
4,1,4,$2,$3,$4,$5,$6,$7,$8,$9,$2,$3,0*
0 Add four circle primitives for the rounded corners*
1,1,$1+$1,$2,$3*
1,1,$1+$1,$4,$5*
1,1,$1+$1,$6,$7*
1,1,$1+$1,$8,$9*
0 Add four rect primitives between the rounded corners*
20,1,$1+$1,$2,$3,$4,$5,0*
20,1,$1+$1,$4,$5,$6,$7,0*
20,1,$1+$1,$6,$7,$8,$9,0*
20,1,$1+$1,$8,$9,$2,$3,0*%
G04 Aperture macros list end*
%ADD10RoundRect,0.200000X-0.200000X-0.275000X0.200000X-0.275000X0.200000X0.275000X-0.200000X0.275000X0*%
%ADD11RoundRect,0.150000X-0.587500X-0.150000X0.587500X-0.150000X0.587500X0.150000X-0.587500X0.150000X0*%
%ADD12RoundRect,0.200000X0.200000X0.275000X-0.200000X0.275000X-0.200000X-0.275000X0.200000X-0.275000X0*%
%ADD13R,2.000000X0.900000*%
%ADD14R,0.900000X2.000000*%
%ADD15R,5.000000X5.000000*%
%ADD16RoundRect,0.200000X-0.275000X0.200000X-0.275000X-0.200000X0.275000X-0.200000X0.275000X0.200000X0*%
%ADD17RoundRect,0.218750X-0.218750X-0.256250X0.218750X-0.256250X0.218750X0.256250X-0.218750X0.256250X0*%
%ADD18RoundRect,0.218750X-0.256250X0.218750X-0.256250X-0.218750X0.256250X-0.218750X0.256250X0.218750X0*%
%ADD19RoundRect,0.218750X0.218750X0.256250X-0.218750X0.256250X-0.218750X-0.256250X0.218750X-0.256250X0*%
%ADD20RoundRect,0.250000X0.250000X0.475000X-0.250000X0.475000X-0.250000X-0.475000X0.250000X-0.475000X0*%
%ADD21R,3.050000X2.750000*%
%ADD22R,2.200000X1.200000*%
%ADD23R,0.600000X1.450000*%
%ADD24R,0.300000X1.450000*%
%ADD25RoundRect,0.200000X0.275000X-0.200000X0.275000X0.200000X-0.275000X0.200000X-0.275000X-0.200000X0*%
%ADD26RoundRect,0.225000X0.225000X0.250000X-0.225000X0.250000X-0.225000X-0.250000X0.225000X-0.250000X0*%
%ADD27RoundRect,0.218750X0.218750X0.381250X-0.218750X0.381250X-0.218750X-0.381250X0.218750X-0.381250X0*%
%ADD28R,0.650000X0.400000*%
%ADD29R,1.000000X0.450000*%
%ADD30R,1.200000X1.100000*%
%ADD31RoundRect,0.250000X0.325000X0.650000X-0.325000X0.650000X-0.325000X-0.650000X0.325000X-0.650000X0*%
%ADD32RoundRect,0.250000X0.475000X-0.250000X0.475000X0.250000X-0.475000X0.250000X-0.475000X-0.250000X0*%
%ADD33RoundRect,0.135000X-0.135000X-0.185000X0.135000X-0.185000X0.135000X0.185000X-0.135000X0.185000X0*%
%ADD34R,0.500000X0.375000*%
%ADD35R,0.650000X0.300000*%
%ADD36RoundRect,0.135000X0.135000X0.185000X-0.135000X0.185000X-0.135000X-0.185000X0.135000X-0.185000X0*%
%ADD37RoundRect,0.250000X-0.250000X-0.475000X0.250000X-0.475000X0.250000X0.475000X-0.250000X0.475000X0*%
%ADD38RoundRect,0.062500X0.062500X0.337500X-0.062500X0.337500X-0.062500X-0.337500X0.062500X-0.337500X0*%
%ADD39RoundRect,0.062500X0.337500X0.062500X-0.337500X0.062500X-0.337500X-0.062500X0.337500X-0.062500X0*%
%ADD40RoundRect,0.225000X0.225000X0.225000X-0.225000X0.225000X-0.225000X-0.225000X0.225000X-0.225000X0*%
%ADD41RoundRect,0.250000X-0.475000X0.250000X-0.475000X-0.250000X0.475000X-0.250000X0.475000X0.250000X0*%
G04 APERTURE END LIST*
D10*
%TO.C,R51*%
X23134500Y-170734000D03*
X24784500Y-170734000D03*
%TD*%
%TO.C,R50*%
X33379000Y-170734000D03*
X35029000Y-170734000D03*
%TD*%
D11*
%TO.C,D21*%
X18572000Y-170754000D03*
X18572000Y-172654000D03*
X20447000Y-171704000D03*
%TD*%
%TO.C,D20*%
X28816500Y-170754000D03*
X28816500Y-172654000D03*
X30691500Y-171704000D03*
%TD*%
D12*
%TO.C,R13*%
X54420000Y-158877000D03*
X56070000Y-158877000D03*
%TD*%
%TO.C,R33*%
X71310000Y-136525000D03*
X69660000Y-136525000D03*
%TD*%
D11*
%TO.C,D9*%
X65610500Y-135575000D03*
X65610500Y-137475000D03*
X67485500Y-136525000D03*
%TD*%
D13*
%TO.C,U1*%
X87639000Y-136652000D03*
X87639000Y-137922000D03*
X87639000Y-139192000D03*
X87639000Y-140462000D03*
X87639000Y-141732000D03*
X87639000Y-143002000D03*
X87639000Y-144272000D03*
X87639000Y-145542000D03*
X87639000Y-146812000D03*
X87639000Y-148082000D03*
X87639000Y-149352000D03*
X87639000Y-150622000D03*
X87639000Y-151892000D03*
X87639000Y-153162000D03*
D14*
X90424000Y-154162000D03*
X91694000Y-154162000D03*
X92964000Y-154162000D03*
X94234000Y-154162000D03*
X95504000Y-154162000D03*
X96774000Y-154162000D03*
X98044000Y-154162000D03*
X99314000Y-154162000D03*
X100584000Y-154162000D03*
X101854000Y-154162000D03*
D13*
X104639000Y-153162000D03*
X104639000Y-151892000D03*
X104639000Y-150622000D03*
X104639000Y-149352000D03*
X104639000Y-148082000D03*
X104639000Y-146812000D03*
X104639000Y-145542000D03*
X104639000Y-144272000D03*
X104639000Y-143002000D03*
X104639000Y-141732000D03*
X104639000Y-140462000D03*
X104639000Y-139192000D03*
X104639000Y-137922000D03*
X104639000Y-136652000D03*
D15*
X95139000Y-144152000D03*
%TD*%
D10*
%TO.C,R49*%
X101029000Y-50546000D03*
X102679000Y-50546000D03*
%TD*%
%TO.C,R48*%
X58369500Y-53866000D03*
X60019500Y-53866000D03*
%TD*%
D16*
%TO.C,R47*%
X55958000Y-135195000D03*
X55958000Y-136845000D03*
%TD*%
D12*
%TO.C,R46*%
X61444000Y-112131000D03*
X59794000Y-112131000D03*
%TD*%
D10*
%TO.C,R45*%
X57214000Y-93218000D03*
X58864000Y-93218000D03*
%TD*%
%TO.C,R44*%
X58063000Y-73035000D03*
X59713000Y-73035000D03*
%TD*%
%TO.C,R43*%
X77622520Y-159792520D03*
X75972520Y-159792520D03*
%TD*%
%TO.C,R42*%
X73383520Y-159462520D03*
X71733520Y-159462520D03*
%TD*%
D17*
%TO.C,D19*%
X101066500Y-52451000D03*
X102641500Y-52451000D03*
%TD*%
%TO.C,D18*%
X58447000Y-51316000D03*
X60022000Y-51316000D03*
%TD*%
D18*
%TO.C,D17*%
X53672000Y-135232500D03*
X53672000Y-136807500D03*
%TD*%
D19*
%TO.C,D16*%
X61366500Y-114681000D03*
X59791500Y-114681000D03*
%TD*%
D17*
%TO.C,D15*%
X57251500Y-90678000D03*
X58826500Y-90678000D03*
%TD*%
%TO.C,D14*%
X58140500Y-70485000D03*
X59715500Y-70485000D03*
%TD*%
D20*
%TO.C,C9*%
X47691000Y-144907000D03*
X49591000Y-144907000D03*
%TD*%
D12*
%TO.C,R23*%
X54166000Y-167946000D03*
X55816000Y-167946000D03*
%TD*%
D11*
%TO.C,D5*%
X39067500Y-151958000D03*
X39067500Y-153858000D03*
X40942500Y-152908000D03*
%TD*%
%TO.C,D13*%
X61419500Y-131130000D03*
X61419500Y-133030000D03*
X63294500Y-132080000D03*
%TD*%
D10*
%TO.C,R14*%
X38672000Y-148717000D03*
X40322000Y-148717000D03*
%TD*%
D16*
%TO.C,R39*%
X82677000Y-39307000D03*
X82677000Y-40957000D03*
%TD*%
D21*
%TO.C,D4*%
X51943000Y-100965000D03*
X48593000Y-100965000D03*
X51943000Y-97915000D03*
X48593000Y-97915000D03*
D22*
X43968000Y-97160000D03*
X43968000Y-99440000D03*
X43968000Y-101720000D03*
%TD*%
D11*
%TO.C,D8*%
X62308500Y-87442000D03*
X62308500Y-89342000D03*
X64183500Y-88392000D03*
%TD*%
D23*
%TO.C,J11*%
X44375000Y-166822000D03*
X45175000Y-166822000D03*
D24*
X45875000Y-166822000D03*
X46875000Y-166822000D03*
X48375000Y-166822000D03*
X49375000Y-166822000D03*
D23*
X50075000Y-166822000D03*
X50875000Y-166822000D03*
X50875000Y-166822000D03*
X50075000Y-166822000D03*
D24*
X48875000Y-166822000D03*
X47875000Y-166822000D03*
X47375000Y-166822000D03*
X46375000Y-166822000D03*
D23*
X45175000Y-166822000D03*
X44375000Y-166822000D03*
%TD*%
D25*
%TO.C,R1*%
X92863520Y-168873520D03*
X92863520Y-170523520D03*
%TD*%
D16*
%TO.C,R36*%
X40469000Y-39052000D03*
X40469000Y-40702000D03*
%TD*%
D26*
%TO.C,C10*%
X47866000Y-147447000D03*
X49416000Y-147447000D03*
%TD*%
D16*
%TO.C,R28*%
X55904000Y-131762000D03*
X55904000Y-133412000D03*
%TD*%
D26*
%TO.C,C11*%
X59348000Y-165660000D03*
X60898000Y-165660000D03*
%TD*%
D25*
%TO.C,R17*%
X58293000Y-63817000D03*
X58293000Y-62167000D03*
%TD*%
D20*
%TO.C,C6*%
X78679000Y-140716000D03*
X80579000Y-140716000D03*
%TD*%
D27*
%TO.C,FB1*%
X59135500Y-163374000D03*
X61260500Y-163374000D03*
%TD*%
D12*
%TO.C,R8*%
X71845520Y-155601520D03*
X73495520Y-155601520D03*
%TD*%
D28*
%TO.C,Q1*%
X100290520Y-166889520D03*
X100290520Y-167539520D03*
X100290520Y-168189520D03*
X98390520Y-168189520D03*
X98390520Y-167539520D03*
X98390520Y-166889520D03*
%TD*%
D10*
%TO.C,R3*%
X100111520Y-169825520D03*
X98461520Y-169825520D03*
%TD*%
%TO.C,R24*%
X53276000Y-163374000D03*
X51626000Y-163374000D03*
%TD*%
D16*
%TO.C,R29*%
X37548000Y-124396000D03*
X37548000Y-126046000D03*
%TD*%
D29*
%TO.C,J1*%
X107823000Y-159654000D03*
X107823000Y-164704000D03*
D30*
X110823000Y-160329000D03*
X110823000Y-164029000D03*
X104823000Y-160329000D03*
X104823000Y-164029000D03*
%TD*%
D29*
%TO.C,J2*%
X76353520Y-168671000D03*
X76353520Y-173721000D03*
D30*
X79353520Y-169346000D03*
X79353520Y-173046000D03*
X73353520Y-169346000D03*
X73353520Y-173046000D03*
%TD*%
D21*
%TO.C,D12*%
X92373000Y-40768000D03*
X95723000Y-40768000D03*
X92373000Y-37718000D03*
X95723000Y-37718000D03*
D22*
X87748000Y-36963000D03*
X87748000Y-39243000D03*
X87748000Y-41523000D03*
%TD*%
D16*
%TO.C,R15*%
X58234000Y-66231000D03*
X58234000Y-67881000D03*
%TD*%
D10*
%TO.C,R31*%
X63530000Y-71186000D03*
X65180000Y-71186000D03*
%TD*%
D16*
%TO.C,R18*%
X57354000Y-86551000D03*
X57354000Y-88201000D03*
%TD*%
D25*
%TO.C,R30*%
X55963000Y-129348000D03*
X55963000Y-127698000D03*
%TD*%
D16*
%TO.C,R19*%
X38998000Y-79185000D03*
X38998000Y-80835000D03*
%TD*%
D10*
%TO.C,R41*%
X61786000Y-128270000D03*
X63436000Y-128270000D03*
%TD*%
D25*
%TO.C,R5*%
X55499000Y-154103000D03*
X55499000Y-155753000D03*
%TD*%
D21*
%TO.C,D6*%
X47244000Y-122807000D03*
X47244000Y-125857000D03*
X50594000Y-125857000D03*
X50594000Y-122807000D03*
D22*
X42619000Y-122052000D03*
X42619000Y-124332000D03*
X42619000Y-126612000D03*
%TD*%
D16*
%TO.C,R22*%
X38897000Y-99504000D03*
X38897000Y-101154000D03*
%TD*%
D31*
%TO.C,C12*%
X58596000Y-168454000D03*
X61546000Y-168454000D03*
%TD*%
D10*
%TO.C,R26*%
X38926000Y-156464000D03*
X40576000Y-156464000D03*
%TD*%
D32*
%TO.C,C5*%
X79375000Y-142941000D03*
X79375000Y-144841000D03*
%TD*%
D25*
%TO.C,R37*%
X58884000Y-44004000D03*
X58884000Y-42354000D03*
%TD*%
D11*
%TO.C,D7*%
X63403000Y-66233000D03*
X63403000Y-68133000D03*
X65278000Y-67183000D03*
%TD*%
D10*
%TO.C,R32*%
X61981000Y-91872000D03*
X63631000Y-91872000D03*
%TD*%
D32*
%TO.C,C2*%
X82195520Y-143033520D03*
X82195520Y-144933520D03*
%TD*%
D10*
%TO.C,R4*%
X86068520Y-168428520D03*
X84418520Y-168428520D03*
%TD*%
D16*
%TO.C,R38*%
X101033000Y-46673000D03*
X101033000Y-48323000D03*
%TD*%
%TO.C,R35*%
X58825000Y-46418000D03*
X58825000Y-48068000D03*
%TD*%
D12*
%TO.C,R25*%
X43752000Y-163120000D03*
X45402000Y-163120000D03*
%TD*%
D16*
%TO.C,R6*%
X55499000Y-152769000D03*
X55499000Y-151119000D03*
%TD*%
D20*
%TO.C,C7*%
X78679000Y-137668000D03*
X80579000Y-137668000D03*
%TD*%
D16*
%TO.C,R16*%
X39878000Y-58865000D03*
X39878000Y-60515000D03*
%TD*%
D25*
%TO.C,R40*%
X101092000Y-44259000D03*
X101092000Y-42609000D03*
%TD*%
D11*
%TO.C,D10*%
X60228000Y-118363250D03*
X60228000Y-120263250D03*
X62103000Y-119313250D03*
%TD*%
D25*
%TO.C,R11*%
X95276520Y-169000520D03*
X95276520Y-170650520D03*
%TD*%
D10*
%TO.C,R34*%
X59900500Y-122793250D03*
X61550500Y-122793250D03*
%TD*%
D33*
%TO.C,R9*%
X45593000Y-147066000D03*
X44573000Y-147066000D03*
%TD*%
D11*
%TO.C,D1*%
X38813500Y-143449000D03*
X38813500Y-145349000D03*
X40688500Y-144399000D03*
%TD*%
D34*
%TO.C,U5*%
X59475000Y-161244500D03*
D35*
X59400000Y-160707000D03*
D34*
X59475000Y-160169500D03*
X61175000Y-160169500D03*
D35*
X61250000Y-160707000D03*
D34*
X61175000Y-161244500D03*
%TD*%
D20*
%TO.C,C4*%
X59121000Y-172010000D03*
X61021000Y-172010000D03*
%TD*%
D21*
%TO.C,D11*%
X53515000Y-40513000D03*
X50165000Y-40513000D03*
X53515000Y-37463000D03*
X50165000Y-37463000D03*
D22*
X45540000Y-36708000D03*
X45540000Y-38988000D03*
X45540000Y-41268000D03*
%TD*%
D36*
%TO.C,R10*%
X44573000Y-145669000D03*
X45593000Y-145669000D03*
%TD*%
D12*
%TO.C,R21*%
X58610000Y-108204000D03*
X56960000Y-108204000D03*
%TD*%
D10*
%TO.C,R2*%
X100165520Y-171476520D03*
X98515520Y-171476520D03*
%TD*%
D26*
%TO.C,C8*%
X55486000Y-163374000D03*
X57036000Y-163374000D03*
%TD*%
D12*
%TO.C,R7*%
X71845520Y-152680520D03*
X73495520Y-152680520D03*
%TD*%
D37*
%TO.C,C1*%
X86066520Y-170714520D03*
X84166520Y-170714520D03*
%TD*%
D21*
%TO.C,D2*%
X49574000Y-57276000D03*
X52924000Y-60326000D03*
X49574000Y-60326000D03*
X52924000Y-57276000D03*
D22*
X44949000Y-56521000D03*
X44949000Y-58801000D03*
X44949000Y-61081000D03*
%TD*%
D25*
%TO.C,R27*%
X57312000Y-104456000D03*
X57312000Y-102806000D03*
%TD*%
%TO.C,R20*%
X57413000Y-84137000D03*
X57413000Y-82487000D03*
%TD*%
D12*
%TO.C,R12*%
X50610000Y-158750000D03*
X52260000Y-158750000D03*
%TD*%
D38*
%TO.C,U2*%
X49125000Y-155537000D03*
X48625000Y-155537000D03*
X48125000Y-155537000D03*
X47625000Y-155537000D03*
X47125000Y-155537000D03*
X46625000Y-155537000D03*
X46125000Y-155537000D03*
D39*
X45175000Y-154587000D03*
X45175000Y-154087000D03*
X45175000Y-153587000D03*
X45175000Y-153087000D03*
X45175000Y-152587000D03*
X45175000Y-152087000D03*
X45175000Y-151587000D03*
D38*
X46125000Y-150637000D03*
X46625000Y-150637000D03*
X47125000Y-150637000D03*
X47625000Y-150637000D03*
X48125000Y-150637000D03*
X48625000Y-150637000D03*
X49125000Y-150637000D03*
D39*
X50075000Y-151587000D03*
X50075000Y-152087000D03*
X50075000Y-152587000D03*
X50075000Y-153087000D03*
X50075000Y-153587000D03*
X50075000Y-154087000D03*
X50075000Y-154587000D03*
D40*
X47625000Y-153087000D03*
X46505000Y-154207000D03*
X48745000Y-153087000D03*
X47625000Y-151967000D03*
X48745000Y-154207000D03*
X47625000Y-154207000D03*
X46505000Y-153087000D03*
X46505000Y-151967000D03*
X48745000Y-151967000D03*
%TD*%
D21*
%TO.C,D3*%
X52044000Y-80646000D03*
X48694000Y-77596000D03*
X48694000Y-80646000D03*
X52044000Y-77596000D03*
D22*
X44069000Y-76841000D03*
X44069000Y-79121000D03*
X44069000Y-81401000D03*
%TD*%
D41*
%TO.C,C3*%
X77089000Y-144780000D03*
X77089000Y-142880000D03*
%TD*%
M02*
