%TF.GenerationSoftware,KiCad,Pcbnew,(6.0.5)*%
%TF.CreationDate,2022-06-11T16:02:27+01:00*%
%TF.ProjectId,heating-controller-esp32,68656174-696e-4672-9d63-6f6e74726f6c,rev?*%
%TF.SameCoordinates,Original*%
%TF.FileFunction,Legend,Bot*%
%TF.FilePolarity,Positive*%
%FSLAX46Y46*%
G04 Gerber Fmt 4.6, Leading zero omitted, Abs format (unit mm)*
G04 Created by KiCad (PCBNEW (6.0.5)) date 2022-06-11 16:02:27*
%MOMM*%
%LPD*%
G01*
G04 APERTURE LIST*
%ADD10C,0.750000*%
G04 APERTURE END LIST*
D10*
X83548857Y-43057142D02*
X82834571Y-46057142D01*
X82263142Y-43914285D01*
X81691714Y-46057142D01*
X80977428Y-43057142D01*
X79977428Y-45200000D02*
X78548857Y-45200000D01*
X80263142Y-46057142D02*
X79263142Y-43057142D01*
X78263142Y-46057142D01*
X75548857Y-46057142D02*
X76548857Y-44628571D01*
X77263142Y-46057142D02*
X77263142Y-43057142D01*
X76120285Y-43057142D01*
X75834571Y-43200000D01*
X75691714Y-43342857D01*
X75548857Y-43628571D01*
X75548857Y-44057142D01*
X75691714Y-44342857D01*
X75834571Y-44485714D01*
X76120285Y-44628571D01*
X77263142Y-44628571D01*
X74263142Y-46057142D02*
X74263142Y-43057142D01*
X72548857Y-46057142D01*
X72548857Y-43057142D01*
X71120285Y-46057142D02*
X71120285Y-43057142D01*
X69691714Y-46057142D02*
X69691714Y-43057142D01*
X67977428Y-46057142D01*
X67977428Y-43057142D01*
X64977428Y-43200000D02*
X65263142Y-43057142D01*
X65691714Y-43057142D01*
X66120285Y-43200000D01*
X66406000Y-43485714D01*
X66548857Y-43771428D01*
X66691714Y-44342857D01*
X66691714Y-44771428D01*
X66548857Y-45342857D01*
X66406000Y-45628571D01*
X66120285Y-45914285D01*
X65691714Y-46057142D01*
X65406000Y-46057142D01*
X64977428Y-45914285D01*
X64834571Y-45771428D01*
X64834571Y-44771428D01*
X65406000Y-44771428D01*
X63548857Y-45771428D02*
X63406000Y-45914285D01*
X63548857Y-46057142D01*
X63691714Y-45914285D01*
X63548857Y-45771428D01*
X63548857Y-46057142D01*
X63548857Y-44914285D02*
X63691714Y-43200000D01*
X63548857Y-43057142D01*
X63406000Y-43200000D01*
X63548857Y-44914285D01*
X63548857Y-43057142D01*
X79406000Y-50887142D02*
X79406000Y-47887142D01*
X78406000Y-50030000D01*
X77406000Y-47887142D01*
X77406000Y-50887142D01*
X76120285Y-50030000D02*
X74691714Y-50030000D01*
X76406000Y-50887142D02*
X75406000Y-47887142D01*
X74406000Y-50887142D01*
X73406000Y-50887142D02*
X73406000Y-47887142D01*
X71977428Y-50887142D02*
X71977428Y-47887142D01*
X70263142Y-50887142D01*
X70263142Y-47887142D01*
X68977428Y-50744285D02*
X68548857Y-50887142D01*
X67834571Y-50887142D01*
X67548857Y-50744285D01*
X67406000Y-50601428D01*
X67263142Y-50315714D01*
X67263142Y-50030000D01*
X67406000Y-49744285D01*
X67548857Y-49601428D01*
X67834571Y-49458571D01*
X68406000Y-49315714D01*
X68691714Y-49172857D01*
X68834571Y-49030000D01*
X68977428Y-48744285D01*
X68977428Y-48458571D01*
X68834571Y-48172857D01*
X68691714Y-48030000D01*
X68406000Y-47887142D01*
X67691714Y-47887142D01*
X67263142Y-48030000D01*
X83191714Y-52717142D02*
X82191714Y-55717142D01*
X81191714Y-52717142D01*
X79620285Y-52717142D02*
X79048857Y-52717142D01*
X78763142Y-52860000D01*
X78477428Y-53145714D01*
X78334571Y-53717142D01*
X78334571Y-54717142D01*
X78477428Y-55288571D01*
X78763142Y-55574285D01*
X79048857Y-55717142D01*
X79620285Y-55717142D01*
X79906000Y-55574285D01*
X80191714Y-55288571D01*
X80334571Y-54717142D01*
X80334571Y-53717142D01*
X80191714Y-53145714D01*
X79906000Y-52860000D01*
X79620285Y-52717142D01*
X75620285Y-55717142D02*
X77048857Y-55717142D01*
X77048857Y-52717142D01*
X75048857Y-52717142D02*
X73334571Y-52717142D01*
X74191714Y-55717142D02*
X74191714Y-52717142D01*
X72477428Y-54860000D02*
X71048857Y-54860000D01*
X72763142Y-55717142D02*
X71763142Y-52717142D01*
X70763142Y-55717142D01*
X68191714Y-52860000D02*
X68477428Y-52717142D01*
X68906000Y-52717142D01*
X69334571Y-52860000D01*
X69620285Y-53145714D01*
X69763142Y-53431428D01*
X69906000Y-54002857D01*
X69906000Y-54431428D01*
X69763142Y-55002857D01*
X69620285Y-55288571D01*
X69334571Y-55574285D01*
X68906000Y-55717142D01*
X68620285Y-55717142D01*
X68191714Y-55574285D01*
X68048857Y-55431428D01*
X68048857Y-54431428D01*
X68620285Y-54431428D01*
X66763142Y-54145714D02*
X65763142Y-54145714D01*
X65334571Y-55717142D02*
X66763142Y-55717142D01*
X66763142Y-52717142D01*
X65334571Y-52717142D01*
X64048857Y-55431428D02*
X63906000Y-55574285D01*
X64048857Y-55717142D01*
X64191714Y-55574285D01*
X64048857Y-55431428D01*
X64048857Y-55717142D01*
X64048857Y-54574285D02*
X64191714Y-52860000D01*
X64048857Y-52717142D01*
X63906000Y-52860000D01*
X64048857Y-54574285D01*
X64048857Y-52717142D01*
G36*
X112082986Y-28849076D02*
G01*
X112129547Y-28902672D01*
X112141000Y-28955160D01*
X112141000Y-114555922D01*
X112120998Y-114624043D01*
X112067342Y-114670536D01*
X112015926Y-114681919D01*
X81679116Y-114904880D01*
X81654449Y-114912321D01*
X68236556Y-129879109D01*
X68176190Y-129916478D01*
X68142738Y-129921000D01*
X55244000Y-129921000D01*
X55175879Y-129900998D01*
X55129386Y-129847342D01*
X55125360Y-129828836D01*
X55123104Y-129829498D01*
X55113525Y-129796876D01*
X55112135Y-129795671D01*
X55104452Y-129794000D01*
X36975115Y-129794000D01*
X36959876Y-129798475D01*
X36958864Y-129799643D01*
X36957121Y-129807825D01*
X37082885Y-144144895D01*
X37063481Y-144213188D01*
X37010236Y-144260150D01*
X36956890Y-144272000D01*
X12318000Y-144272000D01*
X12249879Y-144251998D01*
X12203386Y-144198342D01*
X12192000Y-144146000D01*
X12192000Y-143846000D01*
X12618000Y-143846000D01*
X17235907Y-143846000D01*
X18038608Y-143043299D01*
X18888820Y-143043299D01*
X19691521Y-143846000D01*
X24731239Y-143846000D01*
X25533940Y-143043299D01*
X26384152Y-143043299D01*
X27186853Y-143846000D01*
X32226571Y-143846000D01*
X33029272Y-143043299D01*
X33879484Y-143043299D01*
X34682185Y-143846000D01*
X36654247Y-143846000D01*
X36619410Y-139874594D01*
X33879484Y-142614520D01*
X33879484Y-143043299D01*
X33029272Y-143043299D01*
X33029272Y-142614520D01*
X29921101Y-139506350D01*
X29492323Y-139506350D01*
X26384152Y-142614520D01*
X26384152Y-143043299D01*
X25533940Y-143043299D01*
X25533940Y-142614520D01*
X22425769Y-139506350D01*
X21996991Y-139506350D01*
X18888820Y-142614520D01*
X18888820Y-143043299D01*
X18038608Y-143043299D01*
X18038608Y-142614520D01*
X14930437Y-139506350D01*
X14501659Y-139506350D01*
X12618000Y-141390008D01*
X12618000Y-143846000D01*
X12192000Y-143846000D01*
X12192000Y-139295633D01*
X15141154Y-139295633D01*
X18249325Y-142403803D01*
X18678103Y-142403803D01*
X21786274Y-139295633D01*
X22636486Y-139295633D01*
X25744657Y-142403803D01*
X26173435Y-142403803D01*
X29281606Y-139295633D01*
X30131818Y-139295633D01*
X33239989Y-142403803D01*
X33668767Y-142403803D01*
X36615746Y-139456825D01*
X36609098Y-138699014D01*
X33668767Y-135758684D01*
X33239989Y-135758684D01*
X30131818Y-138866854D01*
X30131818Y-139295633D01*
X29281606Y-139295633D01*
X29281606Y-138866854D01*
X26173435Y-135758684D01*
X25744657Y-135758684D01*
X22636486Y-138866854D01*
X22636486Y-139295633D01*
X21786274Y-139295633D01*
X21786274Y-138866854D01*
X18678103Y-135758684D01*
X18249325Y-135758684D01*
X15141154Y-138866854D01*
X15141154Y-139295633D01*
X12192000Y-139295633D01*
X12192000Y-136772479D01*
X12618000Y-136772479D01*
X14501659Y-138656137D01*
X14930437Y-138656137D01*
X18038608Y-135547967D01*
X18888820Y-135547967D01*
X21996991Y-138656137D01*
X22425769Y-138656137D01*
X25533940Y-135547967D01*
X26384152Y-135547967D01*
X29492323Y-138656137D01*
X29921101Y-138656137D01*
X33029272Y-135547967D01*
X33879484Y-135547967D01*
X36605368Y-138273850D01*
X36554233Y-132444439D01*
X33879484Y-135119188D01*
X33879484Y-135547967D01*
X33029272Y-135547967D01*
X33029272Y-135119188D01*
X29921101Y-132011018D01*
X29492323Y-132011018D01*
X26384152Y-135119188D01*
X26384152Y-135547967D01*
X25533940Y-135547967D01*
X25533940Y-135119188D01*
X22425769Y-132011018D01*
X21996991Y-132011018D01*
X18888820Y-135119188D01*
X18888820Y-135547967D01*
X18038608Y-135547967D01*
X18038608Y-135119188D01*
X14930437Y-132011018D01*
X14501659Y-132011018D01*
X12618000Y-133894676D01*
X12618000Y-136772479D01*
X12192000Y-136772479D01*
X12192000Y-131800301D01*
X15141154Y-131800301D01*
X18249325Y-134908472D01*
X18678103Y-134908472D01*
X21786274Y-131800301D01*
X22636486Y-131800301D01*
X25744657Y-134908472D01*
X26173435Y-134908472D01*
X29281606Y-131800301D01*
X30131818Y-131800301D01*
X33239989Y-134908472D01*
X33668767Y-134908472D01*
X36550569Y-132026670D01*
X36542768Y-131137352D01*
X33668767Y-128263352D01*
X33239989Y-128263352D01*
X30131818Y-131371522D01*
X30131818Y-131800301D01*
X29281606Y-131800301D01*
X29281606Y-131371522D01*
X26173435Y-128263352D01*
X25744657Y-128263352D01*
X22636486Y-131371522D01*
X22636486Y-131800301D01*
X21786274Y-131800301D01*
X21786274Y-131371522D01*
X18678103Y-128263352D01*
X18249325Y-128263352D01*
X15141154Y-131371522D01*
X15141154Y-131800301D01*
X12192000Y-131800301D01*
X12192000Y-129277147D01*
X12618000Y-129277147D01*
X14501659Y-131160806D01*
X14930437Y-131160806D01*
X18038608Y-128052635D01*
X18888820Y-128052635D01*
X21996991Y-131160806D01*
X22425769Y-131160806D01*
X25533940Y-128052635D01*
X26384152Y-128052635D01*
X29492323Y-131160806D01*
X29921101Y-131160806D01*
X33029272Y-128052635D01*
X33879484Y-128052635D01*
X36539038Y-130712189D01*
X36531017Y-129797736D01*
X36533326Y-129772592D01*
X36556150Y-129655156D01*
X36575071Y-129609193D01*
X36640103Y-129511866D01*
X36674866Y-129477103D01*
X36772193Y-129412071D01*
X36817614Y-129393257D01*
X36932419Y-129370421D01*
X36957000Y-129368000D01*
X39209239Y-129368000D01*
X40524604Y-128052635D01*
X41374816Y-128052635D01*
X42690181Y-129368000D01*
X46704571Y-129368000D01*
X48019936Y-128052635D01*
X48870148Y-128052635D01*
X50185513Y-129368000D01*
X54199902Y-129368000D01*
X55515267Y-128052635D01*
X56365480Y-128052635D01*
X57807844Y-129495000D01*
X61568235Y-129495000D01*
X63010599Y-128052635D01*
X63860812Y-128052635D01*
X65303176Y-129495000D01*
X68008783Y-129495000D01*
X70073744Y-127191670D01*
X67397761Y-124515686D01*
X66968982Y-124515686D01*
X63860812Y-127623857D01*
X63860812Y-128052635D01*
X63010599Y-128052635D01*
X63010599Y-127623857D01*
X59902429Y-124515686D01*
X59473650Y-124515686D01*
X56365480Y-127623857D01*
X56365480Y-128052635D01*
X55515267Y-128052635D01*
X55515267Y-127623857D01*
X52407097Y-124515686D01*
X51978318Y-124515686D01*
X48870148Y-127623857D01*
X48870148Y-128052635D01*
X48019936Y-128052635D01*
X48019936Y-127623857D01*
X44911765Y-124515686D01*
X44482987Y-124515686D01*
X41374816Y-127623857D01*
X41374816Y-128052635D01*
X40524604Y-128052635D01*
X40524604Y-127623857D01*
X37416433Y-124515686D01*
X36987655Y-124515686D01*
X33879484Y-127623857D01*
X33879484Y-128052635D01*
X33029272Y-128052635D01*
X33029272Y-127623857D01*
X29921101Y-124515686D01*
X29492323Y-124515686D01*
X26384152Y-127623857D01*
X26384152Y-128052635D01*
X25533940Y-128052635D01*
X25533940Y-127623857D01*
X22425769Y-124515686D01*
X21996991Y-124515686D01*
X18888820Y-127623857D01*
X18888820Y-128052635D01*
X18038608Y-128052635D01*
X18038608Y-127623857D01*
X14930437Y-124515686D01*
X14501659Y-124515686D01*
X12618000Y-126399345D01*
X12618000Y-129277147D01*
X12192000Y-129277147D01*
X12192000Y-124304969D01*
X15141154Y-124304969D01*
X18249325Y-127413140D01*
X18678103Y-127413140D01*
X21786274Y-124304969D01*
X22636486Y-124304969D01*
X25744657Y-127413140D01*
X26173435Y-127413140D01*
X29281606Y-124304969D01*
X30131818Y-124304969D01*
X33239989Y-127413140D01*
X33668767Y-127413140D01*
X36776938Y-124304969D01*
X37627150Y-124304969D01*
X40735321Y-127413140D01*
X41164099Y-127413140D01*
X44272270Y-124304969D01*
X45122482Y-124304969D01*
X48230652Y-127413140D01*
X48659431Y-127413140D01*
X51767601Y-124304969D01*
X52617814Y-124304969D01*
X55725984Y-127413140D01*
X56154763Y-127413140D01*
X59262933Y-124304969D01*
X60113146Y-124304969D01*
X63221316Y-127413140D01*
X63650095Y-127413140D01*
X66758265Y-124304969D01*
X67608478Y-124304969D01*
X70272963Y-126969455D01*
X73616907Y-123239501D01*
X71145427Y-120768020D01*
X70716648Y-120768020D01*
X67608478Y-123876191D01*
X67608478Y-124304969D01*
X66758265Y-124304969D01*
X66758265Y-123876191D01*
X63650095Y-120768020D01*
X63221316Y-120768020D01*
X60113146Y-123876191D01*
X60113146Y-124304969D01*
X59262933Y-124304969D01*
X59262933Y-123876191D01*
X56154763Y-120768020D01*
X55725984Y-120768020D01*
X52617814Y-123876191D01*
X52617814Y-124304969D01*
X51767601Y-124304969D01*
X51767601Y-123876191D01*
X48659431Y-120768020D01*
X48230652Y-120768020D01*
X45122482Y-123876191D01*
X45122482Y-124304969D01*
X44272270Y-124304969D01*
X44272270Y-123876191D01*
X41164099Y-120768020D01*
X40735321Y-120768020D01*
X37627150Y-123876191D01*
X37627150Y-124304969D01*
X36776938Y-124304969D01*
X36776938Y-123876191D01*
X33668767Y-120768020D01*
X33239989Y-120768020D01*
X30131818Y-123876191D01*
X30131818Y-124304969D01*
X29281606Y-124304969D01*
X29281606Y-123876191D01*
X26173435Y-120768020D01*
X25744657Y-120768020D01*
X22636486Y-123876191D01*
X22636486Y-124304969D01*
X21786274Y-124304969D01*
X21786274Y-123876191D01*
X18678103Y-120768020D01*
X18249325Y-120768020D01*
X15141154Y-123876191D01*
X15141154Y-124304969D01*
X12192000Y-124304969D01*
X12192000Y-121781815D01*
X12618000Y-121781815D01*
X14501659Y-123665474D01*
X14930437Y-123665474D01*
X18038608Y-120557303D01*
X18888820Y-120557303D01*
X21996991Y-123665474D01*
X22425769Y-123665474D01*
X25533940Y-120557303D01*
X26384152Y-120557303D01*
X29492323Y-123665474D01*
X29921101Y-123665474D01*
X33029272Y-120557303D01*
X33879484Y-120557303D01*
X36987655Y-123665474D01*
X37416433Y-123665474D01*
X40524604Y-120557303D01*
X41374816Y-120557303D01*
X44482987Y-123665474D01*
X44911765Y-123665474D01*
X48019936Y-120557303D01*
X48870148Y-120557303D01*
X51978318Y-123665474D01*
X52407097Y-123665474D01*
X55515267Y-120557303D01*
X56365480Y-120557303D01*
X59473650Y-123665474D01*
X59902429Y-123665474D01*
X63010599Y-120557303D01*
X63860812Y-120557303D01*
X66968982Y-123665474D01*
X67397761Y-123665474D01*
X70505931Y-120557303D01*
X71356144Y-120557303D01*
X73816126Y-123017285D01*
X77160070Y-119287332D01*
X74893093Y-117020354D01*
X74464314Y-117020354D01*
X71356144Y-120128525D01*
X71356144Y-120557303D01*
X70505931Y-120557303D01*
X70505931Y-120128525D01*
X67397761Y-117020354D01*
X66968982Y-117020354D01*
X63860812Y-120128525D01*
X63860812Y-120557303D01*
X63010599Y-120557303D01*
X63010599Y-120128525D01*
X59902429Y-117020354D01*
X59473650Y-117020354D01*
X56365480Y-120128525D01*
X56365480Y-120557303D01*
X55515267Y-120557303D01*
X55515267Y-120128525D01*
X52407097Y-117020354D01*
X51978318Y-117020354D01*
X48870148Y-120128525D01*
X48870148Y-120557303D01*
X48019936Y-120557303D01*
X48019936Y-120128525D01*
X44911765Y-117020354D01*
X44482987Y-117020354D01*
X41374816Y-120128525D01*
X41374816Y-120557303D01*
X40524604Y-120557303D01*
X40524604Y-120128525D01*
X37416433Y-117020354D01*
X36987655Y-117020354D01*
X33879484Y-120128525D01*
X33879484Y-120557303D01*
X33029272Y-120557303D01*
X33029272Y-120128525D01*
X29921101Y-117020354D01*
X29492323Y-117020354D01*
X26384152Y-120128525D01*
X26384152Y-120557303D01*
X25533940Y-120557303D01*
X25533940Y-120128525D01*
X22425769Y-117020354D01*
X21996991Y-117020354D01*
X18888820Y-120128525D01*
X18888820Y-120557303D01*
X18038608Y-120557303D01*
X18038608Y-120128525D01*
X14930437Y-117020354D01*
X14501659Y-117020354D01*
X12618000Y-118904013D01*
X12618000Y-121781815D01*
X12192000Y-121781815D01*
X12192000Y-116809637D01*
X15141154Y-116809637D01*
X18249325Y-119917808D01*
X18678103Y-119917808D01*
X21786274Y-116809637D01*
X22636486Y-116809637D01*
X25744657Y-119917808D01*
X26173435Y-119917808D01*
X29281606Y-116809637D01*
X30131818Y-116809637D01*
X33239989Y-119917808D01*
X33668767Y-119917808D01*
X36776938Y-116809637D01*
X37627150Y-116809637D01*
X40735321Y-119917808D01*
X41164099Y-119917808D01*
X44272270Y-116809637D01*
X45122482Y-116809637D01*
X48230652Y-119917808D01*
X48659431Y-119917808D01*
X51767601Y-116809637D01*
X52617814Y-116809637D01*
X55725984Y-119917808D01*
X56154763Y-119917808D01*
X59262933Y-116809637D01*
X60113146Y-116809637D01*
X63221316Y-119917808D01*
X63650095Y-119917808D01*
X66758265Y-116809637D01*
X67608478Y-116809637D01*
X70716648Y-119917808D01*
X71145427Y-119917808D01*
X74253597Y-116809637D01*
X75103809Y-116809637D01*
X77359289Y-119065117D01*
X80703233Y-115335163D01*
X78640758Y-113272688D01*
X78211980Y-113272688D01*
X75103809Y-116380859D01*
X75103809Y-116809637D01*
X74253597Y-116809637D01*
X74253597Y-116380859D01*
X71145427Y-113272688D01*
X70716648Y-113272688D01*
X67608478Y-116380859D01*
X67608478Y-116809637D01*
X66758265Y-116809637D01*
X66758265Y-116380859D01*
X63650095Y-113272688D01*
X63221316Y-113272688D01*
X60113146Y-116380859D01*
X60113146Y-116809637D01*
X59262933Y-116809637D01*
X59262933Y-116380859D01*
X56154763Y-113272688D01*
X55725984Y-113272688D01*
X52617814Y-116380859D01*
X52617814Y-116809637D01*
X51767601Y-116809637D01*
X51767601Y-116380859D01*
X48659431Y-113272688D01*
X48230652Y-113272688D01*
X45122482Y-116380859D01*
X45122482Y-116809637D01*
X44272270Y-116809637D01*
X44272270Y-116380859D01*
X41164099Y-113272688D01*
X40735321Y-113272688D01*
X37627150Y-116380859D01*
X37627150Y-116809637D01*
X36776938Y-116809637D01*
X36776938Y-116380859D01*
X33668767Y-113272688D01*
X33239989Y-113272688D01*
X30131818Y-116380859D01*
X30131818Y-116809637D01*
X29281606Y-116809637D01*
X29281606Y-116380859D01*
X26173435Y-113272688D01*
X25744657Y-113272688D01*
X22636486Y-116380859D01*
X22636486Y-116809637D01*
X21786274Y-116809637D01*
X21786274Y-116380859D01*
X18678103Y-113272688D01*
X18249325Y-113272688D01*
X15141154Y-116380859D01*
X15141154Y-116809637D01*
X12192000Y-116809637D01*
X12192000Y-114286483D01*
X12618000Y-114286483D01*
X14501659Y-116170142D01*
X14930437Y-116170142D01*
X18038608Y-113061971D01*
X18888820Y-113061971D01*
X21996991Y-116170142D01*
X22425769Y-116170142D01*
X25533940Y-113061971D01*
X26384152Y-113061971D01*
X29492323Y-116170142D01*
X29921101Y-116170142D01*
X33029272Y-113061971D01*
X33879484Y-113061971D01*
X36987655Y-116170142D01*
X37416433Y-116170142D01*
X40524604Y-113061971D01*
X41374816Y-113061971D01*
X44482987Y-116170142D01*
X44911765Y-116170142D01*
X48019936Y-113061971D01*
X48870148Y-113061971D01*
X51978318Y-116170142D01*
X52407097Y-116170142D01*
X55515267Y-113061971D01*
X56365480Y-113061971D01*
X59473650Y-116170142D01*
X59902429Y-116170142D01*
X63010599Y-113061971D01*
X63860812Y-113061971D01*
X66968982Y-116170142D01*
X67397761Y-116170142D01*
X70505931Y-113061971D01*
X71356144Y-113061971D01*
X74464314Y-116170142D01*
X74893093Y-116170142D01*
X78001263Y-113061971D01*
X78851475Y-113061971D01*
X80902453Y-115112949D01*
X81343807Y-114620647D01*
X81345816Y-114618459D01*
X81355506Y-114608150D01*
X81376544Y-114590199D01*
X81473390Y-114524453D01*
X81518672Y-114505305D01*
X81633306Y-114481626D01*
X81657869Y-114479024D01*
X84097471Y-114461095D01*
X85496595Y-113061971D01*
X86346807Y-113061971D01*
X87719311Y-114434475D01*
X91648298Y-114405600D01*
X92991927Y-113061971D01*
X93842139Y-113061971D01*
X95159958Y-114379790D01*
X99199125Y-114350105D01*
X100487259Y-113061971D01*
X101337471Y-113061971D01*
X102600605Y-114325105D01*
X106749952Y-114294610D01*
X107982591Y-113061971D01*
X108832803Y-113061971D01*
X110041251Y-114270420D01*
X111715000Y-114258119D01*
X111715000Y-109750995D01*
X108832803Y-112633193D01*
X108832803Y-113061971D01*
X107982591Y-113061971D01*
X107982591Y-112633193D01*
X104874420Y-109525022D01*
X104445642Y-109525022D01*
X101337471Y-112633193D01*
X101337471Y-113061971D01*
X100487259Y-113061971D01*
X100487259Y-112633193D01*
X97379088Y-109525022D01*
X96950310Y-109525022D01*
X93842139Y-112633193D01*
X93842139Y-113061971D01*
X92991927Y-113061971D01*
X92991927Y-112633193D01*
X89883756Y-109525022D01*
X89454978Y-109525022D01*
X86346807Y-112633193D01*
X86346807Y-113061971D01*
X85496595Y-113061971D01*
X85496595Y-112633193D01*
X82388424Y-109525022D01*
X81959646Y-109525022D01*
X78851475Y-112633193D01*
X78851475Y-113061971D01*
X78001263Y-113061971D01*
X78001263Y-112633193D01*
X74893093Y-109525022D01*
X74464314Y-109525022D01*
X71356144Y-112633193D01*
X71356144Y-113061971D01*
X70505931Y-113061971D01*
X70505931Y-112633193D01*
X67397761Y-109525022D01*
X66968982Y-109525022D01*
X63860812Y-112633193D01*
X63860812Y-113061971D01*
X63010599Y-113061971D01*
X63010599Y-112633193D01*
X59902429Y-109525022D01*
X59473650Y-109525022D01*
X56365480Y-112633193D01*
X56365480Y-113061971D01*
X55515267Y-113061971D01*
X55515267Y-112633193D01*
X52407097Y-109525022D01*
X51978318Y-109525022D01*
X48870148Y-112633193D01*
X48870148Y-113061971D01*
X48019936Y-113061971D01*
X48019936Y-112633193D01*
X44911765Y-109525022D01*
X44482987Y-109525022D01*
X41374816Y-112633193D01*
X41374816Y-113061971D01*
X40524604Y-113061971D01*
X40524604Y-112633193D01*
X37416433Y-109525022D01*
X36987655Y-109525022D01*
X33879484Y-112633193D01*
X33879484Y-113061971D01*
X33029272Y-113061971D01*
X33029272Y-112633193D01*
X29921101Y-109525022D01*
X29492323Y-109525022D01*
X26384152Y-112633193D01*
X26384152Y-113061971D01*
X25533940Y-113061971D01*
X25533940Y-112633193D01*
X22425769Y-109525022D01*
X21996991Y-109525022D01*
X18888820Y-112633193D01*
X18888820Y-113061971D01*
X18038608Y-113061971D01*
X18038608Y-112633193D01*
X14930437Y-109525022D01*
X14501659Y-109525022D01*
X12618000Y-111408681D01*
X12618000Y-114286483D01*
X12192000Y-114286483D01*
X12192000Y-109314305D01*
X15141154Y-109314305D01*
X18249325Y-112422476D01*
X18678103Y-112422476D01*
X21786274Y-109314305D01*
X22636486Y-109314305D01*
X25744657Y-112422476D01*
X26173435Y-112422476D01*
X29281606Y-109314305D01*
X30131818Y-109314305D01*
X33239989Y-112422476D01*
X33668767Y-112422476D01*
X36776938Y-109314305D01*
X37627150Y-109314305D01*
X40735321Y-112422476D01*
X41164099Y-112422476D01*
X44272270Y-109314305D01*
X45122482Y-109314305D01*
X48230652Y-112422476D01*
X48659431Y-112422476D01*
X51767601Y-109314305D01*
X52617814Y-109314305D01*
X55725984Y-112422476D01*
X56154763Y-112422476D01*
X59262933Y-109314305D01*
X60113146Y-109314305D01*
X63221316Y-112422476D01*
X63650095Y-112422476D01*
X66758265Y-109314305D01*
X67608478Y-109314305D01*
X70716648Y-112422476D01*
X71145427Y-112422476D01*
X74253597Y-109314305D01*
X75103809Y-109314305D01*
X78211980Y-112422476D01*
X78640758Y-112422476D01*
X81748929Y-109314305D01*
X82599141Y-109314305D01*
X85707312Y-112422476D01*
X86136090Y-112422476D01*
X89244261Y-109314305D01*
X90094473Y-109314305D01*
X93202644Y-112422476D01*
X93631422Y-112422476D01*
X96739593Y-109314305D01*
X97589805Y-109314305D01*
X100697976Y-112422476D01*
X101126754Y-112422476D01*
X104234925Y-109314305D01*
X105085137Y-109314305D01*
X108193307Y-112422476D01*
X108622086Y-112422476D01*
X111715000Y-109329562D01*
X111715000Y-108870270D01*
X108622086Y-105777356D01*
X108193307Y-105777356D01*
X105085137Y-108885527D01*
X105085137Y-109314305D01*
X104234925Y-109314305D01*
X104234925Y-108885527D01*
X101126754Y-105777356D01*
X100697976Y-105777356D01*
X97589805Y-108885527D01*
X97589805Y-109314305D01*
X96739593Y-109314305D01*
X96739593Y-108885527D01*
X93631422Y-105777356D01*
X93202644Y-105777356D01*
X90094473Y-108885527D01*
X90094473Y-109314305D01*
X89244261Y-109314305D01*
X89244261Y-108885527D01*
X86136090Y-105777356D01*
X85707312Y-105777356D01*
X82599141Y-108885527D01*
X82599141Y-109314305D01*
X81748929Y-109314305D01*
X81748929Y-108885527D01*
X78640758Y-105777356D01*
X78211980Y-105777356D01*
X75103809Y-108885527D01*
X75103809Y-109314305D01*
X74253597Y-109314305D01*
X74253597Y-108885527D01*
X71145427Y-105777356D01*
X70716648Y-105777356D01*
X67608478Y-108885527D01*
X67608478Y-109314305D01*
X66758265Y-109314305D01*
X66758265Y-108885527D01*
X63650095Y-105777356D01*
X63221316Y-105777356D01*
X60113146Y-108885527D01*
X60113146Y-109314305D01*
X59262933Y-109314305D01*
X59262933Y-108885527D01*
X56154763Y-105777356D01*
X55725984Y-105777356D01*
X52617814Y-108885527D01*
X52617814Y-109314305D01*
X51767601Y-109314305D01*
X51767601Y-108885527D01*
X48659431Y-105777356D01*
X48230652Y-105777356D01*
X45122482Y-108885527D01*
X45122482Y-109314305D01*
X44272270Y-109314305D01*
X44272270Y-108885527D01*
X41164099Y-105777356D01*
X40735321Y-105777356D01*
X37627150Y-108885527D01*
X37627150Y-109314305D01*
X36776938Y-109314305D01*
X36776938Y-108885527D01*
X33668767Y-105777356D01*
X33239989Y-105777356D01*
X30131818Y-108885527D01*
X30131818Y-109314305D01*
X29281606Y-109314305D01*
X29281606Y-108885527D01*
X26173435Y-105777356D01*
X25744657Y-105777356D01*
X22636486Y-108885527D01*
X22636486Y-109314305D01*
X21786274Y-109314305D01*
X21786274Y-108885527D01*
X18678103Y-105777356D01*
X18249325Y-105777356D01*
X15141154Y-108885527D01*
X15141154Y-109314305D01*
X12192000Y-109314305D01*
X12192000Y-106791151D01*
X12618000Y-106791151D01*
X14501659Y-108674810D01*
X14930437Y-108674810D01*
X18038608Y-105566639D01*
X18888820Y-105566639D01*
X21996991Y-108674810D01*
X22425769Y-108674810D01*
X25533940Y-105566639D01*
X26384152Y-105566639D01*
X29492323Y-108674810D01*
X29921101Y-108674810D01*
X33029272Y-105566639D01*
X33879484Y-105566639D01*
X36987655Y-108674810D01*
X37416433Y-108674810D01*
X40524604Y-105566639D01*
X41374816Y-105566639D01*
X44482987Y-108674810D01*
X44911765Y-108674810D01*
X48019936Y-105566639D01*
X48870148Y-105566639D01*
X51978318Y-108674810D01*
X52407097Y-108674810D01*
X55515267Y-105566639D01*
X56365480Y-105566639D01*
X59473650Y-108674810D01*
X59902429Y-108674810D01*
X63010599Y-105566639D01*
X63860812Y-105566639D01*
X66968982Y-108674810D01*
X67397761Y-108674810D01*
X70505931Y-105566639D01*
X71356144Y-105566639D01*
X74464314Y-108674810D01*
X74893093Y-108674810D01*
X78001263Y-105566639D01*
X78851475Y-105566639D01*
X81959646Y-108674810D01*
X82388424Y-108674810D01*
X85496595Y-105566639D01*
X86346807Y-105566639D01*
X89454978Y-108674810D01*
X89883756Y-108674810D01*
X92991927Y-105566639D01*
X93842139Y-105566639D01*
X96950310Y-108674810D01*
X97379088Y-108674810D01*
X100487259Y-105566639D01*
X101337471Y-105566639D01*
X104445642Y-108674810D01*
X104874420Y-108674810D01*
X107982591Y-105566639D01*
X108832803Y-105566639D01*
X111715000Y-108448837D01*
X111715000Y-102255663D01*
X108832803Y-105137861D01*
X108832803Y-105566639D01*
X107982591Y-105566639D01*
X107982591Y-105137861D01*
X104874420Y-102029690D01*
X104445642Y-102029690D01*
X101337471Y-105137861D01*
X101337471Y-105566639D01*
X100487259Y-105566639D01*
X100487259Y-105137861D01*
X97379088Y-102029690D01*
X96950310Y-102029690D01*
X93842139Y-105137861D01*
X93842139Y-105566639D01*
X92991927Y-105566639D01*
X92991927Y-105137861D01*
X89883756Y-102029690D01*
X89454978Y-102029690D01*
X86346807Y-105137861D01*
X86346807Y-105566639D01*
X85496595Y-105566639D01*
X85496595Y-105137861D01*
X82388424Y-102029690D01*
X81959646Y-102029690D01*
X78851475Y-105137861D01*
X78851475Y-105566639D01*
X78001263Y-105566639D01*
X78001263Y-105137861D01*
X74893093Y-102029690D01*
X74464314Y-102029690D01*
X71356144Y-105137861D01*
X71356144Y-105566639D01*
X70505931Y-105566639D01*
X70505931Y-105137861D01*
X67397761Y-102029690D01*
X66968982Y-102029690D01*
X63860812Y-105137861D01*
X63860812Y-105566639D01*
X63010599Y-105566639D01*
X63010599Y-105137861D01*
X59902429Y-102029690D01*
X59473650Y-102029690D01*
X56365480Y-105137861D01*
X56365480Y-105566639D01*
X55515267Y-105566639D01*
X55515267Y-105137861D01*
X52407097Y-102029690D01*
X51978318Y-102029690D01*
X48870148Y-105137861D01*
X48870148Y-105566639D01*
X48019936Y-105566639D01*
X48019936Y-105137861D01*
X44911765Y-102029690D01*
X44482987Y-102029690D01*
X41374816Y-105137861D01*
X41374816Y-105566639D01*
X40524604Y-105566639D01*
X40524604Y-105137861D01*
X37416433Y-102029690D01*
X36987655Y-102029690D01*
X33879484Y-105137861D01*
X33879484Y-105566639D01*
X33029272Y-105566639D01*
X33029272Y-105137861D01*
X29921101Y-102029690D01*
X29492323Y-102029690D01*
X26384152Y-105137861D01*
X26384152Y-105566639D01*
X25533940Y-105566639D01*
X25533940Y-105137861D01*
X22425769Y-102029690D01*
X21996991Y-102029690D01*
X18888820Y-105137861D01*
X18888820Y-105566639D01*
X18038608Y-105566639D01*
X18038608Y-105137861D01*
X14930437Y-102029690D01*
X14501659Y-102029690D01*
X12618000Y-103913349D01*
X12618000Y-106791151D01*
X12192000Y-106791151D01*
X12192000Y-101818973D01*
X15141154Y-101818973D01*
X18249325Y-104927144D01*
X18678103Y-104927144D01*
X21786274Y-101818973D01*
X22636486Y-101818973D01*
X25744657Y-104927144D01*
X26173435Y-104927144D01*
X29281606Y-101818973D01*
X30131818Y-101818973D01*
X33239989Y-104927144D01*
X33668767Y-104927144D01*
X36776938Y-101818973D01*
X37627150Y-101818973D01*
X40735321Y-104927144D01*
X41164099Y-104927144D01*
X44272270Y-101818973D01*
X45122482Y-101818973D01*
X48230652Y-104927144D01*
X48659431Y-104927144D01*
X51767601Y-101818973D01*
X52617814Y-101818973D01*
X55725984Y-104927144D01*
X56154763Y-104927144D01*
X59262933Y-101818973D01*
X60113146Y-101818973D01*
X63221316Y-104927144D01*
X63650095Y-104927144D01*
X66758265Y-101818973D01*
X67608478Y-101818973D01*
X70716648Y-104927144D01*
X71145427Y-104927144D01*
X74253597Y-101818973D01*
X75103809Y-101818973D01*
X78211980Y-104927144D01*
X78640758Y-104927144D01*
X81748929Y-101818973D01*
X82599141Y-101818973D01*
X85707312Y-104927144D01*
X86136090Y-104927144D01*
X89244261Y-101818973D01*
X90094473Y-101818973D01*
X93202644Y-104927144D01*
X93631422Y-104927144D01*
X96739593Y-101818973D01*
X97589805Y-101818973D01*
X100697976Y-104927144D01*
X101126754Y-104927144D01*
X104234925Y-101818973D01*
X105085137Y-101818973D01*
X108193307Y-104927144D01*
X108622086Y-104927144D01*
X111715000Y-101834230D01*
X111715000Y-101374938D01*
X108622086Y-98282024D01*
X108193307Y-98282024D01*
X105085137Y-101390195D01*
X105085137Y-101818973D01*
X104234925Y-101818973D01*
X104234925Y-101390195D01*
X101126754Y-98282024D01*
X100697976Y-98282024D01*
X97589805Y-101390195D01*
X97589805Y-101818973D01*
X96739593Y-101818973D01*
X96739593Y-101390195D01*
X93631422Y-98282024D01*
X93202644Y-98282024D01*
X90094473Y-101390195D01*
X90094473Y-101818973D01*
X89244261Y-101818973D01*
X89244261Y-101390195D01*
X86136090Y-98282024D01*
X85707312Y-98282024D01*
X82599141Y-101390195D01*
X82599141Y-101818973D01*
X81748929Y-101818973D01*
X81748929Y-101390195D01*
X78640758Y-98282024D01*
X78211980Y-98282024D01*
X75103809Y-101390195D01*
X75103809Y-101818973D01*
X74253597Y-101818973D01*
X74253597Y-101390195D01*
X71145427Y-98282024D01*
X70716648Y-98282024D01*
X67608478Y-101390195D01*
X67608478Y-101818973D01*
X66758265Y-101818973D01*
X66758265Y-101390195D01*
X63650095Y-98282024D01*
X63221316Y-98282024D01*
X60113146Y-101390195D01*
X60113146Y-101818973D01*
X59262933Y-101818973D01*
X59262933Y-101390195D01*
X56154763Y-98282024D01*
X55725984Y-98282024D01*
X52617814Y-101390195D01*
X52617814Y-101818973D01*
X51767601Y-101818973D01*
X51767601Y-101390195D01*
X48659431Y-98282024D01*
X48230652Y-98282024D01*
X45122482Y-101390195D01*
X45122482Y-101818973D01*
X44272270Y-101818973D01*
X44272270Y-101390195D01*
X41164099Y-98282024D01*
X40735321Y-98282024D01*
X37627150Y-101390195D01*
X37627150Y-101818973D01*
X36776938Y-101818973D01*
X36776938Y-101390195D01*
X33668767Y-98282024D01*
X33239989Y-98282024D01*
X30131818Y-101390195D01*
X30131818Y-101818973D01*
X29281606Y-101818973D01*
X29281606Y-101390195D01*
X26173435Y-98282024D01*
X25744657Y-98282024D01*
X22636486Y-101390195D01*
X22636486Y-101818973D01*
X21786274Y-101818973D01*
X21786274Y-101390195D01*
X18678103Y-98282024D01*
X18249325Y-98282024D01*
X15141154Y-101390195D01*
X15141154Y-101818973D01*
X12192000Y-101818973D01*
X12192000Y-99295820D01*
X12618000Y-99295820D01*
X14501659Y-101179478D01*
X14930437Y-101179478D01*
X18038608Y-98071308D01*
X18888820Y-98071308D01*
X21996991Y-101179478D01*
X22425769Y-101179478D01*
X25533940Y-98071308D01*
X26384152Y-98071308D01*
X29492323Y-101179478D01*
X29921101Y-101179478D01*
X33029272Y-98071308D01*
X33879484Y-98071308D01*
X36987655Y-101179478D01*
X37416433Y-101179478D01*
X40524604Y-98071308D01*
X41374816Y-98071308D01*
X44482987Y-101179478D01*
X44911765Y-101179478D01*
X48019936Y-98071308D01*
X48870148Y-98071308D01*
X51978318Y-101179478D01*
X52407097Y-101179478D01*
X55515267Y-98071308D01*
X56365480Y-98071308D01*
X59473650Y-101179478D01*
X59902429Y-101179478D01*
X63010599Y-98071308D01*
X63860812Y-98071308D01*
X66968982Y-101179478D01*
X67397761Y-101179478D01*
X70505931Y-98071308D01*
X71356144Y-98071308D01*
X74464314Y-101179478D01*
X74893093Y-101179478D01*
X78001263Y-98071308D01*
X78851475Y-98071308D01*
X81959646Y-101179478D01*
X82388424Y-101179478D01*
X85496595Y-98071308D01*
X86346807Y-98071308D01*
X89454978Y-101179478D01*
X89883756Y-101179478D01*
X92991927Y-98071308D01*
X93842139Y-98071308D01*
X96950310Y-101179478D01*
X97379088Y-101179478D01*
X100487259Y-98071308D01*
X101337471Y-98071308D01*
X104445642Y-101179478D01*
X104874420Y-101179478D01*
X107982591Y-98071308D01*
X108832803Y-98071308D01*
X111715000Y-100953505D01*
X111715000Y-94760332D01*
X108832803Y-97642529D01*
X108832803Y-98071308D01*
X107982591Y-98071308D01*
X107982591Y-97642529D01*
X104874420Y-94534359D01*
X104445642Y-94534359D01*
X101337471Y-97642529D01*
X101337471Y-98071308D01*
X100487259Y-98071308D01*
X100487259Y-97642529D01*
X97379088Y-94534359D01*
X96950310Y-94534359D01*
X93842139Y-97642529D01*
X93842139Y-98071308D01*
X92991927Y-98071308D01*
X92991927Y-97642529D01*
X89883756Y-94534359D01*
X89454978Y-94534359D01*
X86346807Y-97642529D01*
X86346807Y-98071308D01*
X85496595Y-98071308D01*
X85496595Y-97642529D01*
X82388424Y-94534359D01*
X81959646Y-94534359D01*
X78851475Y-97642529D01*
X78851475Y-98071308D01*
X78001263Y-98071308D01*
X78001263Y-97642529D01*
X74893093Y-94534359D01*
X74464314Y-94534359D01*
X71356144Y-97642529D01*
X71356144Y-98071308D01*
X70505931Y-98071308D01*
X70505931Y-97642529D01*
X67397761Y-94534359D01*
X66968982Y-94534359D01*
X63860812Y-97642529D01*
X63860812Y-98071308D01*
X63010599Y-98071308D01*
X63010599Y-97642529D01*
X59902429Y-94534359D01*
X59473650Y-94534359D01*
X56365480Y-97642529D01*
X56365480Y-98071308D01*
X55515267Y-98071308D01*
X55515267Y-97642529D01*
X52407097Y-94534359D01*
X51978318Y-94534359D01*
X48870148Y-97642529D01*
X48870148Y-98071308D01*
X48019936Y-98071308D01*
X48019936Y-97642529D01*
X44911765Y-94534359D01*
X44482987Y-94534359D01*
X41374816Y-97642529D01*
X41374816Y-98071308D01*
X40524604Y-98071308D01*
X40524604Y-97642529D01*
X37416433Y-94534359D01*
X36987655Y-94534359D01*
X33879484Y-97642529D01*
X33879484Y-98071308D01*
X33029272Y-98071308D01*
X33029272Y-97642529D01*
X29921101Y-94534359D01*
X29492323Y-94534359D01*
X26384152Y-97642529D01*
X26384152Y-98071308D01*
X25533940Y-98071308D01*
X25533940Y-97642529D01*
X22425769Y-94534359D01*
X21996991Y-94534359D01*
X18888820Y-97642529D01*
X18888820Y-98071308D01*
X18038608Y-98071308D01*
X18038608Y-97642529D01*
X14930437Y-94534359D01*
X14501659Y-94534359D01*
X12618000Y-96418017D01*
X12618000Y-99295820D01*
X12192000Y-99295820D01*
X12192000Y-94323642D01*
X15141154Y-94323642D01*
X18249325Y-97431812D01*
X18678103Y-97431812D01*
X21786274Y-94323642D01*
X22636486Y-94323642D01*
X25744657Y-97431812D01*
X26173435Y-97431812D01*
X29281606Y-94323642D01*
X30131818Y-94323642D01*
X33239989Y-97431812D01*
X33668767Y-97431812D01*
X36776938Y-94323642D01*
X37627150Y-94323642D01*
X40735321Y-97431812D01*
X41164099Y-97431812D01*
X44272270Y-94323642D01*
X45122482Y-94323642D01*
X48230652Y-97431812D01*
X48659431Y-97431812D01*
X51767601Y-94323642D01*
X52617814Y-94323642D01*
X55725984Y-97431812D01*
X56154763Y-97431812D01*
X59262933Y-94323642D01*
X60113146Y-94323642D01*
X63221316Y-97431812D01*
X63650095Y-97431812D01*
X66758265Y-94323642D01*
X67608478Y-94323642D01*
X70716648Y-97431812D01*
X71145427Y-97431812D01*
X74253597Y-94323642D01*
X75103809Y-94323642D01*
X78211980Y-97431812D01*
X78640758Y-97431812D01*
X81748929Y-94323642D01*
X82599141Y-94323642D01*
X85707312Y-97431812D01*
X86136090Y-97431812D01*
X89244261Y-94323642D01*
X90094473Y-94323642D01*
X93202644Y-97431812D01*
X93631422Y-97431812D01*
X96739593Y-94323642D01*
X97589805Y-94323642D01*
X100697976Y-97431812D01*
X101126754Y-97431812D01*
X104234925Y-94323642D01*
X105085137Y-94323642D01*
X108193307Y-97431812D01*
X108622086Y-97431812D01*
X111715000Y-94338899D01*
X111715000Y-93879606D01*
X108622086Y-90786693D01*
X108193307Y-90786693D01*
X105085137Y-93894863D01*
X105085137Y-94323642D01*
X104234925Y-94323642D01*
X104234925Y-93894863D01*
X101126754Y-90786693D01*
X100697976Y-90786693D01*
X97589805Y-93894863D01*
X97589805Y-94323642D01*
X96739593Y-94323642D01*
X96739593Y-93894863D01*
X93631422Y-90786693D01*
X93202644Y-90786693D01*
X90094473Y-93894863D01*
X90094473Y-94323642D01*
X89244261Y-94323642D01*
X89244261Y-93894863D01*
X86136090Y-90786693D01*
X85707312Y-90786693D01*
X82599141Y-93894863D01*
X82599141Y-94323642D01*
X81748929Y-94323642D01*
X81748929Y-93894863D01*
X78640758Y-90786693D01*
X78211980Y-90786693D01*
X75103809Y-93894863D01*
X75103809Y-94323642D01*
X74253597Y-94323642D01*
X74253597Y-93894863D01*
X71145427Y-90786693D01*
X70716648Y-90786693D01*
X67608478Y-93894863D01*
X67608478Y-94323642D01*
X66758265Y-94323642D01*
X66758265Y-93894863D01*
X63650095Y-90786693D01*
X63221316Y-90786693D01*
X60113146Y-93894863D01*
X60113146Y-94323642D01*
X59262933Y-94323642D01*
X59262933Y-93894863D01*
X56154763Y-90786693D01*
X55725984Y-90786693D01*
X52617814Y-93894863D01*
X52617814Y-94323642D01*
X51767601Y-94323642D01*
X51767601Y-93894863D01*
X48659431Y-90786693D01*
X48230652Y-90786693D01*
X45122482Y-93894863D01*
X45122482Y-94323642D01*
X44272270Y-94323642D01*
X44272270Y-93894863D01*
X41164099Y-90786693D01*
X40735321Y-90786693D01*
X37627150Y-93894863D01*
X37627150Y-94323642D01*
X36776938Y-94323642D01*
X36776938Y-93894863D01*
X33668767Y-90786693D01*
X33239989Y-90786693D01*
X30131818Y-93894863D01*
X30131818Y-94323642D01*
X29281606Y-94323642D01*
X29281606Y-93894863D01*
X26173435Y-90786693D01*
X25744657Y-90786693D01*
X22636486Y-93894863D01*
X22636486Y-94323642D01*
X21786274Y-94323642D01*
X21786274Y-93894863D01*
X18678103Y-90786693D01*
X18249325Y-90786693D01*
X15141154Y-93894863D01*
X15141154Y-94323642D01*
X12192000Y-94323642D01*
X12192000Y-91800488D01*
X12618000Y-91800488D01*
X14501659Y-93684146D01*
X14930437Y-93684146D01*
X18038608Y-90575976D01*
X18888820Y-90575976D01*
X21996991Y-93684146D01*
X22425769Y-93684146D01*
X25533940Y-90575976D01*
X26384152Y-90575976D01*
X29492323Y-93684146D01*
X29921101Y-93684146D01*
X33029272Y-90575976D01*
X33879484Y-90575976D01*
X36987655Y-93684146D01*
X37416433Y-93684146D01*
X40524604Y-90575976D01*
X41374816Y-90575976D01*
X44482987Y-93684146D01*
X44911765Y-93684146D01*
X48019936Y-90575976D01*
X48870148Y-90575976D01*
X51978318Y-93684146D01*
X52407097Y-93684146D01*
X55515267Y-90575976D01*
X56365480Y-90575976D01*
X59473650Y-93684146D01*
X59902429Y-93684146D01*
X63010599Y-90575976D01*
X63860812Y-90575976D01*
X66968982Y-93684146D01*
X67397761Y-93684146D01*
X70505931Y-90575976D01*
X71356144Y-90575976D01*
X74464314Y-93684146D01*
X74893093Y-93684146D01*
X78001263Y-90575976D01*
X78851475Y-90575976D01*
X81959646Y-93684146D01*
X82388424Y-93684146D01*
X85496595Y-90575976D01*
X86346807Y-90575976D01*
X89454978Y-93684146D01*
X89883756Y-93684146D01*
X92991927Y-90575976D01*
X93842139Y-90575976D01*
X96950310Y-93684146D01*
X97379088Y-93684146D01*
X100487259Y-90575976D01*
X101337471Y-90575976D01*
X104445642Y-93684146D01*
X104874420Y-93684146D01*
X107982591Y-90575976D01*
X108832803Y-90575976D01*
X111715000Y-93458173D01*
X111715000Y-87265000D01*
X108832803Y-90147197D01*
X108832803Y-90575976D01*
X107982591Y-90575976D01*
X107982591Y-90147197D01*
X104874420Y-87039027D01*
X104445642Y-87039027D01*
X101337471Y-90147197D01*
X101337471Y-90575976D01*
X100487259Y-90575976D01*
X100487259Y-90147197D01*
X97379088Y-87039027D01*
X96950310Y-87039027D01*
X93842139Y-90147197D01*
X93842139Y-90575976D01*
X92991927Y-90575976D01*
X92991927Y-90147197D01*
X89883756Y-87039027D01*
X89454978Y-87039027D01*
X86346807Y-90147197D01*
X86346807Y-90575976D01*
X85496595Y-90575976D01*
X85496595Y-90147197D01*
X82388424Y-87039027D01*
X81959646Y-87039027D01*
X78851475Y-90147197D01*
X78851475Y-90575976D01*
X78001263Y-90575976D01*
X78001263Y-90147197D01*
X74893093Y-87039027D01*
X74464314Y-87039027D01*
X71356144Y-90147197D01*
X71356144Y-90575976D01*
X70505931Y-90575976D01*
X70505931Y-90147197D01*
X67397761Y-87039027D01*
X66968982Y-87039027D01*
X63860812Y-90147197D01*
X63860812Y-90575976D01*
X63010599Y-90575976D01*
X63010599Y-90147197D01*
X59902429Y-87039027D01*
X59473650Y-87039027D01*
X56365480Y-90147197D01*
X56365480Y-90575976D01*
X55515267Y-90575976D01*
X55515267Y-90147197D01*
X52407097Y-87039027D01*
X51978318Y-87039027D01*
X48870148Y-90147197D01*
X48870148Y-90575976D01*
X48019936Y-90575976D01*
X48019936Y-90147197D01*
X44911765Y-87039027D01*
X44482987Y-87039027D01*
X41374816Y-90147197D01*
X41374816Y-90575976D01*
X40524604Y-90575976D01*
X40524604Y-90147197D01*
X37416433Y-87039027D01*
X36987655Y-87039027D01*
X33879484Y-90147197D01*
X33879484Y-90575976D01*
X33029272Y-90575976D01*
X33029272Y-90147197D01*
X29921101Y-87039027D01*
X29492323Y-87039027D01*
X26384152Y-90147197D01*
X26384152Y-90575976D01*
X25533940Y-90575976D01*
X25533940Y-90147197D01*
X22425769Y-87039027D01*
X21996991Y-87039027D01*
X18888820Y-90147197D01*
X18888820Y-90575976D01*
X18038608Y-90575976D01*
X18038608Y-90147197D01*
X14930437Y-87039027D01*
X14501659Y-87039027D01*
X12618000Y-88922685D01*
X12618000Y-91800488D01*
X12192000Y-91800488D01*
X12192000Y-86828310D01*
X15141154Y-86828310D01*
X18249325Y-89936480D01*
X18678103Y-89936480D01*
X21786274Y-86828310D01*
X22636486Y-86828310D01*
X25744657Y-89936480D01*
X26173435Y-89936480D01*
X29281606Y-86828310D01*
X30131818Y-86828310D01*
X33239989Y-89936480D01*
X33668767Y-89936480D01*
X36776938Y-86828310D01*
X37627150Y-86828310D01*
X40735321Y-89936480D01*
X41164099Y-89936480D01*
X44272270Y-86828310D01*
X45122482Y-86828310D01*
X48230652Y-89936480D01*
X48659431Y-89936480D01*
X51767601Y-86828310D01*
X52617814Y-86828310D01*
X55725984Y-89936480D01*
X56154763Y-89936480D01*
X59262933Y-86828310D01*
X60113146Y-86828310D01*
X63221316Y-89936480D01*
X63650095Y-89936480D01*
X66758265Y-86828310D01*
X67608478Y-86828310D01*
X70716648Y-89936480D01*
X71145427Y-89936480D01*
X74253597Y-86828310D01*
X75103809Y-86828310D01*
X78211980Y-89936480D01*
X78640758Y-89936480D01*
X81748929Y-86828310D01*
X82599141Y-86828310D01*
X85707312Y-89936480D01*
X86136090Y-89936480D01*
X89244261Y-86828310D01*
X90094473Y-86828310D01*
X93202644Y-89936480D01*
X93631422Y-89936480D01*
X96739593Y-86828310D01*
X97589805Y-86828310D01*
X100697976Y-89936480D01*
X101126754Y-89936480D01*
X104234925Y-86828310D01*
X105085137Y-86828310D01*
X108193307Y-89936480D01*
X108622086Y-89936480D01*
X111715000Y-86843567D01*
X111715000Y-86384274D01*
X108622086Y-83291361D01*
X108193307Y-83291361D01*
X105085137Y-86399531D01*
X105085137Y-86828310D01*
X104234925Y-86828310D01*
X104234925Y-86399531D01*
X101126754Y-83291361D01*
X100697976Y-83291361D01*
X97589805Y-86399531D01*
X97589805Y-86828310D01*
X96739593Y-86828310D01*
X96739593Y-86399531D01*
X93631422Y-83291361D01*
X93202644Y-83291361D01*
X90094473Y-86399531D01*
X90094473Y-86828310D01*
X89244261Y-86828310D01*
X89244261Y-86399531D01*
X86136090Y-83291361D01*
X85707312Y-83291361D01*
X82599141Y-86399531D01*
X82599141Y-86828310D01*
X81748929Y-86828310D01*
X81748929Y-86399531D01*
X78640758Y-83291361D01*
X78211980Y-83291361D01*
X75103809Y-86399531D01*
X75103809Y-86828310D01*
X74253597Y-86828310D01*
X74253597Y-86399531D01*
X71145427Y-83291361D01*
X70716648Y-83291361D01*
X67608478Y-86399531D01*
X67608478Y-86828310D01*
X66758265Y-86828310D01*
X66758265Y-86399531D01*
X63650095Y-83291361D01*
X63221316Y-83291361D01*
X60113146Y-86399531D01*
X60113146Y-86828310D01*
X59262933Y-86828310D01*
X59262933Y-86399531D01*
X56154763Y-83291361D01*
X55725984Y-83291361D01*
X52617814Y-86399531D01*
X52617814Y-86828310D01*
X51767601Y-86828310D01*
X51767601Y-86399531D01*
X48659431Y-83291361D01*
X48230652Y-83291361D01*
X45122482Y-86399531D01*
X45122482Y-86828310D01*
X44272270Y-86828310D01*
X44272270Y-86399531D01*
X41164099Y-83291361D01*
X40735321Y-83291361D01*
X37627150Y-86399531D01*
X37627150Y-86828310D01*
X36776938Y-86828310D01*
X36776938Y-86399531D01*
X33668767Y-83291361D01*
X33239989Y-83291361D01*
X30131818Y-86399531D01*
X30131818Y-86828310D01*
X29281606Y-86828310D01*
X29281606Y-86399531D01*
X26173435Y-83291361D01*
X25744657Y-83291361D01*
X22636486Y-86399531D01*
X22636486Y-86828310D01*
X21786274Y-86828310D01*
X21786274Y-86399531D01*
X18678103Y-83291361D01*
X18249325Y-83291361D01*
X15141154Y-86399531D01*
X15141154Y-86828310D01*
X12192000Y-86828310D01*
X12192000Y-84305156D01*
X12618000Y-84305156D01*
X14501659Y-86188814D01*
X14930437Y-86188814D01*
X18038608Y-83080644D01*
X18888820Y-83080644D01*
X21996991Y-86188814D01*
X22425769Y-86188814D01*
X25533940Y-83080644D01*
X26384152Y-83080644D01*
X29492323Y-86188814D01*
X29921101Y-86188814D01*
X33029272Y-83080644D01*
X33879484Y-83080644D01*
X36987655Y-86188814D01*
X37416433Y-86188814D01*
X40524604Y-83080644D01*
X41374816Y-83080644D01*
X44482987Y-86188814D01*
X44911765Y-86188814D01*
X48019936Y-83080644D01*
X48870148Y-83080644D01*
X51978318Y-86188814D01*
X52407097Y-86188814D01*
X55515267Y-83080644D01*
X56365480Y-83080644D01*
X59473650Y-86188814D01*
X59902429Y-86188814D01*
X63010599Y-83080644D01*
X63860812Y-83080644D01*
X66968982Y-86188814D01*
X67397761Y-86188814D01*
X70505931Y-83080644D01*
X71356144Y-83080644D01*
X74464314Y-86188814D01*
X74893093Y-86188814D01*
X78001263Y-83080644D01*
X78851475Y-83080644D01*
X81959646Y-86188814D01*
X82388424Y-86188814D01*
X85496595Y-83080644D01*
X86346807Y-83080644D01*
X89454978Y-86188814D01*
X89883756Y-86188814D01*
X92991927Y-83080644D01*
X93842139Y-83080644D01*
X96950310Y-86188814D01*
X97379088Y-86188814D01*
X100487259Y-83080644D01*
X101337471Y-83080644D01*
X104445642Y-86188814D01*
X104874420Y-86188814D01*
X107982591Y-83080644D01*
X108832803Y-83080644D01*
X111715000Y-85962841D01*
X111715000Y-79769668D01*
X108832803Y-82651865D01*
X108832803Y-83080644D01*
X107982591Y-83080644D01*
X107982591Y-82651865D01*
X104874420Y-79543695D01*
X104445642Y-79543695D01*
X101337471Y-82651865D01*
X101337471Y-83080644D01*
X100487259Y-83080644D01*
X100487259Y-82651865D01*
X97379088Y-79543695D01*
X96950310Y-79543695D01*
X93842139Y-82651865D01*
X93842139Y-83080644D01*
X92991927Y-83080644D01*
X92991927Y-82651865D01*
X89883756Y-79543695D01*
X89454978Y-79543695D01*
X86346807Y-82651865D01*
X86346807Y-83080644D01*
X85496595Y-83080644D01*
X85496595Y-82651865D01*
X82388424Y-79543695D01*
X81959646Y-79543695D01*
X78851475Y-82651865D01*
X78851475Y-83080644D01*
X78001263Y-83080644D01*
X78001263Y-82651865D01*
X74893093Y-79543695D01*
X74464314Y-79543695D01*
X71356144Y-82651865D01*
X71356144Y-83080644D01*
X70505931Y-83080644D01*
X70505931Y-82651865D01*
X67397761Y-79543695D01*
X66968982Y-79543695D01*
X63860812Y-82651865D01*
X63860812Y-83080644D01*
X63010599Y-83080644D01*
X63010599Y-82651865D01*
X59902429Y-79543695D01*
X59473650Y-79543695D01*
X56365480Y-82651865D01*
X56365480Y-83080644D01*
X55515267Y-83080644D01*
X55515267Y-82651865D01*
X52407097Y-79543695D01*
X51978318Y-79543695D01*
X48870148Y-82651865D01*
X48870148Y-83080644D01*
X48019936Y-83080644D01*
X48019936Y-82651865D01*
X44911765Y-79543695D01*
X44482987Y-79543695D01*
X41374816Y-82651865D01*
X41374816Y-83080644D01*
X40524604Y-83080644D01*
X40524604Y-82651865D01*
X37416433Y-79543695D01*
X36987655Y-79543695D01*
X33879484Y-82651865D01*
X33879484Y-83080644D01*
X33029272Y-83080644D01*
X33029272Y-82651865D01*
X29921101Y-79543695D01*
X29492323Y-79543695D01*
X26384152Y-82651865D01*
X26384152Y-83080644D01*
X25533940Y-83080644D01*
X25533940Y-82651865D01*
X22425769Y-79543695D01*
X21996991Y-79543695D01*
X18888820Y-82651865D01*
X18888820Y-83080644D01*
X18038608Y-83080644D01*
X18038608Y-82651865D01*
X14930437Y-79543695D01*
X14501659Y-79543695D01*
X12618000Y-81427353D01*
X12618000Y-84305156D01*
X12192000Y-84305156D01*
X12192000Y-79332978D01*
X15141154Y-79332978D01*
X18249325Y-82441148D01*
X18678103Y-82441148D01*
X21786274Y-79332978D01*
X22636486Y-79332978D01*
X25744657Y-82441148D01*
X26173435Y-82441148D01*
X29281606Y-79332978D01*
X30131818Y-79332978D01*
X33239989Y-82441148D01*
X33668767Y-82441148D01*
X36776938Y-79332978D01*
X37627150Y-79332978D01*
X40735321Y-82441148D01*
X41164099Y-82441148D01*
X44272270Y-79332978D01*
X45122482Y-79332978D01*
X48230652Y-82441148D01*
X48659431Y-82441148D01*
X51767601Y-79332978D01*
X52617814Y-79332978D01*
X55725984Y-82441148D01*
X56154763Y-82441148D01*
X59262933Y-79332978D01*
X60113146Y-79332978D01*
X63221316Y-82441148D01*
X63650095Y-82441148D01*
X66758265Y-79332978D01*
X67608478Y-79332978D01*
X70716648Y-82441148D01*
X71145427Y-82441148D01*
X74253597Y-79332978D01*
X75103809Y-79332978D01*
X78211980Y-82441148D01*
X78640758Y-82441148D01*
X81748929Y-79332978D01*
X82599141Y-79332978D01*
X85707312Y-82441148D01*
X86136090Y-82441148D01*
X89244261Y-79332978D01*
X90094473Y-79332978D01*
X93202644Y-82441148D01*
X93631422Y-82441148D01*
X96739593Y-79332978D01*
X97589805Y-79332978D01*
X100697976Y-82441148D01*
X101126754Y-82441148D01*
X104234925Y-79332978D01*
X105085137Y-79332978D01*
X108193307Y-82441148D01*
X108622086Y-82441148D01*
X111715000Y-79348235D01*
X111715000Y-78888942D01*
X108622086Y-75796029D01*
X108193307Y-75796029D01*
X105085137Y-78904199D01*
X105085137Y-79332978D01*
X104234925Y-79332978D01*
X104234925Y-78904199D01*
X101126754Y-75796029D01*
X100697976Y-75796029D01*
X97589805Y-78904199D01*
X97589805Y-79332978D01*
X96739593Y-79332978D01*
X96739593Y-78904199D01*
X93631422Y-75796029D01*
X93202644Y-75796029D01*
X90094473Y-78904199D01*
X90094473Y-79332978D01*
X89244261Y-79332978D01*
X89244261Y-78904199D01*
X86136090Y-75796029D01*
X85707312Y-75796029D01*
X82599141Y-78904199D01*
X82599141Y-79332978D01*
X81748929Y-79332978D01*
X81748929Y-78904199D01*
X78640758Y-75796029D01*
X78211980Y-75796029D01*
X75103809Y-78904199D01*
X75103809Y-79332978D01*
X74253597Y-79332978D01*
X74253597Y-78904199D01*
X71145427Y-75796029D01*
X70716648Y-75796029D01*
X67608478Y-78904199D01*
X67608478Y-79332978D01*
X66758265Y-79332978D01*
X66758265Y-78904199D01*
X63650095Y-75796029D01*
X63221316Y-75796029D01*
X60113146Y-78904199D01*
X60113146Y-79332978D01*
X59262933Y-79332978D01*
X59262933Y-78904199D01*
X56154763Y-75796029D01*
X55725984Y-75796029D01*
X52617814Y-78904199D01*
X52617814Y-79332978D01*
X51767601Y-79332978D01*
X51767601Y-78904199D01*
X48659431Y-75796029D01*
X48230652Y-75796029D01*
X45122482Y-78904199D01*
X45122482Y-79332978D01*
X44272270Y-79332978D01*
X44272270Y-78904199D01*
X41164099Y-75796029D01*
X40735321Y-75796029D01*
X37627150Y-78904199D01*
X37627150Y-79332978D01*
X36776938Y-79332978D01*
X36776938Y-78904199D01*
X33668767Y-75796029D01*
X33239989Y-75796029D01*
X30131818Y-78904199D01*
X30131818Y-79332978D01*
X29281606Y-79332978D01*
X29281606Y-78904199D01*
X26173435Y-75796029D01*
X25744657Y-75796029D01*
X22636486Y-78904199D01*
X22636486Y-79332978D01*
X21786274Y-79332978D01*
X21786274Y-78904199D01*
X18678103Y-75796029D01*
X18249325Y-75796029D01*
X15141154Y-78904199D01*
X15141154Y-79332978D01*
X12192000Y-79332978D01*
X12192000Y-76809824D01*
X12618000Y-76809824D01*
X14501659Y-78693482D01*
X14930437Y-78693482D01*
X18038608Y-75585312D01*
X18888820Y-75585312D01*
X21996991Y-78693482D01*
X22425769Y-78693482D01*
X25533940Y-75585312D01*
X26384152Y-75585312D01*
X29492323Y-78693482D01*
X29921101Y-78693482D01*
X33029272Y-75585312D01*
X33879484Y-75585312D01*
X36987655Y-78693482D01*
X37416433Y-78693482D01*
X40524604Y-75585312D01*
X41374816Y-75585312D01*
X44482987Y-78693482D01*
X44911765Y-78693482D01*
X48019936Y-75585312D01*
X48870148Y-75585312D01*
X51978318Y-78693482D01*
X52407097Y-78693482D01*
X55515267Y-75585312D01*
X56365480Y-75585312D01*
X59473650Y-78693482D01*
X59902429Y-78693482D01*
X63010599Y-75585312D01*
X63860812Y-75585312D01*
X66968982Y-78693482D01*
X67397761Y-78693482D01*
X70505931Y-75585312D01*
X71356144Y-75585312D01*
X74464314Y-78693482D01*
X74893093Y-78693482D01*
X78001263Y-75585312D01*
X78851475Y-75585312D01*
X81959646Y-78693482D01*
X82388424Y-78693482D01*
X85496595Y-75585312D01*
X86346807Y-75585312D01*
X89454978Y-78693482D01*
X89883756Y-78693482D01*
X92991927Y-75585312D01*
X93842139Y-75585312D01*
X96950310Y-78693482D01*
X97379088Y-78693482D01*
X100487259Y-75585312D01*
X101337471Y-75585312D01*
X104445642Y-78693482D01*
X104874420Y-78693482D01*
X107982591Y-75585312D01*
X108832803Y-75585312D01*
X111715000Y-78467509D01*
X111715000Y-72274336D01*
X108832803Y-75156533D01*
X108832803Y-75585312D01*
X107982591Y-75585312D01*
X107982591Y-75156533D01*
X104874420Y-72048363D01*
X104445642Y-72048363D01*
X101337471Y-75156533D01*
X101337471Y-75585312D01*
X100487259Y-75585312D01*
X100487259Y-75156533D01*
X97379088Y-72048363D01*
X96950310Y-72048363D01*
X93842139Y-75156533D01*
X93842139Y-75585312D01*
X92991927Y-75585312D01*
X92991927Y-75156533D01*
X89883756Y-72048363D01*
X89454978Y-72048363D01*
X86346807Y-75156533D01*
X86346807Y-75585312D01*
X85496595Y-75585312D01*
X85496595Y-75156533D01*
X82388424Y-72048363D01*
X81959646Y-72048363D01*
X78851475Y-75156533D01*
X78851475Y-75585312D01*
X78001263Y-75585312D01*
X78001263Y-75156533D01*
X74893093Y-72048363D01*
X74464314Y-72048363D01*
X71356144Y-75156533D01*
X71356144Y-75585312D01*
X70505931Y-75585312D01*
X70505931Y-75156533D01*
X67397761Y-72048363D01*
X66968982Y-72048363D01*
X63860812Y-75156533D01*
X63860812Y-75585312D01*
X63010599Y-75585312D01*
X63010599Y-75156533D01*
X59902429Y-72048363D01*
X59473650Y-72048363D01*
X56365480Y-75156533D01*
X56365480Y-75585312D01*
X55515267Y-75585312D01*
X55515267Y-75156533D01*
X52407097Y-72048363D01*
X51978318Y-72048363D01*
X48870148Y-75156533D01*
X48870148Y-75585312D01*
X48019936Y-75585312D01*
X48019936Y-75156533D01*
X44911765Y-72048363D01*
X44482987Y-72048363D01*
X41374816Y-75156533D01*
X41374816Y-75585312D01*
X40524604Y-75585312D01*
X40524604Y-75156533D01*
X37416433Y-72048363D01*
X36987655Y-72048363D01*
X33879484Y-75156533D01*
X33879484Y-75585312D01*
X33029272Y-75585312D01*
X33029272Y-75156533D01*
X29921101Y-72048363D01*
X29492323Y-72048363D01*
X26384152Y-75156533D01*
X26384152Y-75585312D01*
X25533940Y-75585312D01*
X25533940Y-75156533D01*
X22425769Y-72048363D01*
X21996991Y-72048363D01*
X18888820Y-75156533D01*
X18888820Y-75585312D01*
X18038608Y-75585312D01*
X18038608Y-75156533D01*
X14930437Y-72048363D01*
X14501659Y-72048363D01*
X12618000Y-73932021D01*
X12618000Y-76809824D01*
X12192000Y-76809824D01*
X12192000Y-71837646D01*
X15141154Y-71837646D01*
X18249325Y-74945816D01*
X18678103Y-74945816D01*
X21786274Y-71837646D01*
X22636486Y-71837646D01*
X25744657Y-74945816D01*
X26173435Y-74945816D01*
X29281606Y-71837646D01*
X30131818Y-71837646D01*
X33239989Y-74945816D01*
X33668767Y-74945816D01*
X36776938Y-71837646D01*
X37627150Y-71837646D01*
X40735321Y-74945816D01*
X41164099Y-74945816D01*
X44272270Y-71837646D01*
X45122482Y-71837646D01*
X48230652Y-74945816D01*
X48659431Y-74945816D01*
X51767601Y-71837646D01*
X52617814Y-71837646D01*
X55725984Y-74945816D01*
X56154763Y-74945816D01*
X59262933Y-71837646D01*
X60113146Y-71837646D01*
X63221316Y-74945816D01*
X63650095Y-74945816D01*
X66758265Y-71837646D01*
X67608478Y-71837646D01*
X70716648Y-74945816D01*
X71145427Y-74945816D01*
X74253597Y-71837646D01*
X75103809Y-71837646D01*
X78211980Y-74945816D01*
X78640758Y-74945816D01*
X81748929Y-71837646D01*
X82599141Y-71837646D01*
X85707312Y-74945816D01*
X86136090Y-74945816D01*
X89244261Y-71837646D01*
X90094473Y-71837646D01*
X93202644Y-74945816D01*
X93631422Y-74945816D01*
X96739593Y-71837646D01*
X97589805Y-71837646D01*
X100697976Y-74945816D01*
X101126754Y-74945816D01*
X104234925Y-71837646D01*
X105085137Y-71837646D01*
X108193307Y-74945816D01*
X108622086Y-74945816D01*
X111715000Y-71852903D01*
X111715000Y-71393610D01*
X108622086Y-68300697D01*
X108193307Y-68300697D01*
X105085137Y-71408867D01*
X105085137Y-71837646D01*
X104234925Y-71837646D01*
X104234925Y-71408867D01*
X101126754Y-68300697D01*
X100697976Y-68300697D01*
X97589805Y-71408867D01*
X97589805Y-71837646D01*
X96739593Y-71837646D01*
X96739593Y-71408867D01*
X93631422Y-68300697D01*
X93202644Y-68300697D01*
X90094473Y-71408867D01*
X90094473Y-71837646D01*
X89244261Y-71837646D01*
X89244261Y-71408867D01*
X86136090Y-68300697D01*
X85707312Y-68300697D01*
X82599141Y-71408867D01*
X82599141Y-71837646D01*
X81748929Y-71837646D01*
X81748929Y-71408867D01*
X78640758Y-68300697D01*
X78211980Y-68300697D01*
X75103809Y-71408867D01*
X75103809Y-71837646D01*
X74253597Y-71837646D01*
X74253597Y-71408867D01*
X71145427Y-68300697D01*
X70716648Y-68300697D01*
X67608478Y-71408867D01*
X67608478Y-71837646D01*
X66758265Y-71837646D01*
X66758265Y-71408867D01*
X63650095Y-68300697D01*
X63221316Y-68300697D01*
X60113146Y-71408867D01*
X60113146Y-71837646D01*
X59262933Y-71837646D01*
X59262933Y-71408867D01*
X56154763Y-68300697D01*
X55725984Y-68300697D01*
X52617814Y-71408867D01*
X52617814Y-71837646D01*
X51767601Y-71837646D01*
X51767601Y-71408867D01*
X48659431Y-68300697D01*
X48230652Y-68300697D01*
X45122482Y-71408867D01*
X45122482Y-71837646D01*
X44272270Y-71837646D01*
X44272270Y-71408867D01*
X41164099Y-68300697D01*
X40735321Y-68300697D01*
X37627150Y-71408867D01*
X37627150Y-71837646D01*
X36776938Y-71837646D01*
X36776938Y-71408867D01*
X33668767Y-68300697D01*
X33239989Y-68300697D01*
X30131818Y-71408867D01*
X30131818Y-71837646D01*
X29281606Y-71837646D01*
X29281606Y-71408867D01*
X26173435Y-68300697D01*
X25744657Y-68300697D01*
X22636486Y-71408867D01*
X22636486Y-71837646D01*
X21786274Y-71837646D01*
X21786274Y-71408867D01*
X18678103Y-68300697D01*
X18249325Y-68300697D01*
X15141154Y-71408867D01*
X15141154Y-71837646D01*
X12192000Y-71837646D01*
X12192000Y-69314492D01*
X12618000Y-69314492D01*
X14501659Y-71198151D01*
X14930437Y-71198151D01*
X18038608Y-68089980D01*
X18888820Y-68089980D01*
X21996991Y-71198151D01*
X22425769Y-71198151D01*
X25533940Y-68089980D01*
X26384152Y-68089980D01*
X29492323Y-71198151D01*
X29921101Y-71198151D01*
X33029272Y-68089980D01*
X33879484Y-68089980D01*
X36987655Y-71198151D01*
X37416433Y-71198151D01*
X40524604Y-68089980D01*
X41374816Y-68089980D01*
X44482987Y-71198151D01*
X44911765Y-71198151D01*
X48019936Y-68089980D01*
X48870148Y-68089980D01*
X51978318Y-71198151D01*
X52407097Y-71198151D01*
X55515267Y-68089980D01*
X56365480Y-68089980D01*
X59473650Y-71198151D01*
X59902429Y-71198151D01*
X63010599Y-68089980D01*
X63860812Y-68089980D01*
X66968982Y-71198151D01*
X67397761Y-71198151D01*
X70505931Y-68089980D01*
X71356144Y-68089980D01*
X74464314Y-71198151D01*
X74893093Y-71198151D01*
X78001263Y-68089980D01*
X78851475Y-68089980D01*
X81959646Y-71198151D01*
X82388424Y-71198151D01*
X85496595Y-68089980D01*
X86346807Y-68089980D01*
X89454978Y-71198151D01*
X89883756Y-71198151D01*
X92991927Y-68089980D01*
X93842139Y-68089980D01*
X96950310Y-71198151D01*
X97379088Y-71198151D01*
X100487259Y-68089980D01*
X101337471Y-68089980D01*
X104445642Y-71198151D01*
X104874420Y-71198151D01*
X107982591Y-68089980D01*
X108832803Y-68089980D01*
X111715000Y-70972178D01*
X111715000Y-64779004D01*
X108832803Y-67661201D01*
X108832803Y-68089980D01*
X107982591Y-68089980D01*
X107982591Y-67661201D01*
X104874420Y-64553031D01*
X104445642Y-64553031D01*
X101337471Y-67661201D01*
X101337471Y-68089980D01*
X100487259Y-68089980D01*
X100487259Y-67661201D01*
X97379088Y-64553031D01*
X96950310Y-64553031D01*
X93842139Y-67661201D01*
X93842139Y-68089980D01*
X92991927Y-68089980D01*
X92991927Y-67661201D01*
X89883756Y-64553031D01*
X89454978Y-64553031D01*
X86346807Y-67661201D01*
X86346807Y-68089980D01*
X85496595Y-68089980D01*
X85496595Y-67661201D01*
X82388424Y-64553031D01*
X81959646Y-64553031D01*
X78851475Y-67661201D01*
X78851475Y-68089980D01*
X78001263Y-68089980D01*
X78001263Y-67661201D01*
X74893093Y-64553031D01*
X74464314Y-64553031D01*
X71356144Y-67661201D01*
X71356144Y-68089980D01*
X70505931Y-68089980D01*
X70505931Y-67661201D01*
X67397761Y-64553031D01*
X66968982Y-64553031D01*
X63860812Y-67661201D01*
X63860812Y-68089980D01*
X63010599Y-68089980D01*
X63010599Y-67661201D01*
X59902429Y-64553031D01*
X59473650Y-64553031D01*
X56365480Y-67661201D01*
X56365480Y-68089980D01*
X55515267Y-68089980D01*
X55515267Y-67661201D01*
X52407097Y-64553031D01*
X51978318Y-64553031D01*
X48870148Y-67661201D01*
X48870148Y-68089980D01*
X48019936Y-68089980D01*
X48019936Y-67661201D01*
X44911765Y-64553031D01*
X44482987Y-64553031D01*
X41374816Y-67661201D01*
X41374816Y-68089980D01*
X40524604Y-68089980D01*
X40524604Y-67661201D01*
X37416433Y-64553031D01*
X36987655Y-64553031D01*
X33879484Y-67661201D01*
X33879484Y-68089980D01*
X33029272Y-68089980D01*
X33029272Y-67661201D01*
X29921101Y-64553031D01*
X29492323Y-64553031D01*
X26384152Y-67661201D01*
X26384152Y-68089980D01*
X25533940Y-68089980D01*
X25533940Y-67661201D01*
X22425769Y-64553031D01*
X21996991Y-64553031D01*
X18888820Y-67661201D01*
X18888820Y-68089980D01*
X18038608Y-68089980D01*
X18038608Y-67661201D01*
X14930437Y-64553031D01*
X14501659Y-64553031D01*
X12618000Y-66436689D01*
X12618000Y-69314492D01*
X12192000Y-69314492D01*
X12192000Y-64342314D01*
X15141154Y-64342314D01*
X18249325Y-67450485D01*
X18678103Y-67450485D01*
X21786274Y-64342314D01*
X22636486Y-64342314D01*
X25744657Y-67450485D01*
X26173435Y-67450485D01*
X29281606Y-64342314D01*
X30131818Y-64342314D01*
X33239989Y-67450485D01*
X33668767Y-67450485D01*
X36776938Y-64342314D01*
X37627150Y-64342314D01*
X40735321Y-67450485D01*
X41164099Y-67450485D01*
X44272270Y-64342314D01*
X45122482Y-64342314D01*
X48230652Y-67450485D01*
X48659431Y-67450485D01*
X51767601Y-64342314D01*
X52617814Y-64342314D01*
X55725984Y-67450485D01*
X56154763Y-67450485D01*
X59262933Y-64342314D01*
X60113146Y-64342314D01*
X63221316Y-67450485D01*
X63650095Y-67450485D01*
X66758265Y-64342314D01*
X67608478Y-64342314D01*
X70716648Y-67450485D01*
X71145427Y-67450485D01*
X74253597Y-64342314D01*
X75103809Y-64342314D01*
X78211980Y-67450485D01*
X78640758Y-67450485D01*
X81748929Y-64342314D01*
X82599141Y-64342314D01*
X85707312Y-67450485D01*
X86136090Y-67450485D01*
X89244261Y-64342314D01*
X90094473Y-64342314D01*
X93202644Y-67450485D01*
X93631422Y-67450485D01*
X96739593Y-64342314D01*
X97589805Y-64342314D01*
X100697976Y-67450485D01*
X101126754Y-67450485D01*
X104234925Y-64342314D01*
X105085137Y-64342314D01*
X108193307Y-67450485D01*
X108622086Y-67450485D01*
X111715000Y-64357571D01*
X111715000Y-63898279D01*
X108622086Y-60805365D01*
X108193307Y-60805365D01*
X105085137Y-63913536D01*
X105085137Y-64342314D01*
X104234925Y-64342314D01*
X104234925Y-63913536D01*
X101126754Y-60805365D01*
X100697976Y-60805365D01*
X97589805Y-63913536D01*
X97589805Y-64342314D01*
X96739593Y-64342314D01*
X96739593Y-63913536D01*
X93631422Y-60805365D01*
X93202644Y-60805365D01*
X90094473Y-63913536D01*
X90094473Y-64342314D01*
X89244261Y-64342314D01*
X89244261Y-63913536D01*
X86136090Y-60805365D01*
X85707312Y-60805365D01*
X82599141Y-63913536D01*
X82599141Y-64342314D01*
X81748929Y-64342314D01*
X81748929Y-63913536D01*
X78640758Y-60805365D01*
X78211980Y-60805365D01*
X75103809Y-63913536D01*
X75103809Y-64342314D01*
X74253597Y-64342314D01*
X74253597Y-63913536D01*
X71145427Y-60805365D01*
X70716648Y-60805365D01*
X67608478Y-63913536D01*
X67608478Y-64342314D01*
X66758265Y-64342314D01*
X66758265Y-63913536D01*
X63650095Y-60805365D01*
X63221316Y-60805365D01*
X60113146Y-63913536D01*
X60113146Y-64342314D01*
X59262933Y-64342314D01*
X59262933Y-63913536D01*
X56154763Y-60805365D01*
X55725984Y-60805365D01*
X52617814Y-63913536D01*
X52617814Y-64342314D01*
X51767601Y-64342314D01*
X51767601Y-63913536D01*
X48659431Y-60805365D01*
X48230652Y-60805365D01*
X45122482Y-63913536D01*
X45122482Y-64342314D01*
X44272270Y-64342314D01*
X44272270Y-63913536D01*
X41164099Y-60805365D01*
X40735321Y-60805365D01*
X37627150Y-63913536D01*
X37627150Y-64342314D01*
X36776938Y-64342314D01*
X36776938Y-63913536D01*
X33668767Y-60805365D01*
X33239989Y-60805365D01*
X30131818Y-63913536D01*
X30131818Y-64342314D01*
X29281606Y-64342314D01*
X29281606Y-63913536D01*
X26173435Y-60805365D01*
X25744657Y-60805365D01*
X22636486Y-63913536D01*
X22636486Y-64342314D01*
X21786274Y-64342314D01*
X21786274Y-63913536D01*
X18678103Y-60805365D01*
X18249325Y-60805365D01*
X15141154Y-63913536D01*
X15141154Y-64342314D01*
X12192000Y-64342314D01*
X12192000Y-61819160D01*
X12618000Y-61819160D01*
X14501659Y-63702819D01*
X14930437Y-63702819D01*
X18038608Y-60594648D01*
X18888820Y-60594648D01*
X21996991Y-63702819D01*
X22425769Y-63702819D01*
X25533940Y-60594648D01*
X26384152Y-60594648D01*
X29492323Y-63702819D01*
X29921101Y-63702819D01*
X33029272Y-60594648D01*
X33879484Y-60594648D01*
X36987655Y-63702819D01*
X37416433Y-63702819D01*
X40524604Y-60594648D01*
X41374816Y-60594648D01*
X44482987Y-63702819D01*
X44911765Y-63702819D01*
X48019936Y-60594648D01*
X48870148Y-60594648D01*
X51978318Y-63702819D01*
X52407097Y-63702819D01*
X55515267Y-60594648D01*
X56365480Y-60594648D01*
X59473650Y-63702819D01*
X59902429Y-63702819D01*
X63010599Y-60594648D01*
X63860812Y-60594648D01*
X66968982Y-63702819D01*
X67397761Y-63702819D01*
X70505931Y-60594648D01*
X71356144Y-60594648D01*
X74464314Y-63702819D01*
X74893093Y-63702819D01*
X78001263Y-60594648D01*
X78851475Y-60594648D01*
X81959646Y-63702819D01*
X82388424Y-63702819D01*
X85496595Y-60594648D01*
X86346807Y-60594648D01*
X89454978Y-63702819D01*
X89883756Y-63702819D01*
X92991927Y-60594648D01*
X93842139Y-60594648D01*
X96950310Y-63702819D01*
X97379088Y-63702819D01*
X100487259Y-60594648D01*
X101337471Y-60594648D01*
X104445642Y-63702819D01*
X104874420Y-63702819D01*
X107982591Y-60594648D01*
X108832803Y-60594648D01*
X111715000Y-63476846D01*
X111715000Y-57283672D01*
X108832803Y-60165870D01*
X108832803Y-60594648D01*
X107982591Y-60594648D01*
X107982591Y-60165870D01*
X104874420Y-57057699D01*
X104445642Y-57057699D01*
X101337471Y-60165870D01*
X101337471Y-60594648D01*
X100487259Y-60594648D01*
X100487259Y-60165870D01*
X97379088Y-57057699D01*
X96950310Y-57057699D01*
X93842139Y-60165870D01*
X93842139Y-60594648D01*
X92991927Y-60594648D01*
X92991927Y-60165870D01*
X89883756Y-57057699D01*
X89454978Y-57057699D01*
X86346807Y-60165870D01*
X86346807Y-60594648D01*
X85496595Y-60594648D01*
X85496595Y-60165870D01*
X82388424Y-57057699D01*
X81959646Y-57057699D01*
X78851475Y-60165870D01*
X78851475Y-60594648D01*
X78001263Y-60594648D01*
X78001263Y-60165870D01*
X74893093Y-57057699D01*
X74464314Y-57057699D01*
X71356144Y-60165870D01*
X71356144Y-60594648D01*
X70505931Y-60594648D01*
X70505931Y-60165870D01*
X67397761Y-57057699D01*
X66968982Y-57057699D01*
X63860812Y-60165870D01*
X63860812Y-60594648D01*
X63010599Y-60594648D01*
X63010599Y-60165870D01*
X59902429Y-57057699D01*
X59473650Y-57057699D01*
X56365480Y-60165870D01*
X56365480Y-60594648D01*
X55515267Y-60594648D01*
X55515267Y-60165870D01*
X52407097Y-57057699D01*
X51978318Y-57057699D01*
X48870148Y-60165870D01*
X48870148Y-60594648D01*
X48019936Y-60594648D01*
X48019936Y-60165870D01*
X44911765Y-57057699D01*
X44482987Y-57057699D01*
X41374816Y-60165870D01*
X41374816Y-60594648D01*
X40524604Y-60594648D01*
X40524604Y-60165870D01*
X37416433Y-57057699D01*
X36987655Y-57057699D01*
X33879484Y-60165870D01*
X33879484Y-60594648D01*
X33029272Y-60594648D01*
X33029272Y-60165870D01*
X29921101Y-57057699D01*
X29492323Y-57057699D01*
X26384152Y-60165870D01*
X26384152Y-60594648D01*
X25533940Y-60594648D01*
X25533940Y-60165870D01*
X22425769Y-57057699D01*
X21996991Y-57057699D01*
X18888820Y-60165870D01*
X18888820Y-60594648D01*
X18038608Y-60594648D01*
X18038608Y-60165870D01*
X14930437Y-57057699D01*
X14501659Y-57057699D01*
X12618000Y-58941358D01*
X12618000Y-61819160D01*
X12192000Y-61819160D01*
X12192000Y-56846982D01*
X15141154Y-56846982D01*
X18249325Y-59955153D01*
X18678103Y-59955153D01*
X21786274Y-56846982D01*
X22636486Y-56846982D01*
X25744657Y-59955153D01*
X26173435Y-59955153D01*
X29281606Y-56846982D01*
X30131818Y-56846982D01*
X33239989Y-59955153D01*
X33668767Y-59955153D01*
X36776938Y-56846982D01*
X37627150Y-56846982D01*
X40735321Y-59955153D01*
X41164099Y-59955153D01*
X44272270Y-56846982D01*
X45122482Y-56846982D01*
X48230652Y-59955153D01*
X48659431Y-59955153D01*
X51767601Y-56846982D01*
X52617814Y-56846982D01*
X55725984Y-59955153D01*
X56154763Y-59955153D01*
X59262933Y-56846982D01*
X60113146Y-56846982D01*
X63221316Y-59955153D01*
X63650095Y-59955153D01*
X66758265Y-56846982D01*
X67608478Y-56846982D01*
X70716648Y-59955153D01*
X71145427Y-59955153D01*
X74253597Y-56846982D01*
X75103809Y-56846982D01*
X78211980Y-59955153D01*
X78640758Y-59955153D01*
X81748929Y-56846982D01*
X82599141Y-56846982D01*
X85707312Y-59955153D01*
X86136090Y-59955153D01*
X89244261Y-56846982D01*
X90094473Y-56846982D01*
X93202644Y-59955153D01*
X93631422Y-59955153D01*
X96739593Y-56846982D01*
X97589805Y-56846982D01*
X100697976Y-59955153D01*
X101126754Y-59955153D01*
X104234925Y-56846982D01*
X105085137Y-56846982D01*
X108193307Y-59955153D01*
X108622086Y-59955153D01*
X111715000Y-56862239D01*
X111715000Y-56402947D01*
X108622086Y-53310033D01*
X108193307Y-53310033D01*
X105085137Y-56418204D01*
X105085137Y-56846982D01*
X104234925Y-56846982D01*
X104234925Y-56418204D01*
X101126754Y-53310033D01*
X100697976Y-53310033D01*
X97589805Y-56418204D01*
X97589805Y-56846982D01*
X96739593Y-56846982D01*
X96739593Y-56418204D01*
X93631422Y-53310033D01*
X93202644Y-53310033D01*
X90094473Y-56418204D01*
X90094473Y-56846982D01*
X89244261Y-56846982D01*
X89244261Y-56418204D01*
X86136090Y-53310033D01*
X85707312Y-53310033D01*
X82599141Y-56418204D01*
X82599141Y-56846982D01*
X81748929Y-56846982D01*
X81748929Y-56418204D01*
X78640758Y-53310033D01*
X78211980Y-53310033D01*
X75103809Y-56418204D01*
X75103809Y-56846982D01*
X74253597Y-56846982D01*
X74253597Y-56418204D01*
X71145427Y-53310033D01*
X70716648Y-53310033D01*
X67608478Y-56418204D01*
X67608478Y-56846982D01*
X66758265Y-56846982D01*
X66758265Y-56418204D01*
X63650095Y-53310033D01*
X63221316Y-53310033D01*
X60113146Y-56418204D01*
X60113146Y-56846982D01*
X59262933Y-56846982D01*
X59262933Y-56418204D01*
X56154763Y-53310033D01*
X55725984Y-53310033D01*
X52617814Y-56418204D01*
X52617814Y-56846982D01*
X51767601Y-56846982D01*
X51767601Y-56418204D01*
X48659431Y-53310033D01*
X48230652Y-53310033D01*
X45122482Y-56418204D01*
X45122482Y-56846982D01*
X44272270Y-56846982D01*
X44272270Y-56418204D01*
X41164099Y-53310033D01*
X40735321Y-53310033D01*
X37627150Y-56418204D01*
X37627150Y-56846982D01*
X36776938Y-56846982D01*
X36776938Y-56418204D01*
X33668767Y-53310033D01*
X33239989Y-53310033D01*
X30131818Y-56418204D01*
X30131818Y-56846982D01*
X29281606Y-56846982D01*
X29281606Y-56418204D01*
X26173435Y-53310033D01*
X25744657Y-53310033D01*
X22636486Y-56418204D01*
X22636486Y-56846982D01*
X21786274Y-56846982D01*
X21786274Y-56418204D01*
X18678103Y-53310033D01*
X18249325Y-53310033D01*
X15141154Y-56418204D01*
X15141154Y-56846982D01*
X12192000Y-56846982D01*
X12192000Y-54323828D01*
X12618000Y-54323828D01*
X14501659Y-56207487D01*
X14930437Y-56207487D01*
X18038608Y-53099316D01*
X18888820Y-53099316D01*
X21996991Y-56207487D01*
X22425769Y-56207487D01*
X25533940Y-53099316D01*
X26384152Y-53099316D01*
X29492323Y-56207487D01*
X29921101Y-56207487D01*
X33029272Y-53099316D01*
X33879484Y-53099316D01*
X36987655Y-56207487D01*
X37416433Y-56207487D01*
X40524604Y-53099316D01*
X41374816Y-53099316D01*
X44482987Y-56207487D01*
X44911765Y-56207487D01*
X48019936Y-53099316D01*
X48870148Y-53099316D01*
X51978318Y-56207487D01*
X52407097Y-56207487D01*
X55515267Y-53099316D01*
X56365480Y-53099316D01*
X59473650Y-56207487D01*
X59902429Y-56207487D01*
X63010599Y-53099316D01*
X63860812Y-53099316D01*
X66968982Y-56207487D01*
X67397761Y-56207487D01*
X70505931Y-53099316D01*
X71356144Y-53099316D01*
X74464314Y-56207487D01*
X74893093Y-56207487D01*
X78001263Y-53099316D01*
X78851475Y-53099316D01*
X81959646Y-56207487D01*
X82388424Y-56207487D01*
X85496595Y-53099316D01*
X86346807Y-53099316D01*
X89454978Y-56207487D01*
X89883756Y-56207487D01*
X92991927Y-53099316D01*
X93842139Y-53099316D01*
X96950310Y-56207487D01*
X97379088Y-56207487D01*
X100487259Y-53099316D01*
X101337471Y-53099316D01*
X104445642Y-56207487D01*
X104874420Y-56207487D01*
X107982591Y-53099316D01*
X108832803Y-53099316D01*
X111715000Y-55981514D01*
X111715000Y-49788340D01*
X108832803Y-52670538D01*
X108832803Y-53099316D01*
X107982591Y-53099316D01*
X107982591Y-52670538D01*
X104874420Y-49562367D01*
X104445642Y-49562367D01*
X101337471Y-52670538D01*
X101337471Y-53099316D01*
X100487259Y-53099316D01*
X100487259Y-52670538D01*
X97379088Y-49562367D01*
X96950310Y-49562367D01*
X93842139Y-52670538D01*
X93842139Y-53099316D01*
X92991927Y-53099316D01*
X92991927Y-52670538D01*
X89883756Y-49562367D01*
X89454978Y-49562367D01*
X86346807Y-52670538D01*
X86346807Y-53099316D01*
X85496595Y-53099316D01*
X85496595Y-52670538D01*
X82388424Y-49562367D01*
X81959646Y-49562367D01*
X78851475Y-52670538D01*
X78851475Y-53099316D01*
X78001263Y-53099316D01*
X78001263Y-52670538D01*
X74893093Y-49562367D01*
X74464314Y-49562367D01*
X71356144Y-52670538D01*
X71356144Y-53099316D01*
X70505931Y-53099316D01*
X70505931Y-52670538D01*
X67397761Y-49562367D01*
X66968982Y-49562367D01*
X63860812Y-52670538D01*
X63860812Y-53099316D01*
X63010599Y-53099316D01*
X63010599Y-52670538D01*
X59902429Y-49562367D01*
X59473650Y-49562367D01*
X56365480Y-52670538D01*
X56365480Y-53099316D01*
X55515267Y-53099316D01*
X55515267Y-52670538D01*
X52407097Y-49562367D01*
X51978318Y-49562367D01*
X48870148Y-52670538D01*
X48870148Y-53099316D01*
X48019936Y-53099316D01*
X48019936Y-52670538D01*
X44911765Y-49562367D01*
X44482987Y-49562367D01*
X41374816Y-52670538D01*
X41374816Y-53099316D01*
X40524604Y-53099316D01*
X40524604Y-52670538D01*
X37416433Y-49562367D01*
X36987655Y-49562367D01*
X33879484Y-52670538D01*
X33879484Y-53099316D01*
X33029272Y-53099316D01*
X33029272Y-52670538D01*
X29921101Y-49562367D01*
X29492323Y-49562367D01*
X26384152Y-52670538D01*
X26384152Y-53099316D01*
X25533940Y-53099316D01*
X25533940Y-52670538D01*
X22425769Y-49562367D01*
X21996991Y-49562367D01*
X18888820Y-52670538D01*
X18888820Y-53099316D01*
X18038608Y-53099316D01*
X18038608Y-52670538D01*
X14930437Y-49562367D01*
X14501659Y-49562367D01*
X12618000Y-51446026D01*
X12618000Y-54323828D01*
X12192000Y-54323828D01*
X12192000Y-49351650D01*
X15141154Y-49351650D01*
X18249325Y-52459821D01*
X18678103Y-52459821D01*
X21786274Y-49351650D01*
X22636486Y-49351650D01*
X25744657Y-52459821D01*
X26173435Y-52459821D01*
X29281606Y-49351650D01*
X30131818Y-49351650D01*
X33239989Y-52459821D01*
X33668767Y-52459821D01*
X36776938Y-49351650D01*
X37627150Y-49351650D01*
X40735321Y-52459821D01*
X41164099Y-52459821D01*
X44272270Y-49351650D01*
X45122482Y-49351650D01*
X48230652Y-52459821D01*
X48659431Y-52459821D01*
X51767601Y-49351650D01*
X52617814Y-49351650D01*
X55725984Y-52459821D01*
X56154763Y-52459821D01*
X59262933Y-49351650D01*
X60113146Y-49351650D01*
X63221316Y-52459821D01*
X63650095Y-52459821D01*
X66758265Y-49351650D01*
X67608478Y-49351650D01*
X70716648Y-52459821D01*
X71145427Y-52459821D01*
X74253597Y-49351650D01*
X75103809Y-49351650D01*
X78211980Y-52459821D01*
X78640758Y-52459821D01*
X81748929Y-49351650D01*
X82599141Y-49351650D01*
X85707312Y-52459821D01*
X86136090Y-52459821D01*
X89244261Y-49351650D01*
X90094473Y-49351650D01*
X93202644Y-52459821D01*
X93631422Y-52459821D01*
X96739593Y-49351650D01*
X97589805Y-49351650D01*
X100697976Y-52459821D01*
X101126754Y-52459821D01*
X104234925Y-49351650D01*
X105085137Y-49351650D01*
X108193307Y-52459821D01*
X108622086Y-52459821D01*
X111715000Y-49366907D01*
X111715000Y-48907615D01*
X108622086Y-45814701D01*
X108193307Y-45814701D01*
X105085137Y-48922872D01*
X105085137Y-49351650D01*
X104234925Y-49351650D01*
X104234925Y-48922872D01*
X101126754Y-45814701D01*
X100697976Y-45814701D01*
X97589805Y-48922872D01*
X97589805Y-49351650D01*
X96739593Y-49351650D01*
X96739593Y-48922872D01*
X93631422Y-45814701D01*
X93202644Y-45814701D01*
X90094473Y-48922872D01*
X90094473Y-49351650D01*
X89244261Y-49351650D01*
X89244261Y-48922872D01*
X86136090Y-45814701D01*
X85707312Y-45814701D01*
X82599141Y-48922872D01*
X82599141Y-49351650D01*
X81748929Y-49351650D01*
X81748929Y-48922872D01*
X78640758Y-45814701D01*
X78211980Y-45814701D01*
X75103809Y-48922872D01*
X75103809Y-49351650D01*
X74253597Y-49351650D01*
X74253597Y-48922872D01*
X71145427Y-45814701D01*
X70716648Y-45814701D01*
X67608478Y-48922872D01*
X67608478Y-49351650D01*
X66758265Y-49351650D01*
X66758265Y-48922872D01*
X63650095Y-45814701D01*
X63221316Y-45814701D01*
X60113146Y-48922872D01*
X60113146Y-49351650D01*
X59262933Y-49351650D01*
X59262933Y-48922872D01*
X56154763Y-45814701D01*
X55725984Y-45814701D01*
X52617814Y-48922872D01*
X52617814Y-49351650D01*
X51767601Y-49351650D01*
X51767601Y-48922872D01*
X48659431Y-45814701D01*
X48230652Y-45814701D01*
X45122482Y-48922872D01*
X45122482Y-49351650D01*
X44272270Y-49351650D01*
X44272270Y-48922872D01*
X41164099Y-45814701D01*
X40735321Y-45814701D01*
X37627150Y-48922872D01*
X37627150Y-49351650D01*
X36776938Y-49351650D01*
X36776938Y-48922872D01*
X33668767Y-45814701D01*
X33239989Y-45814701D01*
X30131818Y-48922872D01*
X30131818Y-49351650D01*
X29281606Y-49351650D01*
X29281606Y-48922872D01*
X26173435Y-45814701D01*
X25744657Y-45814701D01*
X22636486Y-48922872D01*
X22636486Y-49351650D01*
X21786274Y-49351650D01*
X21786274Y-48922872D01*
X18678103Y-45814701D01*
X18249325Y-45814701D01*
X15141154Y-48922872D01*
X15141154Y-49351650D01*
X12192000Y-49351650D01*
X12192000Y-46828496D01*
X12618000Y-46828496D01*
X14501659Y-48712155D01*
X14930437Y-48712155D01*
X18038608Y-45603984D01*
X18888820Y-45603984D01*
X21996991Y-48712155D01*
X22425769Y-48712155D01*
X25533940Y-45603984D01*
X26384152Y-45603984D01*
X29492323Y-48712155D01*
X29921101Y-48712155D01*
X33029272Y-45603984D01*
X33879484Y-45603984D01*
X36987655Y-48712155D01*
X37416433Y-48712155D01*
X40524604Y-45603984D01*
X41374816Y-45603984D01*
X44482987Y-48712155D01*
X44911765Y-48712155D01*
X48019936Y-45603984D01*
X48870148Y-45603984D01*
X51978318Y-48712155D01*
X52407097Y-48712155D01*
X55515267Y-45603984D01*
X56365480Y-45603984D01*
X59473650Y-48712155D01*
X59902429Y-48712155D01*
X63010599Y-45603984D01*
X63860812Y-45603984D01*
X66968982Y-48712155D01*
X67397761Y-48712155D01*
X70505931Y-45603984D01*
X71356144Y-45603984D01*
X74464314Y-48712155D01*
X74893093Y-48712155D01*
X78001263Y-45603984D01*
X78851475Y-45603984D01*
X81959646Y-48712155D01*
X82388424Y-48712155D01*
X85496595Y-45603984D01*
X86346807Y-45603984D01*
X89454978Y-48712155D01*
X89883756Y-48712155D01*
X92991927Y-45603984D01*
X93842139Y-45603984D01*
X96950310Y-48712155D01*
X97379088Y-48712155D01*
X100487259Y-45603984D01*
X101337471Y-45603984D01*
X104445642Y-48712155D01*
X104874420Y-48712155D01*
X107982591Y-45603984D01*
X108832803Y-45603984D01*
X111715000Y-48486182D01*
X111715000Y-42293008D01*
X108832803Y-45175206D01*
X108832803Y-45603984D01*
X107982591Y-45603984D01*
X107982591Y-45175206D01*
X104874420Y-42067035D01*
X104445642Y-42067035D01*
X101337471Y-45175206D01*
X101337471Y-45603984D01*
X100487259Y-45603984D01*
X100487259Y-45175206D01*
X97379088Y-42067035D01*
X96950310Y-42067035D01*
X93842139Y-45175206D01*
X93842139Y-45603984D01*
X92991927Y-45603984D01*
X92991927Y-45175206D01*
X89883756Y-42067035D01*
X89454978Y-42067035D01*
X86346807Y-45175206D01*
X86346807Y-45603984D01*
X85496595Y-45603984D01*
X85496595Y-45175206D01*
X82388424Y-42067035D01*
X81959646Y-42067035D01*
X78851475Y-45175206D01*
X78851475Y-45603984D01*
X78001263Y-45603984D01*
X78001263Y-45175206D01*
X74893093Y-42067035D01*
X74464314Y-42067035D01*
X71356144Y-45175206D01*
X71356144Y-45603984D01*
X70505931Y-45603984D01*
X70505931Y-45175206D01*
X67397761Y-42067035D01*
X66968982Y-42067035D01*
X63860812Y-45175206D01*
X63860812Y-45603984D01*
X63010599Y-45603984D01*
X63010599Y-45175206D01*
X59902429Y-42067035D01*
X59473650Y-42067035D01*
X56365480Y-45175206D01*
X56365480Y-45603984D01*
X55515267Y-45603984D01*
X55515267Y-45175206D01*
X52407097Y-42067035D01*
X51978318Y-42067035D01*
X48870148Y-45175206D01*
X48870148Y-45603984D01*
X48019936Y-45603984D01*
X48019936Y-45175206D01*
X44911765Y-42067035D01*
X44482987Y-42067035D01*
X41374816Y-45175206D01*
X41374816Y-45603984D01*
X40524604Y-45603984D01*
X40524604Y-45175206D01*
X37416433Y-42067035D01*
X36987655Y-42067035D01*
X33879484Y-45175206D01*
X33879484Y-45603984D01*
X33029272Y-45603984D01*
X33029272Y-45175206D01*
X29921101Y-42067035D01*
X29492323Y-42067035D01*
X26384152Y-45175206D01*
X26384152Y-45603984D01*
X25533940Y-45603984D01*
X25533940Y-45175206D01*
X22425769Y-42067035D01*
X21996991Y-42067035D01*
X18888820Y-45175206D01*
X18888820Y-45603984D01*
X18038608Y-45603984D01*
X18038608Y-45175206D01*
X14930437Y-42067035D01*
X14501659Y-42067035D01*
X12618000Y-43950694D01*
X12618000Y-46828496D01*
X12192000Y-46828496D01*
X12192000Y-41856318D01*
X15141154Y-41856318D01*
X18249325Y-44964489D01*
X18678103Y-44964489D01*
X21786274Y-41856318D01*
X22636486Y-41856318D01*
X25744657Y-44964489D01*
X26173435Y-44964489D01*
X29281606Y-41856318D01*
X30131818Y-41856318D01*
X33239989Y-44964489D01*
X33668767Y-44964489D01*
X36776938Y-41856318D01*
X37627150Y-41856318D01*
X40735321Y-44964489D01*
X41164099Y-44964489D01*
X44272270Y-41856318D01*
X45122482Y-41856318D01*
X48230652Y-44964489D01*
X48659431Y-44964489D01*
X51767601Y-41856318D01*
X52617814Y-41856318D01*
X55725984Y-44964489D01*
X56154763Y-44964489D01*
X59262933Y-41856318D01*
X60113146Y-41856318D01*
X63221316Y-44964489D01*
X63650095Y-44964489D01*
X66758265Y-41856318D01*
X67608478Y-41856318D01*
X70716648Y-44964489D01*
X71145427Y-44964489D01*
X74253597Y-41856318D01*
X75103809Y-41856318D01*
X78211980Y-44964489D01*
X78640758Y-44964489D01*
X81748929Y-41856318D01*
X82599141Y-41856318D01*
X85707312Y-44964489D01*
X86136090Y-44964489D01*
X89244261Y-41856318D01*
X90094473Y-41856318D01*
X93202644Y-44964489D01*
X93631422Y-44964489D01*
X96739593Y-41856318D01*
X97589805Y-41856318D01*
X100697976Y-44964489D01*
X101126754Y-44964489D01*
X104234925Y-41856318D01*
X105085137Y-41856318D01*
X108193307Y-44964489D01*
X108622086Y-44964489D01*
X111715000Y-41871575D01*
X111715000Y-41412283D01*
X108622086Y-38319369D01*
X108193307Y-38319369D01*
X105085137Y-41427540D01*
X105085137Y-41856318D01*
X104234925Y-41856318D01*
X104234925Y-41427540D01*
X101126754Y-38319369D01*
X100697976Y-38319369D01*
X97589805Y-41427540D01*
X97589805Y-41856318D01*
X96739593Y-41856318D01*
X96739593Y-41427540D01*
X93631422Y-38319369D01*
X93202644Y-38319369D01*
X90094473Y-41427540D01*
X90094473Y-41856318D01*
X89244261Y-41856318D01*
X89244261Y-41427540D01*
X86136090Y-38319369D01*
X85707312Y-38319369D01*
X82599141Y-41427540D01*
X82599141Y-41856318D01*
X81748929Y-41856318D01*
X81748929Y-41427540D01*
X78640758Y-38319369D01*
X78211980Y-38319369D01*
X75103809Y-41427540D01*
X75103809Y-41856318D01*
X74253597Y-41856318D01*
X74253597Y-41427540D01*
X71145427Y-38319369D01*
X70716648Y-38319369D01*
X67608478Y-41427540D01*
X67608478Y-41856318D01*
X66758265Y-41856318D01*
X66758265Y-41427540D01*
X63650095Y-38319369D01*
X63221316Y-38319369D01*
X60113146Y-41427540D01*
X60113146Y-41856318D01*
X59262933Y-41856318D01*
X59262933Y-41427540D01*
X56154763Y-38319369D01*
X55725984Y-38319369D01*
X52617814Y-41427540D01*
X52617814Y-41856318D01*
X51767601Y-41856318D01*
X51767601Y-41427540D01*
X48659431Y-38319369D01*
X48230652Y-38319369D01*
X45122482Y-41427540D01*
X45122482Y-41856318D01*
X44272270Y-41856318D01*
X44272270Y-41427540D01*
X41164099Y-38319369D01*
X40735321Y-38319369D01*
X37627150Y-41427540D01*
X37627150Y-41856318D01*
X36776938Y-41856318D01*
X36776938Y-41427540D01*
X33668767Y-38319369D01*
X33239989Y-38319369D01*
X30131818Y-41427540D01*
X30131818Y-41856318D01*
X29281606Y-41856318D01*
X29281606Y-41427540D01*
X26173435Y-38319369D01*
X25744657Y-38319369D01*
X22636486Y-41427540D01*
X22636486Y-41856318D01*
X21786274Y-41856318D01*
X21786274Y-41427540D01*
X18678103Y-38319369D01*
X18249325Y-38319369D01*
X15141154Y-41427540D01*
X15141154Y-41856318D01*
X12192000Y-41856318D01*
X12192000Y-39333164D01*
X12618000Y-39333164D01*
X14501659Y-41216823D01*
X14930437Y-41216823D01*
X18038608Y-38108652D01*
X18888820Y-38108652D01*
X21996991Y-41216823D01*
X22425769Y-41216823D01*
X25533940Y-38108652D01*
X26384152Y-38108652D01*
X29492323Y-41216823D01*
X29921101Y-41216823D01*
X33029272Y-38108652D01*
X33879484Y-38108652D01*
X36987655Y-41216823D01*
X37416433Y-41216823D01*
X40524604Y-38108652D01*
X41374816Y-38108652D01*
X44482987Y-41216823D01*
X44911765Y-41216823D01*
X48019936Y-38108652D01*
X48870148Y-38108652D01*
X51978318Y-41216823D01*
X52407097Y-41216823D01*
X55515267Y-38108652D01*
X56365480Y-38108652D01*
X59473650Y-41216823D01*
X59902429Y-41216823D01*
X63010599Y-38108652D01*
X63860812Y-38108652D01*
X66968982Y-41216823D01*
X67397761Y-41216823D01*
X70505931Y-38108652D01*
X71356144Y-38108652D01*
X74464314Y-41216823D01*
X74893093Y-41216823D01*
X78001263Y-38108652D01*
X78851475Y-38108652D01*
X81959646Y-41216823D01*
X82388424Y-41216823D01*
X85496595Y-38108652D01*
X86346807Y-38108652D01*
X89454978Y-41216823D01*
X89883756Y-41216823D01*
X92991927Y-38108652D01*
X93842139Y-38108652D01*
X96950310Y-41216823D01*
X97379088Y-41216823D01*
X100487259Y-38108652D01*
X101337471Y-38108652D01*
X104445642Y-41216823D01*
X104874420Y-41216823D01*
X107982591Y-38108652D01*
X108832803Y-38108652D01*
X111715000Y-40990850D01*
X111715000Y-34797676D01*
X108832803Y-37679874D01*
X108832803Y-38108652D01*
X107982591Y-38108652D01*
X107982591Y-37679874D01*
X104874420Y-34571703D01*
X104445642Y-34571703D01*
X101337471Y-37679874D01*
X101337471Y-38108652D01*
X100487259Y-38108652D01*
X100487259Y-37679874D01*
X97379088Y-34571703D01*
X96950310Y-34571703D01*
X93842139Y-37679874D01*
X93842139Y-38108652D01*
X92991927Y-38108652D01*
X92991927Y-37679874D01*
X89883756Y-34571703D01*
X89454978Y-34571703D01*
X86346807Y-37679874D01*
X86346807Y-38108652D01*
X85496595Y-38108652D01*
X85496595Y-37679874D01*
X82388424Y-34571703D01*
X81959646Y-34571703D01*
X78851475Y-37679874D01*
X78851475Y-38108652D01*
X78001263Y-38108652D01*
X78001263Y-37679874D01*
X74893093Y-34571703D01*
X74464314Y-34571703D01*
X71356144Y-37679874D01*
X71356144Y-38108652D01*
X70505931Y-38108652D01*
X70505931Y-37679874D01*
X67397761Y-34571703D01*
X66968982Y-34571703D01*
X63860812Y-37679874D01*
X63860812Y-38108652D01*
X63010599Y-38108652D01*
X63010599Y-37679874D01*
X59902429Y-34571703D01*
X59473650Y-34571703D01*
X56365480Y-37679874D01*
X56365480Y-38108652D01*
X55515267Y-38108652D01*
X55515267Y-37679874D01*
X52407097Y-34571703D01*
X51978318Y-34571703D01*
X48870148Y-37679874D01*
X48870148Y-38108652D01*
X48019936Y-38108652D01*
X48019936Y-37679874D01*
X44911765Y-34571703D01*
X44482987Y-34571703D01*
X41374816Y-37679874D01*
X41374816Y-38108652D01*
X40524604Y-38108652D01*
X40524604Y-37679874D01*
X37416433Y-34571703D01*
X36987655Y-34571703D01*
X33879484Y-37679874D01*
X33879484Y-38108652D01*
X33029272Y-38108652D01*
X33029272Y-37679874D01*
X29921101Y-34571703D01*
X29492323Y-34571703D01*
X26384152Y-37679874D01*
X26384152Y-38108652D01*
X25533940Y-38108652D01*
X25533940Y-37679874D01*
X22425769Y-34571703D01*
X21996991Y-34571703D01*
X18888820Y-37679874D01*
X18888820Y-38108652D01*
X18038608Y-38108652D01*
X18038608Y-37679874D01*
X14930437Y-34571703D01*
X14501659Y-34571703D01*
X12618000Y-36455362D01*
X12618000Y-39333164D01*
X12192000Y-39333164D01*
X12192000Y-34360987D01*
X15141154Y-34360987D01*
X18249325Y-37469157D01*
X18678103Y-37469157D01*
X21786274Y-34360987D01*
X22636486Y-34360987D01*
X25744657Y-37469157D01*
X26173435Y-37469157D01*
X29281606Y-34360987D01*
X30131818Y-34360987D01*
X33239989Y-37469157D01*
X33668767Y-37469157D01*
X36776938Y-34360987D01*
X37627150Y-34360987D01*
X40735321Y-37469157D01*
X41164099Y-37469157D01*
X44272270Y-34360987D01*
X45122482Y-34360987D01*
X48230652Y-37469157D01*
X48659431Y-37469157D01*
X51767601Y-34360987D01*
X52617814Y-34360987D01*
X55725984Y-37469157D01*
X56154763Y-37469157D01*
X59262933Y-34360987D01*
X60113146Y-34360987D01*
X63221316Y-37469157D01*
X63650095Y-37469157D01*
X66758265Y-34360987D01*
X67608478Y-34360987D01*
X70716648Y-37469157D01*
X71145427Y-37469157D01*
X74253597Y-34360987D01*
X75103809Y-34360987D01*
X78211980Y-37469157D01*
X78640758Y-37469157D01*
X81748929Y-34360987D01*
X82599141Y-34360987D01*
X85707312Y-37469157D01*
X86136090Y-37469157D01*
X89244261Y-34360987D01*
X90094473Y-34360987D01*
X93202644Y-37469157D01*
X93631422Y-37469157D01*
X96739593Y-34360987D01*
X97589805Y-34360987D01*
X100697976Y-37469157D01*
X101126754Y-37469157D01*
X104234925Y-34360987D01*
X105085137Y-34360987D01*
X108193307Y-37469157D01*
X108622086Y-37469157D01*
X111715000Y-34376244D01*
X111715000Y-33916951D01*
X108622086Y-30824038D01*
X108193307Y-30824038D01*
X105085137Y-33932208D01*
X105085137Y-34360987D01*
X104234925Y-34360987D01*
X104234925Y-33932208D01*
X101126754Y-30824038D01*
X100697976Y-30824038D01*
X97589805Y-33932208D01*
X97589805Y-34360987D01*
X96739593Y-34360987D01*
X96739593Y-33932208D01*
X93631422Y-30824038D01*
X93202644Y-30824038D01*
X90094473Y-33932208D01*
X90094473Y-34360987D01*
X89244261Y-34360987D01*
X89244261Y-33932208D01*
X86136090Y-30824038D01*
X85707312Y-30824038D01*
X82599141Y-33932208D01*
X82599141Y-34360987D01*
X81748929Y-34360987D01*
X81748929Y-33932208D01*
X78640758Y-30824038D01*
X78211980Y-30824038D01*
X75103809Y-33932208D01*
X75103809Y-34360987D01*
X74253597Y-34360987D01*
X74253597Y-33932208D01*
X71145427Y-30824038D01*
X70716648Y-30824038D01*
X67608478Y-33932208D01*
X67608478Y-34360987D01*
X66758265Y-34360987D01*
X66758265Y-33932208D01*
X63650095Y-30824038D01*
X63221316Y-30824038D01*
X60113146Y-33932208D01*
X60113146Y-34360987D01*
X59262933Y-34360987D01*
X59262933Y-33932208D01*
X56154763Y-30824038D01*
X55725984Y-30824038D01*
X52617814Y-33932208D01*
X52617814Y-34360987D01*
X51767601Y-34360987D01*
X51767601Y-33932208D01*
X48659431Y-30824038D01*
X48230652Y-30824038D01*
X45122482Y-33932208D01*
X45122482Y-34360987D01*
X44272270Y-34360987D01*
X44272270Y-33932208D01*
X41164099Y-30824038D01*
X40735321Y-30824038D01*
X37627150Y-33932208D01*
X37627150Y-34360987D01*
X36776938Y-34360987D01*
X36776938Y-33932208D01*
X33668767Y-30824038D01*
X33239989Y-30824038D01*
X30131818Y-33932208D01*
X30131818Y-34360987D01*
X29281606Y-34360987D01*
X29281606Y-33932208D01*
X26173435Y-30824038D01*
X25744657Y-30824038D01*
X22636486Y-33932208D01*
X22636486Y-34360987D01*
X21786274Y-34360987D01*
X21786274Y-33932208D01*
X18678103Y-30824038D01*
X18249325Y-30824038D01*
X15141154Y-33932208D01*
X15141154Y-34360987D01*
X12192000Y-34360987D01*
X12192000Y-31837833D01*
X12618000Y-31837833D01*
X14501659Y-33721491D01*
X14930437Y-33721491D01*
X18038608Y-30613321D01*
X18888820Y-30613321D01*
X21996991Y-33721491D01*
X22425769Y-33721491D01*
X25533940Y-30613321D01*
X26384152Y-30613321D01*
X29492323Y-33721491D01*
X29921101Y-33721491D01*
X33029272Y-30613321D01*
X33879484Y-30613321D01*
X36987655Y-33721491D01*
X37416433Y-33721491D01*
X40524604Y-30613321D01*
X41374816Y-30613321D01*
X44482987Y-33721491D01*
X44911765Y-33721491D01*
X48019936Y-30613321D01*
X48870148Y-30613321D01*
X51978318Y-33721491D01*
X52407097Y-33721491D01*
X55515267Y-30613321D01*
X56365480Y-30613321D01*
X59473650Y-33721491D01*
X59902429Y-33721491D01*
X63010599Y-30613321D01*
X63860812Y-30613321D01*
X66968982Y-33721491D01*
X67397761Y-33721491D01*
X70505931Y-30613321D01*
X71356144Y-30613321D01*
X74464314Y-33721491D01*
X74893093Y-33721491D01*
X78001263Y-30613321D01*
X78851475Y-30613321D01*
X81959646Y-33721491D01*
X82388424Y-33721491D01*
X85496595Y-30613321D01*
X86346807Y-30613321D01*
X89454978Y-33721491D01*
X89883756Y-33721491D01*
X92991927Y-30613321D01*
X93842139Y-30613321D01*
X96950310Y-33721491D01*
X97379088Y-33721491D01*
X100487259Y-30613321D01*
X101337471Y-30613321D01*
X104445642Y-33721491D01*
X104874420Y-33721491D01*
X107982591Y-30613321D01*
X108832803Y-30613321D01*
X111715000Y-33495518D01*
X111715000Y-29255542D01*
X109759318Y-29258027D01*
X108832803Y-30184542D01*
X108832803Y-30613321D01*
X107982591Y-30613321D01*
X107982591Y-30184542D01*
X107059506Y-29261457D01*
X102254450Y-29267563D01*
X101337471Y-30184542D01*
X101337471Y-30613321D01*
X100487259Y-30613321D01*
X100487259Y-30184542D01*
X99573686Y-29270969D01*
X94749582Y-29277099D01*
X93842139Y-30184542D01*
X93842139Y-30613321D01*
X92991927Y-30613321D01*
X92991927Y-30184542D01*
X92087866Y-29280481D01*
X87244714Y-29286635D01*
X86346807Y-30184542D01*
X86346807Y-30613321D01*
X85496595Y-30613321D01*
X85496595Y-30184542D01*
X84602046Y-29289993D01*
X79739846Y-29296171D01*
X78851475Y-30184542D01*
X78851475Y-30613321D01*
X78001263Y-30613321D01*
X78001263Y-30184542D01*
X77116226Y-29299505D01*
X72234979Y-29305707D01*
X71356144Y-30184542D01*
X71356144Y-30613321D01*
X70505931Y-30613321D01*
X70505931Y-30184542D01*
X69630405Y-29309016D01*
X64730111Y-29315243D01*
X63860812Y-30184542D01*
X63860812Y-30613321D01*
X63010599Y-30613321D01*
X63010599Y-30184542D01*
X62144585Y-29318528D01*
X57225243Y-29324779D01*
X56365480Y-30184542D01*
X56365480Y-30613321D01*
X55515267Y-30613321D01*
X55515267Y-30184542D01*
X54658765Y-29328040D01*
X49720375Y-29334315D01*
X48870148Y-30184542D01*
X48870148Y-30613321D01*
X48019936Y-30613321D01*
X48019936Y-30184542D01*
X47172946Y-29337552D01*
X42215507Y-29343851D01*
X41374816Y-30184542D01*
X41374816Y-30613321D01*
X40524604Y-30613321D01*
X40524604Y-30184542D01*
X39687126Y-29347064D01*
X34710639Y-29353387D01*
X33879484Y-30184542D01*
X33879484Y-30613321D01*
X33029272Y-30613321D01*
X33029272Y-30184542D01*
X32201305Y-29356575D01*
X27205771Y-29362923D01*
X26384152Y-30184542D01*
X26384152Y-30613321D01*
X25533940Y-30613321D01*
X25533940Y-30184543D01*
X24715483Y-29366087D01*
X19700903Y-29372459D01*
X18888820Y-30184542D01*
X18888820Y-30613321D01*
X18038608Y-30613321D01*
X18038608Y-30184543D01*
X17229663Y-29375599D01*
X12618000Y-29381459D01*
X12618000Y-31837833D01*
X12192000Y-31837833D01*
X12192000Y-29081840D01*
X12212002Y-29013719D01*
X12265658Y-28967226D01*
X12317840Y-28955840D01*
X112014840Y-28829160D01*
X112082986Y-28849076D01*
G37*
M02*
