%TF.GenerationSoftware,KiCad,Pcbnew,(6.0.5)*%
%TF.CreationDate,2022-06-11T16:02:27+01:00*%
%TF.ProjectId,heating-controller-esp32,68656174-696e-4672-9d63-6f6e74726f6c,rev?*%
%TF.SameCoordinates,Original*%
%TF.FileFunction,Soldermask,Top*%
%TF.FilePolarity,Negative*%
%FSLAX46Y46*%
G04 Gerber Fmt 4.6, Leading zero omitted, Abs format (unit mm)*
G04 Created by KiCad (PCBNEW (6.0.5)) date 2022-06-11 16:02:27*
%MOMM*%
%LPD*%
G01*
G04 APERTURE LIST*
G04 Aperture macros list*
%AMRoundRect*
0 Rectangle with rounded corners*
0 $1 Rounding radius*
0 $2 $3 $4 $5 $6 $7 $8 $9 X,Y pos of 4 corners*
0 Add a 4 corners polygon primitive as box body*
4,1,4,$2,$3,$4,$5,$6,$7,$8,$9,$2,$3,0*
0 Add four circle primitives for the rounded corners*
1,1,$1+$1,$2,$3*
1,1,$1+$1,$4,$5*
1,1,$1+$1,$6,$7*
1,1,$1+$1,$8,$9*
0 Add four rect primitives between the rounded corners*
20,1,$1+$1,$2,$3,$4,$5,0*
20,1,$1+$1,$4,$5,$6,$7,0*
20,1,$1+$1,$6,$7,$8,$9,0*
20,1,$1+$1,$8,$9,$2,$3,0*%
%AMFreePoly0*
4,1,22,0.500000,-0.750000,0.000000,-0.750000,0.000000,-0.745033,-0.079941,-0.743568,-0.215256,-0.701293,-0.333266,-0.622738,-0.424486,-0.514219,-0.481581,-0.384460,-0.499164,-0.250000,-0.500000,-0.250000,-0.500000,0.250000,-0.499164,0.250000,-0.499963,0.256109,-0.478152,0.396186,-0.417904,0.524511,-0.324060,0.630769,-0.204165,0.706417,-0.067858,0.745374,0.000000,0.744959,0.000000,0.750000,
0.500000,0.750000,0.500000,-0.750000,0.500000,-0.750000,$1*%
%AMFreePoly1*
4,1,20,0.000000,0.744959,0.073905,0.744508,0.209726,0.703889,0.328688,0.626782,0.421226,0.519385,0.479903,0.390333,0.500000,0.250000,0.500000,-0.250000,0.499851,-0.262216,0.476331,-0.402017,0.414519,-0.529596,0.319384,-0.634700,0.198574,-0.708877,0.061801,-0.746166,0.000000,-0.745033,0.000000,-0.750000,-0.500000,-0.750000,-0.500000,0.750000,0.000000,0.750000,0.000000,0.744959,
0.000000,0.744959,$1*%
G04 Aperture macros list end*
%ADD10C,3.200000*%
%ADD11FreePoly0,180.000000*%
%ADD12FreePoly1,180.000000*%
%ADD13C,1.950000*%
%ADD14RoundRect,0.200000X-0.200000X-0.275000X0.200000X-0.275000X0.200000X0.275000X-0.200000X0.275000X0*%
%ADD15RoundRect,0.150000X-0.587500X-0.150000X0.587500X-0.150000X0.587500X0.150000X-0.587500X0.150000X0*%
%ADD16RoundRect,0.200000X0.200000X0.275000X-0.200000X0.275000X-0.200000X-0.275000X0.200000X-0.275000X0*%
%ADD17R,2.000000X0.900000*%
%ADD18R,0.900000X2.000000*%
%ADD19R,5.000000X5.000000*%
%ADD20C,1.400000*%
%ADD21C,4.500000*%
%ADD22C,2.800000*%
%ADD23RoundRect,0.200000X-0.275000X0.200000X-0.275000X-0.200000X0.275000X-0.200000X0.275000X0.200000X0*%
%ADD24FreePoly1,0.000000*%
%ADD25FreePoly0,0.000000*%
%ADD26RoundRect,0.218750X-0.218750X-0.256250X0.218750X-0.256250X0.218750X0.256250X-0.218750X0.256250X0*%
%ADD27RoundRect,0.218750X-0.256250X0.218750X-0.256250X-0.218750X0.256250X-0.218750X0.256250X0.218750X0*%
%ADD28RoundRect,0.218750X0.218750X0.256250X-0.218750X0.256250X-0.218750X-0.256250X0.218750X-0.256250X0*%
%ADD29O,1.600000X2.000000*%
%ADD30RoundRect,0.250000X0.250000X0.475000X-0.250000X0.475000X-0.250000X-0.475000X0.250000X-0.475000X0*%
%ADD31R,2.200000X1.200000*%
%ADD32R,6.400000X5.800000*%
%ADD33R,1.600000X1.600000*%
%ADD34O,1.600000X1.600000*%
%ADD35O,1.000000X2.100000*%
%ADD36O,1.000000X1.600000*%
%ADD37R,0.600000X1.450000*%
%ADD38R,0.300000X1.450000*%
%ADD39C,0.650000*%
%ADD40RoundRect,0.200000X0.275000X-0.200000X0.275000X0.200000X-0.275000X0.200000X-0.275000X-0.200000X0*%
%ADD41RoundRect,0.225000X0.225000X0.250000X-0.225000X0.250000X-0.225000X-0.250000X0.225000X-0.250000X0*%
%ADD42C,1.217000*%
%ADD43RoundRect,0.218750X0.218750X0.381250X-0.218750X0.381250X-0.218750X-0.381250X0.218750X-0.381250X0*%
%ADD44R,0.650000X0.400000*%
%ADD45R,1.000000X0.450000*%
%ADD46R,1.200000X1.100000*%
%ADD47C,1.515000*%
%ADD48RoundRect,0.250000X0.325000X0.650000X-0.325000X0.650000X-0.325000X-0.650000X0.325000X-0.650000X0*%
%ADD49RoundRect,0.250000X0.475000X-0.250000X0.475000X0.250000X-0.475000X0.250000X-0.475000X-0.250000X0*%
%ADD50RoundRect,0.135000X-0.135000X-0.185000X0.135000X-0.185000X0.135000X0.185000X-0.135000X0.185000X0*%
%ADD51R,0.500000X0.375000*%
%ADD52R,0.650000X0.300000*%
%ADD53RoundRect,0.135000X0.135000X0.185000X-0.135000X0.185000X-0.135000X-0.185000X0.135000X-0.185000X0*%
%ADD54RoundRect,0.250000X-0.250000X-0.475000X0.250000X-0.475000X0.250000X0.475000X-0.250000X0.475000X0*%
%ADD55R,3.350000X3.350000*%
%ADD56RoundRect,0.062500X0.062500X0.337500X-0.062500X0.337500X-0.062500X-0.337500X0.062500X-0.337500X0*%
%ADD57RoundRect,0.062500X0.337500X0.062500X-0.337500X0.062500X-0.337500X-0.062500X0.337500X-0.062500X0*%
%ADD58RoundRect,0.250000X-0.475000X0.250000X-0.475000X-0.250000X0.475000X-0.250000X0.475000X0.250000X0*%
G04 APERTURE END LIST*
D10*
%TO.C,H8*%
X74295000Y-60579000D03*
%TD*%
%TO.C,H7*%
X39624000Y-117221000D03*
%TD*%
%TO.C,H6*%
X83820000Y-115951000D03*
%TD*%
%TO.C,H5*%
X39624000Y-50165000D03*
%TD*%
%TO.C,H4*%
X109601000Y-31750000D03*
%TD*%
%TO.C,H3*%
X109601000Y-171450000D03*
%TD*%
%TO.C,H2*%
X13462000Y-171450000D03*
%TD*%
%TO.C,H1*%
X13462000Y-31750000D03*
%TD*%
D11*
%TO.C,JP3*%
X76876520Y-155474520D03*
D12*
X75576520Y-155474520D03*
%TD*%
D13*
%TO.C,J9*%
X17222000Y-41275000D03*
X32462000Y-41275000D03*
X17222000Y-46355000D03*
X32462000Y-46355000D03*
X17222000Y-51435000D03*
X32462000Y-51435000D03*
%TD*%
%TO.C,J8*%
X17349000Y-128270000D03*
X32589000Y-128270000D03*
X17349000Y-133350000D03*
X32589000Y-133350000D03*
X17349000Y-138430000D03*
X32589000Y-138430000D03*
%TD*%
%TO.C,J7*%
X17222000Y-105410000D03*
X32462000Y-105410000D03*
X17222000Y-110490000D03*
X32462000Y-110490000D03*
X17222000Y-115570000D03*
X32462000Y-115570000D03*
%TD*%
%TO.C,J6*%
X17222000Y-82931000D03*
X32462000Y-82931000D03*
X17222000Y-88011000D03*
X32462000Y-88011000D03*
X17222000Y-93091000D03*
X32462000Y-93091000D03*
%TD*%
%TO.C,J5*%
X17222000Y-62611000D03*
X32462000Y-62611000D03*
X17222000Y-67691000D03*
X32462000Y-67691000D03*
X17222000Y-72771000D03*
X32462000Y-72771000D03*
%TD*%
%TO.C,J4*%
X104698000Y-69596000D03*
X89458000Y-69596000D03*
X104698000Y-64516000D03*
X89458000Y-64516000D03*
X104698000Y-59436000D03*
X89458000Y-59436000D03*
%TD*%
%TO.C,J3*%
X29972000Y-162433000D03*
X14732000Y-162433000D03*
X29972000Y-157353000D03*
X14732000Y-157353000D03*
X29972000Y-152273000D03*
X14732000Y-152273000D03*
%TD*%
D14*
%TO.C,R51*%
X23134500Y-170734000D03*
X24784500Y-170734000D03*
%TD*%
%TO.C,R50*%
X33379000Y-170734000D03*
X35029000Y-170734000D03*
%TD*%
D15*
%TO.C,D21*%
X18572000Y-170754000D03*
X18572000Y-172654000D03*
X20447000Y-171704000D03*
%TD*%
%TO.C,D20*%
X28816500Y-170754000D03*
X28816500Y-172654000D03*
X30691500Y-171704000D03*
%TD*%
D16*
%TO.C,R13*%
X54420000Y-158877000D03*
X56070000Y-158877000D03*
%TD*%
%TO.C,R33*%
X71310000Y-136525000D03*
X69660000Y-136525000D03*
%TD*%
D15*
%TO.C,D9*%
X65610500Y-135575000D03*
X65610500Y-137475000D03*
X67485500Y-136525000D03*
%TD*%
D17*
%TO.C,U1*%
X87639000Y-136652000D03*
X87639000Y-137922000D03*
X87639000Y-139192000D03*
X87639000Y-140462000D03*
X87639000Y-141732000D03*
X87639000Y-143002000D03*
X87639000Y-144272000D03*
X87639000Y-145542000D03*
X87639000Y-146812000D03*
X87639000Y-148082000D03*
X87639000Y-149352000D03*
X87639000Y-150622000D03*
X87639000Y-151892000D03*
X87639000Y-153162000D03*
D18*
X90424000Y-154162000D03*
X91694000Y-154162000D03*
X92964000Y-154162000D03*
X94234000Y-154162000D03*
X95504000Y-154162000D03*
X96774000Y-154162000D03*
X98044000Y-154162000D03*
X99314000Y-154162000D03*
X100584000Y-154162000D03*
X101854000Y-154162000D03*
D17*
X104639000Y-153162000D03*
X104639000Y-151892000D03*
X104639000Y-150622000D03*
X104639000Y-149352000D03*
X104639000Y-148082000D03*
X104639000Y-146812000D03*
X104639000Y-145542000D03*
X104639000Y-144272000D03*
X104639000Y-143002000D03*
X104639000Y-141732000D03*
X104639000Y-140462000D03*
X104639000Y-139192000D03*
X104639000Y-137922000D03*
X104639000Y-136652000D03*
D19*
X95139000Y-144152000D03*
%TD*%
D20*
%TO.C,PS1*%
X98151000Y-107197000D03*
X105751000Y-107197000D03*
X105771000Y-79197000D03*
X90571000Y-79197000D03*
D21*
X98171000Y-100697000D03*
X98171000Y-85697000D03*
%TD*%
D22*
%TO.C,TP2*%
X67691000Y-158115000D03*
%TD*%
%TO.C,TP1*%
X81915000Y-158750000D03*
%TD*%
D14*
%TO.C,R49*%
X101029000Y-50546000D03*
X102679000Y-50546000D03*
%TD*%
%TO.C,R48*%
X58369500Y-53866000D03*
X60019500Y-53866000D03*
%TD*%
D23*
%TO.C,R47*%
X55958000Y-135195000D03*
X55958000Y-136845000D03*
%TD*%
D16*
%TO.C,R46*%
X61444000Y-112131000D03*
X59794000Y-112131000D03*
%TD*%
D14*
%TO.C,R45*%
X57214000Y-93218000D03*
X58864000Y-93218000D03*
%TD*%
%TO.C,R44*%
X58063000Y-73035000D03*
X59713000Y-73035000D03*
%TD*%
%TO.C,R43*%
X77622520Y-159792520D03*
X75972520Y-159792520D03*
%TD*%
%TO.C,R42*%
X73383520Y-159462520D03*
X71733520Y-159462520D03*
%TD*%
D24*
%TO.C,JP4*%
X77485000Y-162814000D03*
D25*
X76185000Y-162814000D03*
%TD*%
D24*
%TO.C,JP1*%
X73294000Y-162814000D03*
D25*
X71994000Y-162814000D03*
%TD*%
D26*
%TO.C,D19*%
X101066500Y-52451000D03*
X102641500Y-52451000D03*
%TD*%
%TO.C,D18*%
X58447000Y-51316000D03*
X60022000Y-51316000D03*
%TD*%
D27*
%TO.C,D17*%
X53672000Y-135232500D03*
X53672000Y-136807500D03*
%TD*%
D28*
%TO.C,D16*%
X61366500Y-114681000D03*
X59791500Y-114681000D03*
%TD*%
D26*
%TO.C,D15*%
X57251500Y-90678000D03*
X58826500Y-90678000D03*
%TD*%
%TO.C,D14*%
X58140500Y-70485000D03*
X59715500Y-70485000D03*
%TD*%
D29*
%TO.C,Brd1*%
X60850000Y-143498000D03*
X58310000Y-143498000D03*
X63390000Y-143498000D03*
X65930000Y-143498000D03*
%TD*%
D30*
%TO.C,C9*%
X47691000Y-144907000D03*
X49591000Y-144907000D03*
%TD*%
D16*
%TO.C,R23*%
X54166000Y-167946000D03*
X55816000Y-167946000D03*
%TD*%
D15*
%TO.C,D5*%
X39067500Y-151958000D03*
X39067500Y-153858000D03*
X40942500Y-152908000D03*
%TD*%
%TO.C,D13*%
X61419500Y-131130000D03*
X61419500Y-133030000D03*
X63294500Y-132080000D03*
%TD*%
D14*
%TO.C,R14*%
X38672000Y-148717000D03*
X40322000Y-148717000D03*
%TD*%
D23*
%TO.C,R39*%
X82677000Y-39307000D03*
X82677000Y-40957000D03*
%TD*%
D31*
%TO.C,D4*%
X43968000Y-97160000D03*
X43968000Y-99440000D03*
X43968000Y-101720000D03*
D32*
X50268000Y-99440000D03*
%TD*%
D15*
%TO.C,D8*%
X62308500Y-87442000D03*
X62308500Y-89342000D03*
X64183500Y-88392000D03*
%TD*%
D33*
%TO.C,U9*%
X45255000Y-46100000D03*
D34*
X45255000Y-48640000D03*
X45255000Y-51180000D03*
X52875000Y-51180000D03*
X52875000Y-48640000D03*
X52875000Y-46100000D03*
%TD*%
D35*
%TO.C,J11*%
X43305000Y-167737000D03*
D36*
X43305000Y-171917000D03*
X51945000Y-171917000D03*
D35*
X51945000Y-167737000D03*
D37*
X44375000Y-166822000D03*
X45175000Y-166822000D03*
D38*
X45875000Y-166822000D03*
X46875000Y-166822000D03*
X48375000Y-166822000D03*
X49375000Y-166822000D03*
D37*
X50075000Y-166822000D03*
X50875000Y-166822000D03*
X50875000Y-166822000D03*
X50075000Y-166822000D03*
D38*
X48875000Y-166822000D03*
X47875000Y-166822000D03*
X47375000Y-166822000D03*
X46375000Y-166822000D03*
D37*
X45175000Y-166822000D03*
X44375000Y-166822000D03*
D39*
X50515000Y-168267000D03*
X44735000Y-168267000D03*
%TD*%
D40*
%TO.C,R1*%
X92863520Y-168873520D03*
X92863520Y-170523520D03*
%TD*%
D23*
%TO.C,R36*%
X40469000Y-39052000D03*
X40469000Y-40702000D03*
%TD*%
D41*
%TO.C,C10*%
X47866000Y-147447000D03*
X49416000Y-147447000D03*
%TD*%
D12*
%TO.C,JP2*%
X75576520Y-152680520D03*
D11*
X76876520Y-152680520D03*
%TD*%
D23*
%TO.C,R28*%
X55904000Y-131762000D03*
X55904000Y-133412000D03*
%TD*%
D42*
%TO.C,F2*%
X81026000Y-68443000D03*
X81026000Y-73543000D03*
%TD*%
D41*
%TO.C,C11*%
X59348000Y-165660000D03*
X60898000Y-165660000D03*
%TD*%
D40*
%TO.C,R17*%
X58293000Y-63817000D03*
X58293000Y-62167000D03*
%TD*%
D30*
%TO.C,C6*%
X78679000Y-140716000D03*
X80579000Y-140716000D03*
%TD*%
D43*
%TO.C,FB1*%
X59135500Y-163374000D03*
X61260500Y-163374000D03*
%TD*%
D16*
%TO.C,R8*%
X71845520Y-155601520D03*
X73495520Y-155601520D03*
%TD*%
D44*
%TO.C,Q1*%
X100290520Y-166889520D03*
X100290520Y-167539520D03*
X100290520Y-168189520D03*
X98390520Y-168189520D03*
X98390520Y-167539520D03*
X98390520Y-166889520D03*
%TD*%
D33*
%TO.C,U4*%
X44664000Y-65913000D03*
D34*
X44664000Y-68453000D03*
X44664000Y-70993000D03*
X52284000Y-70993000D03*
X52284000Y-68453000D03*
X52284000Y-65913000D03*
%TD*%
D14*
%TO.C,R3*%
X100111520Y-169825520D03*
X98461520Y-169825520D03*
%TD*%
%TO.C,R24*%
X53276000Y-163374000D03*
X51626000Y-163374000D03*
%TD*%
D23*
%TO.C,R29*%
X37548000Y-124396000D03*
X37548000Y-126046000D03*
%TD*%
D45*
%TO.C,J1*%
X107823000Y-159654000D03*
X107823000Y-164704000D03*
D46*
X110823000Y-160329000D03*
X110823000Y-164029000D03*
X104823000Y-160329000D03*
X104823000Y-164029000D03*
%TD*%
D45*
%TO.C,J2*%
X76353520Y-168671000D03*
X76353520Y-173721000D03*
D46*
X79353520Y-169346000D03*
X79353520Y-173046000D03*
X73353520Y-169346000D03*
X73353520Y-173046000D03*
%TD*%
D31*
%TO.C,D12*%
X87748000Y-36963000D03*
X87748000Y-39243000D03*
X87748000Y-41523000D03*
D32*
X94048000Y-39243000D03*
%TD*%
D23*
%TO.C,R15*%
X58234000Y-66231000D03*
X58234000Y-67881000D03*
%TD*%
D14*
%TO.C,R31*%
X63530000Y-71186000D03*
X65180000Y-71186000D03*
%TD*%
D23*
%TO.C,R18*%
X57354000Y-86551000D03*
X57354000Y-88201000D03*
%TD*%
D40*
%TO.C,R30*%
X55963000Y-129348000D03*
X55963000Y-127698000D03*
%TD*%
D23*
%TO.C,R19*%
X38998000Y-79185000D03*
X38998000Y-80835000D03*
%TD*%
D33*
%TO.C,U7*%
X43683000Y-106552000D03*
D34*
X43683000Y-109092000D03*
X43683000Y-111632000D03*
X51303000Y-111632000D03*
X51303000Y-109092000D03*
X51303000Y-106552000D03*
%TD*%
D47*
%TO.C,F1*%
X74041000Y-106553000D03*
X76041000Y-96393000D03*
%TD*%
D14*
%TO.C,R41*%
X61786000Y-128270000D03*
X63436000Y-128270000D03*
%TD*%
D40*
%TO.C,R5*%
X55499000Y-154103000D03*
X55499000Y-155753000D03*
%TD*%
D31*
%TO.C,D6*%
X42619000Y-122052000D03*
X42619000Y-124332000D03*
X42619000Y-126612000D03*
D32*
X48919000Y-124332000D03*
%TD*%
D23*
%TO.C,R22*%
X38897000Y-99504000D03*
X38897000Y-101154000D03*
%TD*%
D48*
%TO.C,C12*%
X58596000Y-168454000D03*
X61546000Y-168454000D03*
%TD*%
D14*
%TO.C,R26*%
X38926000Y-156464000D03*
X40576000Y-156464000D03*
%TD*%
D49*
%TO.C,C5*%
X79375000Y-142941000D03*
X79375000Y-144841000D03*
%TD*%
D40*
%TO.C,R37*%
X58884000Y-44004000D03*
X58884000Y-42354000D03*
%TD*%
D15*
%TO.C,D7*%
X63403000Y-66233000D03*
X63403000Y-68133000D03*
X65278000Y-67183000D03*
%TD*%
D14*
%TO.C,R32*%
X61981000Y-91872000D03*
X63631000Y-91872000D03*
%TD*%
D49*
%TO.C,C2*%
X82195520Y-143033520D03*
X82195520Y-144933520D03*
%TD*%
D33*
%TO.C,U10*%
X87463000Y-46355000D03*
D34*
X87463000Y-48895000D03*
X87463000Y-51435000D03*
X95083000Y-51435000D03*
X95083000Y-48895000D03*
X95083000Y-46355000D03*
%TD*%
D14*
%TO.C,R4*%
X86068520Y-168428520D03*
X84418520Y-168428520D03*
%TD*%
D23*
%TO.C,R38*%
X101033000Y-46673000D03*
X101033000Y-48323000D03*
%TD*%
%TO.C,R35*%
X58825000Y-46418000D03*
X58825000Y-48068000D03*
%TD*%
D16*
%TO.C,R25*%
X43752000Y-163120000D03*
X45402000Y-163120000D03*
%TD*%
D23*
%TO.C,R6*%
X55499000Y-152769000D03*
X55499000Y-151119000D03*
%TD*%
D30*
%TO.C,C7*%
X78679000Y-137668000D03*
X80579000Y-137668000D03*
%TD*%
D23*
%TO.C,R16*%
X39878000Y-58865000D03*
X39878000Y-60515000D03*
%TD*%
D40*
%TO.C,R40*%
X101092000Y-44259000D03*
X101092000Y-42609000D03*
%TD*%
D15*
%TO.C,D10*%
X60228000Y-118363250D03*
X60228000Y-120263250D03*
X62103000Y-119313250D03*
%TD*%
D40*
%TO.C,R11*%
X95276520Y-169000520D03*
X95276520Y-170650520D03*
%TD*%
D14*
%TO.C,R34*%
X59900500Y-122793250D03*
X61550500Y-122793250D03*
%TD*%
D50*
%TO.C,R9*%
X45593000Y-147066000D03*
X44573000Y-147066000D03*
%TD*%
D15*
%TO.C,D1*%
X38813500Y-143449000D03*
X38813500Y-145349000D03*
X40688500Y-144399000D03*
%TD*%
D51*
%TO.C,U5*%
X59475000Y-161244500D03*
D52*
X59400000Y-160707000D03*
D51*
X59475000Y-160169500D03*
X61175000Y-160169500D03*
D52*
X61250000Y-160707000D03*
D51*
X61175000Y-161244500D03*
%TD*%
D30*
%TO.C,C4*%
X59121000Y-172010000D03*
X61021000Y-172010000D03*
%TD*%
D31*
%TO.C,D11*%
X45540000Y-36708000D03*
X45540000Y-38988000D03*
X45540000Y-41268000D03*
D32*
X51840000Y-38988000D03*
%TD*%
D53*
%TO.C,R10*%
X44573000Y-145669000D03*
X45593000Y-145669000D03*
%TD*%
D33*
%TO.C,U8*%
X42334000Y-131444000D03*
D34*
X42334000Y-133984000D03*
X42334000Y-136524000D03*
X49954000Y-136524000D03*
X49954000Y-133984000D03*
X49954000Y-131444000D03*
%TD*%
D16*
%TO.C,R21*%
X58610000Y-108204000D03*
X56960000Y-108204000D03*
%TD*%
D14*
%TO.C,R2*%
X100165520Y-171476520D03*
X98515520Y-171476520D03*
%TD*%
D41*
%TO.C,C8*%
X55486000Y-163374000D03*
X57036000Y-163374000D03*
%TD*%
D33*
%TO.C,U6*%
X43784000Y-86233000D03*
D34*
X43784000Y-88773000D03*
X43784000Y-91313000D03*
X51404000Y-91313000D03*
X51404000Y-88773000D03*
X51404000Y-86233000D03*
%TD*%
D16*
%TO.C,R7*%
X71845520Y-152680520D03*
X73495520Y-152680520D03*
%TD*%
D54*
%TO.C,C1*%
X86066520Y-170714520D03*
X84166520Y-170714520D03*
%TD*%
D31*
%TO.C,D2*%
X44949000Y-56521000D03*
X44949000Y-58801000D03*
X44949000Y-61081000D03*
D32*
X51249000Y-58801000D03*
%TD*%
D40*
%TO.C,R27*%
X57312000Y-104456000D03*
X57312000Y-102806000D03*
%TD*%
%TO.C,R20*%
X57413000Y-84137000D03*
X57413000Y-82487000D03*
%TD*%
D16*
%TO.C,R12*%
X50610000Y-158750000D03*
X52260000Y-158750000D03*
%TD*%
D55*
%TO.C,U2*%
X47625000Y-153087000D03*
D56*
X49125000Y-155537000D03*
X48625000Y-155537000D03*
X48125000Y-155537000D03*
X47625000Y-155537000D03*
X47125000Y-155537000D03*
X46625000Y-155537000D03*
X46125000Y-155537000D03*
D57*
X45175000Y-154587000D03*
X45175000Y-154087000D03*
X45175000Y-153587000D03*
X45175000Y-153087000D03*
X45175000Y-152587000D03*
X45175000Y-152087000D03*
X45175000Y-151587000D03*
D56*
X46125000Y-150637000D03*
X46625000Y-150637000D03*
X47125000Y-150637000D03*
X47625000Y-150637000D03*
X48125000Y-150637000D03*
X48625000Y-150637000D03*
X49125000Y-150637000D03*
D57*
X50075000Y-151587000D03*
X50075000Y-152087000D03*
X50075000Y-152587000D03*
X50075000Y-153087000D03*
X50075000Y-153587000D03*
X50075000Y-154087000D03*
X50075000Y-154587000D03*
%TD*%
D31*
%TO.C,D3*%
X44069000Y-76841000D03*
X44069000Y-79121000D03*
X44069000Y-81401000D03*
D32*
X50369000Y-79121000D03*
%TD*%
D58*
%TO.C,C3*%
X77089000Y-144780000D03*
X77089000Y-142880000D03*
%TD*%
M02*
