M48
; DRILL file {KiCad (6.0.5)} date Sat Jun 11 17:07:29 2022
; FORMAT={-:-/ absolute / inch / decimal}
; #@! TF.CreationDate,2022-06-11T17:07:29+01:00
; #@! TF.GenerationSoftware,Kicad,Pcbnew,(6.0.5)
; #@! TF.FileFunction,Plated,1,2,PTH
FMAT,2
INCH
; #@! TA.AperFunction,Plated,PTH,ViaDrill
T1C0.0157
; #@! TA.AperFunction,Plated,PTH,ViaDrill
T2C0.0236
; #@! TA.AperFunction,Plated,PTH,ComponentDrill
T3C0.0236
; #@! TA.AperFunction,Plated,PTH,ViaDrill
T4C0.0276
; #@! TA.AperFunction,Plated,PTH,ComponentDrill
T5C0.0280
; #@! TA.AperFunction,Plated,PTH,ComponentDrill
T6C0.0315
; #@! TA.AperFunction,Plated,PTH,ComponentDrill
T7C0.0354
; #@! TA.AperFunction,Plated,PTH,ComponentDrill
T8C0.0394
; #@! TA.AperFunction,Plated,PTH,ComponentDrill
T9C0.0398
; #@! TA.AperFunction,Plated,PTH,ComponentDrill
T10C0.0512
; #@! TA.AperFunction,Plated,PTH,ComponentDrill
T11C0.0630
%
G90
G05
T1
X1.0439Y-6.6525
X1.12Y-4.8
X1.12Y-5.01
X1.43Y-3.225
X1.43Y-6.195
X1.4376Y-6.0574
X1.45Y-3.495
X1.45Y-4.045
X1.45Y-4.375
X1.45Y-6.685
X1.475Y-6.265
X1.515Y-6.805
X1.57Y-5.45
X1.595Y-5.92
X1.6267Y-2.5633
X1.632Y-6.422
X1.655Y-2.14
X1.6875Y-6.4875
X1.735Y-5.555
X1.785Y-5.175
X1.82Y-5.705
X1.985Y-6.19
X2.01Y-5.665
X2.04Y-5.32
X2.0475Y-6.0925
X2.0975Y-6.3725
X2.125Y-6.545
X2.14Y-3.72
X2.2Y-3.59
X2.2193Y-1.9707
X2.22Y-2.86
X2.235Y-6.185
X2.243Y-6.632
X2.2431Y-5.2826
X2.263Y-6.772
X2.275Y-6.255
X2.285Y-4.705
X2.288Y-6.522
X2.3274Y-5.1626
X2.3275Y-5.7675
X2.335Y-3.005
X2.3775Y-3.5425
X2.385Y-5.86
X2.387Y-2.677
X2.41Y-3.17
X2.41Y-3.365
X2.41Y-5.305
X2.4225Y-2.1875
X2.425Y-3.68
X2.4275Y-6.0525
X2.4425Y-2.7475
X2.46Y-3.875
X2.485Y-4.42
X2.545Y-3.005
X2.5475Y-6.0525
X2.5575Y-4.6925
X2.5625Y-4.8525
X2.5625Y-5.0725
X2.565Y-5.56
X2.5675Y-5.7775
X2.58Y-5.49
X2.585Y-5.16
X2.6Y-3.64
X2.6Y-6.125
X2.6Y-6.585
X2.615Y-6.63
X2.6159Y-2.9391
X2.625Y-2.39
X2.625Y-3.875
X2.625Y-4.935
X2.625Y-5.285
X2.66Y-3.7
X2.665Y-3.125
X2.68Y-1.86
X2.695Y-3.905
X2.695Y-4.915
X2.72Y-5.665
X2.7375Y-4.6675
X2.745Y-4.81
X2.7484Y-3.0716
X2.75Y-5.975
X2.75Y-6.065
X2.795Y-5.88
X2.8Y-5.075
X2.805Y-5.315
X2.85Y-5.635
X2.88Y-5.235
X2.92Y-5.13
X2.93Y-2.695
X2.935Y-6.335
X2.9575Y-5.6625
X2.965Y-5.305
X2.9725Y-5.5575
X3.006Y-6.754
X3.02Y-5.54
X3.03Y-5.42
X3.035Y-5.755
X3.04Y-5.49
X3.0434Y-3.4784
X3.0825Y-2.8475
X3.0934Y-3.4166
X3.11Y-5.315
X3.125Y-5.755
X3.1425Y-3.5775
X3.16Y-5.89
X3.16Y-6.595
X3.2034Y-3.5266
X3.236Y-5.754
X3.27Y-6.025
X3.3Y-1.91
X3.32Y-5.385
X3.335Y-6.555
X3.365Y-5.77
X3.365Y-5.935
X3.365Y-5.985
X3.365Y-6.12
X3.38Y-6.185
X3.454Y-6.721
X3.4625Y-6.2025
X3.515Y-5.565
X3.54Y-5.715
X3.555Y-5.47
X3.565Y-5.795
X3.57Y-5.99
X3.59Y-6.815
X3.67Y-6.78
X3.6875Y-5.8725
X3.7375Y-5.8175
X3.76Y-6.61
X3.765Y-6.53
X3.77Y-5.9
X3.7725Y-5.5075
X3.805Y-4.6
X3.81Y-4.69
X3.83Y-6.66
X3.905Y-5.96
X3.935Y-6.495
X3.9425Y-5.4025
X3.95Y-5.54
X3.985Y-6.435
X4.01Y-1.94
X4.015Y-5.45
X4.0225Y-5.7125
X4.05Y-5.785
X4.24Y-5.95
X4.2475Y-4.7325
X4.255Y-4.59
X4.28Y-5.435
X4.3Y-4.74
X4.3275Y-4.5925
X4.33Y-1.955
X4.35Y-5.44
X4.35Y-5.67
T2
X1.53Y-1.755
X1.55Y-1.22
X2.97Y-4.965
X3.03Y-4.77
X3.03Y-5.175
X3.22Y-4.77
X3.895Y-4.58
T4
X2.28Y-1.295
X2.45Y-1.46
X4.245Y-6.39
T5
X3.19Y-2.6946
X3.19Y-2.8954
T6
X1.6667Y-5.175
X1.6667Y-5.275
X1.6667Y-5.375
X1.7198Y-4.195
X1.7198Y-4.295
X1.7198Y-4.395
X1.7238Y-3.395
X1.7238Y-3.495
X1.7238Y-3.595
X1.7584Y-2.595
X1.7584Y-2.695
X1.7584Y-2.795
X1.7817Y-1.815
X1.7817Y-1.915
X1.7817Y-2.015
X1.9667Y-5.175
X1.9667Y-5.275
X1.9667Y-5.375
X2.0198Y-4.195
X2.0198Y-4.295
X2.0198Y-4.395
X2.0238Y-3.395
X2.0238Y-3.495
X2.0238Y-3.595
X2.0584Y-2.595
X2.0584Y-2.695
X2.0584Y-2.795
X2.0817Y-1.815
X2.0817Y-1.915
X2.0817Y-2.015
X3.4434Y-1.825
X3.4434Y-1.925
X3.4434Y-2.025
X3.7434Y-1.825
X3.7434Y-1.925
X3.7434Y-2.025
T7
X3.5658Y-3.118
X3.8642Y-4.2204
X4.1634Y-4.2204
X4.1642Y-3.118
T8
X2.2957Y-5.6495
X2.3957Y-5.6495
X2.4957Y-5.6495
X2.5957Y-5.6495
T9
X2.915Y-4.195
X2.9937Y-3.795
T10
X0.58Y-5.995
X0.58Y-6.195
X0.58Y-6.395
X0.678Y-1.625
X0.678Y-1.825
X0.678Y-2.025
X0.678Y-2.465
X0.678Y-2.665
X0.678Y-2.865
X0.678Y-3.265
X0.678Y-3.465
X0.678Y-3.665
X0.678Y-4.15
X0.678Y-4.35
X0.678Y-4.55
X0.683Y-5.05
X0.683Y-5.25
X0.683Y-5.45
X1.18Y-5.995
X1.18Y-6.195
X1.18Y-6.395
X1.278Y-1.625
X1.278Y-1.825
X1.278Y-2.025
X1.278Y-2.465
X1.278Y-2.665
X1.278Y-2.865
X1.278Y-3.265
X1.278Y-3.465
X1.278Y-3.665
X1.278Y-4.15
X1.278Y-4.35
X1.278Y-4.55
X1.283Y-5.05
X1.283Y-5.25
X1.283Y-5.45
X3.522Y-2.34
X3.522Y-2.54
X3.522Y-2.74
X4.122Y-2.34
X4.122Y-2.54
X4.122Y-2.74
T11
X2.665Y-6.225
X3.225Y-6.25
T3
G00X1.7049Y-6.5822
M15
G01X1.7049Y-6.6255
M16
G05
G00X1.7049Y-6.7566
M15
G01X1.7049Y-6.7802
M16
G05
G00X2.0451Y-6.5822
M15
G01X2.0451Y-6.6255
M16
G05
G00X2.0451Y-6.7566
M15
G01X2.0451Y-6.7802
M16
G05
T0
M30
