%TF.GenerationSoftware,KiCad,Pcbnew,(6.0.5)*%
%TF.CreationDate,2022-06-11T17:07:28+01:00*%
%TF.ProjectId,heating-controller-esp32,68656174-696e-4672-9d63-6f6e74726f6c,rev?*%
%TF.SameCoordinates,Original*%
%TF.FileFunction,Other,Comment*%
%FSLAX46Y46*%
G04 Gerber Fmt 4.6, Leading zero omitted, Abs format (unit mm)*
G04 Created by KiCad (PCBNEW (6.0.5)) date 2022-06-11 17:07:28*
%MOMM*%
%LPD*%
G01*
G04 APERTURE LIST*
%ADD10C,0.100000*%
%ADD11C,0.150000*%
G04 APERTURE END LIST*
D10*
%TO.C,U1*%
X107200904Y-130258190D02*
X106962809Y-130258190D01*
X106939000Y-130496285D01*
X106962809Y-130472476D01*
X107010428Y-130448666D01*
X107129476Y-130448666D01*
X107177095Y-130472476D01*
X107200904Y-130496285D01*
X107224714Y-130543904D01*
X107224714Y-130662952D01*
X107200904Y-130710571D01*
X107177095Y-130734380D01*
X107129476Y-130758190D01*
X107010428Y-130758190D01*
X106962809Y-130734380D01*
X106939000Y-130710571D01*
X107819952Y-130758190D02*
X107819952Y-130424857D01*
X107819952Y-130472476D02*
X107843761Y-130448666D01*
X107891380Y-130424857D01*
X107962809Y-130424857D01*
X108010428Y-130448666D01*
X108034238Y-130496285D01*
X108034238Y-130758190D01*
X108034238Y-130496285D02*
X108058047Y-130448666D01*
X108105666Y-130424857D01*
X108177095Y-130424857D01*
X108224714Y-130448666D01*
X108248523Y-130496285D01*
X108248523Y-130758190D01*
X108486619Y-130758190D02*
X108486619Y-130424857D01*
X108486619Y-130472476D02*
X108510428Y-130448666D01*
X108558047Y-130424857D01*
X108629476Y-130424857D01*
X108677095Y-130448666D01*
X108700904Y-130496285D01*
X108700904Y-130758190D01*
X108700904Y-130496285D02*
X108724714Y-130448666D01*
X108772333Y-130424857D01*
X108843761Y-130424857D01*
X108891380Y-130448666D01*
X108915190Y-130496285D01*
X108915190Y-130758190D01*
X103665190Y-126570095D02*
X103665190Y-126808190D01*
X103903285Y-126832000D01*
X103879476Y-126808190D01*
X103855666Y-126760571D01*
X103855666Y-126641523D01*
X103879476Y-126593904D01*
X103903285Y-126570095D01*
X103950904Y-126546285D01*
X104069952Y-126546285D01*
X104117571Y-126570095D01*
X104141380Y-126593904D01*
X104165190Y-126641523D01*
X104165190Y-126760571D01*
X104141380Y-126808190D01*
X104117571Y-126832000D01*
X104165190Y-125951047D02*
X103831857Y-125951047D01*
X103879476Y-125951047D02*
X103855666Y-125927238D01*
X103831857Y-125879619D01*
X103831857Y-125808190D01*
X103855666Y-125760571D01*
X103903285Y-125736761D01*
X104165190Y-125736761D01*
X103903285Y-125736761D02*
X103855666Y-125712952D01*
X103831857Y-125665333D01*
X103831857Y-125593904D01*
X103855666Y-125546285D01*
X103903285Y-125522476D01*
X104165190Y-125522476D01*
X104165190Y-125284380D02*
X103831857Y-125284380D01*
X103879476Y-125284380D02*
X103855666Y-125260571D01*
X103831857Y-125212952D01*
X103831857Y-125141523D01*
X103855666Y-125093904D01*
X103903285Y-125070095D01*
X104165190Y-125070095D01*
X103903285Y-125070095D02*
X103855666Y-125046285D01*
X103831857Y-124998666D01*
X103831857Y-124927238D01*
X103855666Y-124879619D01*
X103903285Y-124855809D01*
X104165190Y-124855809D01*
D11*
X90067571Y-126359380D02*
X90067571Y-125359380D01*
X90639000Y-126359380D02*
X90210428Y-125787952D01*
X90639000Y-125359380D02*
X90067571Y-125930809D01*
X91067571Y-125835571D02*
X91400904Y-125835571D01*
X91543761Y-126359380D02*
X91067571Y-126359380D01*
X91067571Y-125359380D01*
X91543761Y-125359380D01*
X91972333Y-125835571D02*
X92305666Y-125835571D01*
X92448523Y-126359380D02*
X91972333Y-126359380D01*
X91972333Y-125359380D01*
X92448523Y-125359380D01*
X92877095Y-126359380D02*
X92877095Y-125359380D01*
X93258047Y-125359380D01*
X93353285Y-125407000D01*
X93400904Y-125454619D01*
X93448523Y-125549857D01*
X93448523Y-125692714D01*
X93400904Y-125787952D01*
X93353285Y-125835571D01*
X93258047Y-125883190D01*
X92877095Y-125883190D01*
X93877095Y-125978428D02*
X94639000Y-125978428D01*
X95305666Y-125359380D02*
X95496142Y-125359380D01*
X95591380Y-125407000D01*
X95686619Y-125502238D01*
X95734238Y-125692714D01*
X95734238Y-126026047D01*
X95686619Y-126216523D01*
X95591380Y-126311761D01*
X95496142Y-126359380D01*
X95305666Y-126359380D01*
X95210428Y-126311761D01*
X95115190Y-126216523D01*
X95067571Y-126026047D01*
X95067571Y-125692714D01*
X95115190Y-125502238D01*
X95210428Y-125407000D01*
X95305666Y-125359380D01*
X96162809Y-125359380D02*
X96162809Y-126168904D01*
X96210428Y-126264142D01*
X96258047Y-126311761D01*
X96353285Y-126359380D01*
X96543761Y-126359380D01*
X96639000Y-126311761D01*
X96686619Y-126264142D01*
X96734238Y-126168904D01*
X96734238Y-125359380D01*
X97067571Y-125359380D02*
X97639000Y-125359380D01*
X97353285Y-126359380D02*
X97353285Y-125359380D01*
X98639000Y-125359380D02*
X99305666Y-125359380D01*
X98639000Y-126359380D01*
X99305666Y-126359380D01*
X99877095Y-125359380D02*
X100067571Y-125359380D01*
X100162809Y-125407000D01*
X100258047Y-125502238D01*
X100305666Y-125692714D01*
X100305666Y-126026047D01*
X100258047Y-126216523D01*
X100162809Y-126311761D01*
X100067571Y-126359380D01*
X99877095Y-126359380D01*
X99781857Y-126311761D01*
X99686619Y-126216523D01*
X99639000Y-126026047D01*
X99639000Y-125692714D01*
X99686619Y-125502238D01*
X99781857Y-125407000D01*
X99877095Y-125359380D01*
X100734238Y-126359380D02*
X100734238Y-125359380D01*
X101305666Y-126359380D01*
X101305666Y-125359380D01*
X101781857Y-125835571D02*
X102115190Y-125835571D01*
X102258047Y-126359380D02*
X101781857Y-126359380D01*
X101781857Y-125359380D01*
X102258047Y-125359380D01*
X93377095Y-132073666D02*
X93853285Y-132073666D01*
X93281857Y-132359380D02*
X93615190Y-131359380D01*
X93948523Y-132359380D01*
X94281857Y-131692714D02*
X94281857Y-132359380D01*
X94281857Y-131787952D02*
X94329476Y-131740333D01*
X94424714Y-131692714D01*
X94567571Y-131692714D01*
X94662809Y-131740333D01*
X94710428Y-131835571D01*
X94710428Y-132359380D01*
X95043761Y-131692714D02*
X95424714Y-131692714D01*
X95186619Y-131359380D02*
X95186619Y-132216523D01*
X95234238Y-132311761D01*
X95329476Y-132359380D01*
X95424714Y-132359380D01*
X96139000Y-132311761D02*
X96043761Y-132359380D01*
X95853285Y-132359380D01*
X95758047Y-132311761D01*
X95710428Y-132216523D01*
X95710428Y-131835571D01*
X95758047Y-131740333D01*
X95853285Y-131692714D01*
X96043761Y-131692714D01*
X96139000Y-131740333D01*
X96186619Y-131835571D01*
X96186619Y-131930809D01*
X95710428Y-132026047D01*
X96615190Y-131692714D02*
X96615190Y-132359380D01*
X96615190Y-131787952D02*
X96662809Y-131740333D01*
X96758047Y-131692714D01*
X96900904Y-131692714D01*
X96996142Y-131740333D01*
X97043761Y-131835571D01*
X97043761Y-132359380D01*
X97519952Y-131692714D02*
X97519952Y-132359380D01*
X97519952Y-131787952D02*
X97567571Y-131740333D01*
X97662809Y-131692714D01*
X97805666Y-131692714D01*
X97900904Y-131740333D01*
X97948523Y-131835571D01*
X97948523Y-132359380D01*
X98853285Y-132359380D02*
X98853285Y-131835571D01*
X98805666Y-131740333D01*
X98710428Y-131692714D01*
X98519952Y-131692714D01*
X98424714Y-131740333D01*
X98853285Y-132311761D02*
X98758047Y-132359380D01*
X98519952Y-132359380D01*
X98424714Y-132311761D01*
X98377095Y-132216523D01*
X98377095Y-132121285D01*
X98424714Y-132026047D01*
X98519952Y-131978428D01*
X98758047Y-131978428D01*
X98853285Y-131930809D01*
D10*
X84200904Y-130258190D02*
X83962809Y-130258190D01*
X83939000Y-130496285D01*
X83962809Y-130472476D01*
X84010428Y-130448666D01*
X84129476Y-130448666D01*
X84177095Y-130472476D01*
X84200904Y-130496285D01*
X84224714Y-130543904D01*
X84224714Y-130662952D01*
X84200904Y-130710571D01*
X84177095Y-130734380D01*
X84129476Y-130758190D01*
X84010428Y-130758190D01*
X83962809Y-130734380D01*
X83939000Y-130710571D01*
X84819952Y-130758190D02*
X84819952Y-130424857D01*
X84819952Y-130472476D02*
X84843761Y-130448666D01*
X84891380Y-130424857D01*
X84962809Y-130424857D01*
X85010428Y-130448666D01*
X85034238Y-130496285D01*
X85034238Y-130758190D01*
X85034238Y-130496285D02*
X85058047Y-130448666D01*
X85105666Y-130424857D01*
X85177095Y-130424857D01*
X85224714Y-130448666D01*
X85248523Y-130496285D01*
X85248523Y-130758190D01*
X85486619Y-130758190D02*
X85486619Y-130424857D01*
X85486619Y-130472476D02*
X85510428Y-130448666D01*
X85558047Y-130424857D01*
X85629476Y-130424857D01*
X85677095Y-130448666D01*
X85700904Y-130496285D01*
X85700904Y-130758190D01*
X85700904Y-130496285D02*
X85724714Y-130448666D01*
X85772333Y-130424857D01*
X85843761Y-130424857D01*
X85891380Y-130448666D01*
X85915190Y-130496285D01*
X85915190Y-130758190D01*
D11*
%TO.C,H8*%
X77095000Y-60579000D02*
G75*
G03*
X77095000Y-60579000I-2800000J0D01*
G01*
%TO.C,H7*%
X42424000Y-117221000D02*
G75*
G03*
X42424000Y-117221000I-2800000J0D01*
G01*
%TO.C,H6*%
X86620000Y-115951000D02*
G75*
G03*
X86620000Y-115951000I-2800000J0D01*
G01*
%TO.C,H5*%
X42424000Y-50165000D02*
G75*
G03*
X42424000Y-50165000I-2800000J0D01*
G01*
%TO.C,H4*%
X112401000Y-31750000D02*
G75*
G03*
X112401000Y-31750000I-2800000J0D01*
G01*
%TO.C,H3*%
X112401000Y-171450000D02*
G75*
G03*
X112401000Y-171450000I-2800000J0D01*
G01*
%TO.C,H2*%
X16262000Y-171450000D02*
G75*
G03*
X16262000Y-171450000I-2800000J0D01*
G01*
%TO.C,H1*%
X16262000Y-31750000D02*
G75*
G03*
X16262000Y-31750000I-2800000J0D01*
G01*
D10*
%TO.C,U1*%
X82339000Y-131032000D02*
X82539000Y-131232000D01*
X82339000Y-131032000D02*
X86939000Y-131032000D01*
X104539000Y-124307000D02*
X104739000Y-124507000D01*
X104539000Y-128907000D02*
X104739000Y-128707000D01*
X82339000Y-131032000D02*
X82539000Y-130832000D01*
X109939000Y-131032000D02*
X109739000Y-130832000D01*
X105339000Y-131032000D02*
X105539000Y-130832000D01*
X86939000Y-131032000D02*
X86739000Y-131232000D01*
X105339000Y-131032000D02*
X105539000Y-131232000D01*
X109939000Y-131032000D02*
X109739000Y-131232000D01*
X104539000Y-128907000D02*
X104539000Y-124307000D01*
X104539000Y-124307000D02*
X104339000Y-124507000D01*
X105339000Y-131032000D02*
X109939000Y-131032000D01*
X104539000Y-128907000D02*
X104339000Y-128707000D01*
X86939000Y-131032000D02*
X86739000Y-130832000D01*
%TD*%
M02*
