%TF.GenerationSoftware,KiCad,Pcbnew,(6.0.5)*%
%TF.CreationDate,2022-06-11T17:07:28+01:00*%
%TF.ProjectId,heating-controller-esp32,68656174-696e-4672-9d63-6f6e74726f6c,rev?*%
%TF.SameCoordinates,Original*%
%TF.FileFunction,Copper,L1,Top*%
%TF.FilePolarity,Positive*%
%FSLAX46Y46*%
G04 Gerber Fmt 4.6, Leading zero omitted, Abs format (unit mm)*
G04 Created by KiCad (PCBNEW (6.0.5)) date 2022-06-11 17:07:28*
%MOMM*%
%LPD*%
G01*
G04 APERTURE LIST*
G04 Aperture macros list*
%AMRoundRect*
0 Rectangle with rounded corners*
0 $1 Rounding radius*
0 $2 $3 $4 $5 $6 $7 $8 $9 X,Y pos of 4 corners*
0 Add a 4 corners polygon primitive as box body*
4,1,4,$2,$3,$4,$5,$6,$7,$8,$9,$2,$3,0*
0 Add four circle primitives for the rounded corners*
1,1,$1+$1,$2,$3*
1,1,$1+$1,$4,$5*
1,1,$1+$1,$6,$7*
1,1,$1+$1,$8,$9*
0 Add four rect primitives between the rounded corners*
20,1,$1+$1,$2,$3,$4,$5,0*
20,1,$1+$1,$4,$5,$6,$7,0*
20,1,$1+$1,$6,$7,$8,$9,0*
20,1,$1+$1,$8,$9,$2,$3,0*%
%AMFreePoly0*
4,1,22,0.500000,-0.750000,0.000000,-0.750000,0.000000,-0.745033,-0.079941,-0.743568,-0.215256,-0.701293,-0.333266,-0.622738,-0.424486,-0.514219,-0.481581,-0.384460,-0.499164,-0.250000,-0.500000,-0.250000,-0.500000,0.250000,-0.499164,0.250000,-0.499963,0.256109,-0.478152,0.396186,-0.417904,0.524511,-0.324060,0.630769,-0.204165,0.706417,-0.067858,0.745374,0.000000,0.744959,0.000000,0.750000,
0.500000,0.750000,0.500000,-0.750000,0.500000,-0.750000,$1*%
%AMFreePoly1*
4,1,20,0.000000,0.744959,0.073905,0.744508,0.209726,0.703889,0.328688,0.626782,0.421226,0.519385,0.479903,0.390333,0.500000,0.250000,0.500000,-0.250000,0.499851,-0.262216,0.476331,-0.402017,0.414519,-0.529596,0.319384,-0.634700,0.198574,-0.708877,0.061801,-0.746166,0.000000,-0.745033,0.000000,-0.750000,-0.500000,-0.750000,-0.500000,0.750000,0.000000,0.750000,0.000000,0.744959,
0.000000,0.744959,$1*%
G04 Aperture macros list end*
%TA.AperFunction,SMDPad,CuDef*%
%ADD10FreePoly0,180.000000*%
%TD*%
%TA.AperFunction,SMDPad,CuDef*%
%ADD11FreePoly1,180.000000*%
%TD*%
%TA.AperFunction,ComponentPad*%
%ADD12C,1.950000*%
%TD*%
%TA.AperFunction,SMDPad,CuDef*%
%ADD13RoundRect,0.200000X-0.200000X-0.275000X0.200000X-0.275000X0.200000X0.275000X-0.200000X0.275000X0*%
%TD*%
%TA.AperFunction,SMDPad,CuDef*%
%ADD14RoundRect,0.150000X-0.587500X-0.150000X0.587500X-0.150000X0.587500X0.150000X-0.587500X0.150000X0*%
%TD*%
%TA.AperFunction,SMDPad,CuDef*%
%ADD15RoundRect,0.200000X0.200000X0.275000X-0.200000X0.275000X-0.200000X-0.275000X0.200000X-0.275000X0*%
%TD*%
%TA.AperFunction,SMDPad,CuDef*%
%ADD16R,2.000000X0.900000*%
%TD*%
%TA.AperFunction,SMDPad,CuDef*%
%ADD17R,0.900000X2.000000*%
%TD*%
%TA.AperFunction,SMDPad,CuDef*%
%ADD18R,5.000000X5.000000*%
%TD*%
%TA.AperFunction,ComponentPad*%
%ADD19C,1.400000*%
%TD*%
%TA.AperFunction,ComponentPad*%
%ADD20C,2.800000*%
%TD*%
%TA.AperFunction,SMDPad,CuDef*%
%ADD21RoundRect,0.200000X-0.275000X0.200000X-0.275000X-0.200000X0.275000X-0.200000X0.275000X0.200000X0*%
%TD*%
%TA.AperFunction,SMDPad,CuDef*%
%ADD22FreePoly1,0.000000*%
%TD*%
%TA.AperFunction,SMDPad,CuDef*%
%ADD23FreePoly0,0.000000*%
%TD*%
%TA.AperFunction,SMDPad,CuDef*%
%ADD24RoundRect,0.218750X-0.218750X-0.256250X0.218750X-0.256250X0.218750X0.256250X-0.218750X0.256250X0*%
%TD*%
%TA.AperFunction,SMDPad,CuDef*%
%ADD25RoundRect,0.218750X-0.256250X0.218750X-0.256250X-0.218750X0.256250X-0.218750X0.256250X0.218750X0*%
%TD*%
%TA.AperFunction,SMDPad,CuDef*%
%ADD26RoundRect,0.218750X0.218750X0.256250X-0.218750X0.256250X-0.218750X-0.256250X0.218750X-0.256250X0*%
%TD*%
%TA.AperFunction,ComponentPad*%
%ADD27O,1.600000X2.000000*%
%TD*%
%TA.AperFunction,SMDPad,CuDef*%
%ADD28RoundRect,0.250000X0.250000X0.475000X-0.250000X0.475000X-0.250000X-0.475000X0.250000X-0.475000X0*%
%TD*%
%TA.AperFunction,SMDPad,CuDef*%
%ADD29R,2.200000X1.200000*%
%TD*%
%TA.AperFunction,SMDPad,CuDef*%
%ADD30R,6.400000X5.800000*%
%TD*%
%TA.AperFunction,ComponentPad*%
%ADD31R,1.600000X1.600000*%
%TD*%
%TA.AperFunction,ComponentPad*%
%ADD32O,1.600000X1.600000*%
%TD*%
%TA.AperFunction,ComponentPad*%
%ADD33O,1.000000X2.100000*%
%TD*%
%TA.AperFunction,ComponentPad*%
%ADD34O,1.000000X1.600000*%
%TD*%
%TA.AperFunction,SMDPad,CuDef*%
%ADD35R,0.600000X1.450000*%
%TD*%
%TA.AperFunction,SMDPad,CuDef*%
%ADD36R,0.300000X1.450000*%
%TD*%
%TA.AperFunction,SMDPad,CuDef*%
%ADD37RoundRect,0.200000X0.275000X-0.200000X0.275000X0.200000X-0.275000X0.200000X-0.275000X-0.200000X0*%
%TD*%
%TA.AperFunction,SMDPad,CuDef*%
%ADD38RoundRect,0.225000X0.225000X0.250000X-0.225000X0.250000X-0.225000X-0.250000X0.225000X-0.250000X0*%
%TD*%
%TA.AperFunction,ComponentPad*%
%ADD39C,1.217000*%
%TD*%
%TA.AperFunction,SMDPad,CuDef*%
%ADD40RoundRect,0.218750X0.218750X0.381250X-0.218750X0.381250X-0.218750X-0.381250X0.218750X-0.381250X0*%
%TD*%
%TA.AperFunction,SMDPad,CuDef*%
%ADD41R,0.650000X0.400000*%
%TD*%
%TA.AperFunction,SMDPad,CuDef*%
%ADD42R,1.000000X0.450000*%
%TD*%
%TA.AperFunction,SMDPad,CuDef*%
%ADD43R,1.200000X1.100000*%
%TD*%
%TA.AperFunction,ComponentPad*%
%ADD44C,1.515000*%
%TD*%
%TA.AperFunction,SMDPad,CuDef*%
%ADD45RoundRect,0.250000X0.325000X0.650000X-0.325000X0.650000X-0.325000X-0.650000X0.325000X-0.650000X0*%
%TD*%
%TA.AperFunction,SMDPad,CuDef*%
%ADD46RoundRect,0.250000X0.475000X-0.250000X0.475000X0.250000X-0.475000X0.250000X-0.475000X-0.250000X0*%
%TD*%
%TA.AperFunction,SMDPad,CuDef*%
%ADD47RoundRect,0.135000X-0.135000X-0.185000X0.135000X-0.185000X0.135000X0.185000X-0.135000X0.185000X0*%
%TD*%
%TA.AperFunction,SMDPad,CuDef*%
%ADD48R,0.500000X0.375000*%
%TD*%
%TA.AperFunction,SMDPad,CuDef*%
%ADD49R,0.650000X0.300000*%
%TD*%
%TA.AperFunction,SMDPad,CuDef*%
%ADD50RoundRect,0.135000X0.135000X0.185000X-0.135000X0.185000X-0.135000X-0.185000X0.135000X-0.185000X0*%
%TD*%
%TA.AperFunction,SMDPad,CuDef*%
%ADD51RoundRect,0.250000X-0.250000X-0.475000X0.250000X-0.475000X0.250000X0.475000X-0.250000X0.475000X0*%
%TD*%
%TA.AperFunction,SMDPad,CuDef*%
%ADD52R,3.350000X3.350000*%
%TD*%
%TA.AperFunction,SMDPad,CuDef*%
%ADD53RoundRect,0.062500X0.062500X0.337500X-0.062500X0.337500X-0.062500X-0.337500X0.062500X-0.337500X0*%
%TD*%
%TA.AperFunction,SMDPad,CuDef*%
%ADD54RoundRect,0.062500X0.337500X0.062500X-0.337500X0.062500X-0.337500X-0.062500X0.337500X-0.062500X0*%
%TD*%
%TA.AperFunction,SMDPad,CuDef*%
%ADD55RoundRect,0.250000X-0.475000X0.250000X-0.475000X-0.250000X0.475000X-0.250000X0.475000X0.250000X0*%
%TD*%
%TA.AperFunction,ViaPad*%
%ADD56C,1.000000*%
%TD*%
%TA.AperFunction,ViaPad*%
%ADD57C,0.800000*%
%TD*%
%TA.AperFunction,Conductor*%
%ADD58C,0.250000*%
%TD*%
%TA.AperFunction,Conductor*%
%ADD59C,1.000000*%
%TD*%
%TA.AperFunction,Conductor*%
%ADD60C,0.200000*%
%TD*%
G04 APERTURE END LIST*
%TO.C,JP3*%
G36*
X76476520Y-155774520D02*
G01*
X75976520Y-155774520D01*
X75976520Y-155174520D01*
X76476520Y-155174520D01*
X76476520Y-155774520D01*
G37*
%TO.C,JP4*%
G36*
X77085000Y-163114000D02*
G01*
X76585000Y-163114000D01*
X76585000Y-162514000D01*
X77085000Y-162514000D01*
X77085000Y-163114000D01*
G37*
%TO.C,JP1*%
G36*
X72894000Y-163114000D02*
G01*
X72394000Y-163114000D01*
X72394000Y-162514000D01*
X72894000Y-162514000D01*
X72894000Y-163114000D01*
G37*
%TD*%
D10*
%TO.P,JP3,1,A*%
%TO.N,/ESP32/IO35*%
X76876520Y-155474520D03*
D11*
%TO.P,JP3,2,B*%
%TO.N,Net-(JP3-Pad2)*%
X75576520Y-155474520D03*
%TD*%
D12*
%TO.P,J9,1,1*%
%TO.N,/Boiler Out/Switched*%
X17222000Y-41275000D03*
%TO.P,J9,2,2*%
%TO.N,/Pump Out/Switched*%
X32462000Y-41275000D03*
%TO.P,J9,3,3*%
%TO.N,NEUT*%
X17222000Y-46355000D03*
%TO.P,J9,4,4*%
X32462000Y-46355000D03*
%TO.P,J9,5,5*%
%TO.N,Earth*%
X17222000Y-51435000D03*
%TO.P,J9,6,6*%
X32462000Y-51435000D03*
%TD*%
%TO.P,J8,1,1*%
%TO.N,/Valve Out 4/Switched*%
X17349000Y-128270000D03*
%TO.P,J8,2,2*%
%TO.N,unconnected-(J8-Pad2)*%
X32589000Y-128270000D03*
%TO.P,J8,3,3*%
%TO.N,NEUT*%
X17349000Y-133350000D03*
%TO.P,J8,4,4*%
%TO.N,/Valve_Microswitch_4*%
X32589000Y-133350000D03*
%TO.P,J8,5,5*%
%TO.N,Earth*%
X17349000Y-138430000D03*
%TO.P,J8,6,6*%
%TO.N,GND*%
X32589000Y-138430000D03*
%TD*%
%TO.P,J7,1,1*%
%TO.N,/Valve Out 3/Switched*%
X17222000Y-105410000D03*
%TO.P,J7,2,2*%
%TO.N,unconnected-(J7-Pad2)*%
X32462000Y-105410000D03*
%TO.P,J7,3,3*%
%TO.N,NEUT*%
X17222000Y-110490000D03*
%TO.P,J7,4,4*%
%TO.N,/Valve_Microswitch_3*%
X32462000Y-110490000D03*
%TO.P,J7,5,5*%
%TO.N,Earth*%
X17222000Y-115570000D03*
%TO.P,J7,6,6*%
%TO.N,GND*%
X32462000Y-115570000D03*
%TD*%
%TO.P,J6,1,1*%
%TO.N,/Valve Out 2/Switched*%
X17222000Y-82931000D03*
%TO.P,J6,2,2*%
%TO.N,unconnected-(J6-Pad2)*%
X32462000Y-82931000D03*
%TO.P,J6,3,3*%
%TO.N,NEUT*%
X17222000Y-88011000D03*
%TO.P,J6,4,4*%
%TO.N,/Valve_Microswitch_2*%
X32462000Y-88011000D03*
%TO.P,J6,5,5*%
%TO.N,Earth*%
X17222000Y-93091000D03*
%TO.P,J6,6,6*%
%TO.N,GND*%
X32462000Y-93091000D03*
%TD*%
%TO.P,J5,1,1*%
%TO.N,/Valve Out 1/Switched*%
X17222000Y-62611000D03*
%TO.P,J5,2,2*%
%TO.N,unconnected-(J5-Pad2)*%
X32462000Y-62611000D03*
%TO.P,J5,3,3*%
%TO.N,NEUT*%
X17222000Y-67691000D03*
%TO.P,J5,4,4*%
%TO.N,/Valve_Microswitch_1*%
X32462000Y-67691000D03*
%TO.P,J5,5,5*%
%TO.N,Earth*%
X17222000Y-72771000D03*
%TO.P,J5,6,6*%
%TO.N,GND*%
X32462000Y-72771000D03*
%TD*%
%TO.P,J4,1,1*%
%TO.N,NEUT*%
X104698000Y-69596000D03*
%TO.P,J4,2,2*%
%TO.N,Net-(F1-Pad1)*%
X89458000Y-69596000D03*
%TO.P,J4,3,3*%
%TO.N,Earth*%
X104698000Y-64516000D03*
%TO.P,J4,4,4*%
%TO.N,unconnected-(J4-Pad4)*%
X89458000Y-64516000D03*
%TO.P,J4,5,5*%
%TO.N,unconnected-(J4-Pad5)*%
X104698000Y-59436000D03*
%TO.P,J4,6,6*%
%TO.N,unconnected-(J4-Pad6)*%
X89458000Y-59436000D03*
%TD*%
%TO.P,J3,1,1*%
%TO.N,GND*%
X29972000Y-162433000D03*
%TO.P,J3,2,2*%
%TO.N,/DHW_Thermostat*%
X14732000Y-162433000D03*
%TO.P,J3,3,3*%
%TO.N,/Spare_Thermostat_3*%
X29972000Y-157353000D03*
%TO.P,J3,4,4*%
%TO.N,/Spare_Thermostat*%
X14732000Y-157353000D03*
%TO.P,J3,5,5*%
%TO.N,/Spare_Thermostat_4*%
X29972000Y-152273000D03*
%TO.P,J3,6,6*%
%TO.N,/Spare_Thermostat_2*%
X14732000Y-152273000D03*
%TD*%
D13*
%TO.P,R51,1*%
%TO.N,/Spare_Thermostat_3*%
X23134500Y-170734000D03*
%TO.P,R51,2*%
%TO.N,/ESP32/IO34*%
X24784500Y-170734000D03*
%TD*%
%TO.P,R50,1*%
%TO.N,/Spare_Thermostat_4*%
X33379000Y-170734000D03*
%TO.P,R50,2*%
%TO.N,/ESP32/IO35*%
X35029000Y-170734000D03*
%TD*%
D14*
%TO.P,D21,1*%
%TO.N,GND*%
X18572000Y-170754000D03*
%TO.P,D21,2*%
%TO.N,+3V3*%
X18572000Y-172654000D03*
%TO.P,D21,3*%
%TO.N,/ESP32/IO34*%
X20447000Y-171704000D03*
%TD*%
%TO.P,D20,1*%
%TO.N,GND*%
X28816500Y-170754000D03*
%TO.P,D20,2*%
%TO.N,+3V3*%
X28816500Y-172654000D03*
%TO.P,D20,3*%
%TO.N,/ESP32/IO35*%
X30691500Y-171704000D03*
%TD*%
D15*
%TO.P,R13,2*%
%TO.N,Net-(R13-Pad2)*%
X54420000Y-158877000D03*
%TO.P,R13,1*%
%TO.N,/ESP32/ESP_TXD*%
X56070000Y-158877000D03*
%TD*%
%TO.P,R33,1*%
%TO.N,/Spare_Thermostat_2*%
X71310000Y-136525000D03*
%TO.P,R33,2*%
%TO.N,/ESP32/IO19*%
X69660000Y-136525000D03*
%TD*%
D14*
%TO.P,D9,1*%
%TO.N,GND*%
X65610500Y-135575000D03*
%TO.P,D9,2*%
%TO.N,+3V3*%
X65610500Y-137475000D03*
%TO.P,D9,3*%
%TO.N,/ESP32/IO19*%
X67485500Y-136525000D03*
%TD*%
D16*
%TO.P,U1,1,GND*%
%TO.N,GND*%
X87639000Y-136652000D03*
%TO.P,U1,2,VDD*%
%TO.N,+3V3*%
X87639000Y-137922000D03*
%TO.P,U1,3,EN*%
%TO.N,/ESP32/EN*%
X87639000Y-139192000D03*
%TO.P,U1,4,SENSOR_VP*%
%TO.N,unconnected-(U1-Pad4)*%
X87639000Y-140462000D03*
%TO.P,U1,5,SENSOR_VN*%
%TO.N,unconnected-(U1-Pad5)*%
X87639000Y-141732000D03*
%TO.P,U1,6,IO34*%
%TO.N,/ESP32/IO34*%
X87639000Y-143002000D03*
%TO.P,U1,7,IO35*%
%TO.N,/ESP32/IO35*%
X87639000Y-144272000D03*
%TO.P,U1,8,IO32*%
%TO.N,/ESP32/IO32*%
X87639000Y-145542000D03*
%TO.P,U1,9,IO33*%
%TO.N,/ESP32/IO33*%
X87639000Y-146812000D03*
%TO.P,U1,10,IO25*%
%TO.N,/ESP32/IO25*%
X87639000Y-148082000D03*
%TO.P,U1,11,IO26*%
%TO.N,/ESP32/IO26*%
X87639000Y-149352000D03*
%TO.P,U1,12,IO27*%
%TO.N,/ESP32/IO27*%
X87639000Y-150622000D03*
%TO.P,U1,13,IO14*%
%TO.N,/ESP32/IO14*%
X87639000Y-151892000D03*
%TO.P,U1,14,IO12*%
%TO.N,/ESP32/IO12*%
X87639000Y-153162000D03*
D17*
%TO.P,U1,15,GND*%
%TO.N,GND*%
X90424000Y-154162000D03*
%TO.P,U1,16,IO13*%
%TO.N,/ESP32/IO13*%
X91694000Y-154162000D03*
%TO.P,U1,17,SHD/SD2*%
%TO.N,unconnected-(U1-Pad17)*%
X92964000Y-154162000D03*
%TO.P,U1,18,SWP/SD3*%
%TO.N,unconnected-(U1-Pad18)*%
X94234000Y-154162000D03*
%TO.P,U1,19,SCS/CMD*%
%TO.N,unconnected-(U1-Pad19)*%
X95504000Y-154162000D03*
%TO.P,U1,20,SCK/CLK*%
%TO.N,unconnected-(U1-Pad20)*%
X96774000Y-154162000D03*
%TO.P,U1,21,SDO/SD0*%
%TO.N,unconnected-(U1-Pad21)*%
X98044000Y-154162000D03*
%TO.P,U1,22,SDI/SD1*%
%TO.N,unconnected-(U1-Pad22)*%
X99314000Y-154162000D03*
%TO.P,U1,23,IO15*%
%TO.N,/ESP32/IO15*%
X100584000Y-154162000D03*
%TO.P,U1,24,IO2*%
%TO.N,/ESP32/IO2*%
X101854000Y-154162000D03*
D16*
%TO.P,U1,25,IO0*%
%TO.N,/ESP32/GPIO_0*%
X104639000Y-153162000D03*
%TO.P,U1,26,IO4*%
%TO.N,/ESP32/CRX*%
X104639000Y-151892000D03*
%TO.P,U1,27,IO16*%
%TO.N,/Boiler Out/Trigger*%
X104639000Y-150622000D03*
%TO.P,U1,28,IO17*%
%TO.N,/ESP32/IO17*%
X104639000Y-149352000D03*
%TO.P,U1,29,IO5*%
%TO.N,/ESP32/CTX*%
X104639000Y-148082000D03*
%TO.P,U1,30,IO18*%
%TO.N,/ESP32/IO18*%
X104639000Y-146812000D03*
%TO.P,U1,31,IO19*%
%TO.N,/ESP32/IO19*%
X104639000Y-145542000D03*
%TO.P,U1,32,NC*%
%TO.N,unconnected-(U1-Pad32)*%
X104639000Y-144272000D03*
%TO.P,U1,33,IO21*%
%TO.N,/ESP32/IO21*%
X104639000Y-143002000D03*
%TO.P,U1,34,RXD0/IO3*%
%TO.N,/ESP32/ESP_RXD*%
X104639000Y-141732000D03*
%TO.P,U1,35,TXD0/IO1*%
%TO.N,/ESP32/ESP_TXD*%
X104639000Y-140462000D03*
%TO.P,U1,36,IO22*%
%TO.N,/ESP32/IO22*%
X104639000Y-139192000D03*
%TO.P,U1,37,IO23*%
%TO.N,/ESP32/IO23*%
X104639000Y-137922000D03*
%TO.P,U1,38,GND*%
%TO.N,GND*%
X104639000Y-136652000D03*
D18*
%TO.P,U1,39,GND*%
X95139000Y-144152000D03*
%TD*%
D19*
%TO.P,PS1,1,+V*%
%TO.N,+3V3*%
X98151000Y-107197000D03*
%TO.P,PS1,2,-V*%
%TO.N,GND*%
X105751000Y-107197000D03*
%TO.P,PS1,3,AC/N*%
%TO.N,NEUT*%
X105771000Y-79197000D03*
%TO.P,PS1,4,AC/L*%
%TO.N,Net-(F2-Pad2)*%
X90571000Y-79197000D03*
%TD*%
D20*
%TO.P,TP2,1,1*%
%TO.N,/ESP32/IO32*%
X67691000Y-158115000D03*
%TD*%
%TO.P,TP1,1,1*%
%TO.N,/ESP32/IO33*%
X81915000Y-158750000D03*
%TD*%
D13*
%TO.P,R49,1*%
%TO.N,/ESP32/IO17*%
X101029000Y-50546000D03*
%TO.P,R49,2*%
%TO.N,Net-(D19-Pad2)*%
X102679000Y-50546000D03*
%TD*%
%TO.P,R48,1*%
%TO.N,/Boiler Out/Trigger*%
X58369500Y-53866000D03*
%TO.P,R48,2*%
%TO.N,Net-(D18-Pad2)*%
X60019500Y-53866000D03*
%TD*%
D21*
%TO.P,R47,1*%
%TO.N,/ESP32/IO15*%
X55958000Y-135195000D03*
%TO.P,R47,2*%
%TO.N,Net-(D17-Pad2)*%
X55958000Y-136845000D03*
%TD*%
D15*
%TO.P,R46,1*%
%TO.N,/ESP32/IO14*%
X61444000Y-112131000D03*
%TO.P,R46,2*%
%TO.N,Net-(D16-Pad2)*%
X59794000Y-112131000D03*
%TD*%
D13*
%TO.P,R45,1*%
%TO.N,/ESP32/IO13*%
X57214000Y-93218000D03*
%TO.P,R45,2*%
%TO.N,Net-(D15-Pad2)*%
X58864000Y-93218000D03*
%TD*%
%TO.P,R44,1*%
%TO.N,/ESP32/IO12*%
X58063000Y-73035000D03*
%TO.P,R44,2*%
%TO.N,Net-(D14-Pad2)*%
X59713000Y-73035000D03*
%TD*%
%TO.P,R43,2*%
%TO.N,+3V3*%
X77622520Y-159792520D03*
%TO.P,R43,1*%
%TO.N,Net-(JP4-Pad1)*%
X75972520Y-159792520D03*
%TD*%
%TO.P,R42,2*%
%TO.N,+3V3*%
X73383520Y-159462520D03*
%TO.P,R42,1*%
%TO.N,Net-(JP1-Pad1)*%
X71733520Y-159462520D03*
%TD*%
D22*
%TO.P,JP4,2,B*%
%TO.N,/ESP32/IO33*%
X77485000Y-162814000D03*
D23*
%TO.P,JP4,1,A*%
%TO.N,Net-(JP4-Pad1)*%
X76185000Y-162814000D03*
%TD*%
D22*
%TO.P,JP1,2,B*%
%TO.N,/ESP32/IO32*%
X73294000Y-162814000D03*
D23*
%TO.P,JP1,1,A*%
%TO.N,Net-(JP1-Pad1)*%
X71994000Y-162814000D03*
%TD*%
D24*
%TO.P,D19,1,K*%
%TO.N,GND*%
X101066500Y-52451000D03*
%TO.P,D19,2,A*%
%TO.N,Net-(D19-Pad2)*%
X102641500Y-52451000D03*
%TD*%
%TO.P,D18,1,K*%
%TO.N,GND*%
X58447000Y-51316000D03*
%TO.P,D18,2,A*%
%TO.N,Net-(D18-Pad2)*%
X60022000Y-51316000D03*
%TD*%
D25*
%TO.P,D17,1,K*%
%TO.N,GND*%
X53672000Y-135232500D03*
%TO.P,D17,2,A*%
%TO.N,Net-(D17-Pad2)*%
X53672000Y-136807500D03*
%TD*%
D26*
%TO.P,D16,1,K*%
%TO.N,GND*%
X61366500Y-114681000D03*
%TO.P,D16,2,A*%
%TO.N,Net-(D16-Pad2)*%
X59791500Y-114681000D03*
%TD*%
D24*
%TO.P,D15,1,K*%
%TO.N,GND*%
X57251500Y-90678000D03*
%TO.P,D15,2,A*%
%TO.N,Net-(D15-Pad2)*%
X58826500Y-90678000D03*
%TD*%
%TO.P,D14,1,K*%
%TO.N,GND*%
X58140500Y-70485000D03*
%TO.P,D14,2,A*%
%TO.N,Net-(D14-Pad2)*%
X59715500Y-70485000D03*
%TD*%
D27*
%TO.P,Brd1,2,VCC*%
%TO.N,+3V3*%
X60850000Y-143498000D03*
%TO.P,Brd1,1,GND*%
%TO.N,GND*%
X58310000Y-143498000D03*
%TO.P,Brd1,3,SCL*%
%TO.N,/ESP32/IO33*%
X63390000Y-143498000D03*
%TO.P,Brd1,4,SDA*%
%TO.N,/ESP32/IO32*%
X65930000Y-143498000D03*
%TD*%
D28*
%TO.P,C9,2*%
%TO.N,GND*%
X47691000Y-144907000D03*
%TO.P,C9,1*%
%TO.N,+3V3*%
X49591000Y-144907000D03*
%TD*%
D15*
%TO.P,R23,2*%
%TO.N,Net-(J11-PadS1)*%
X54166000Y-167946000D03*
%TO.P,R23,1*%
%TO.N,GND*%
X55816000Y-167946000D03*
%TD*%
D14*
%TO.P,D5,1*%
%TO.N,GND*%
X39067500Y-151958000D03*
%TO.P,D5,2*%
%TO.N,+3V3*%
X39067500Y-153858000D03*
%TO.P,D5,3*%
%TO.N,/ESP32/IO21*%
X40942500Y-152908000D03*
%TD*%
%TO.P,D13,1*%
%TO.N,GND*%
X61419500Y-131130000D03*
%TO.P,D13,2*%
%TO.N,+3V3*%
X61419500Y-133030000D03*
%TO.P,D13,3*%
%TO.N,/ESP32/IO27*%
X63294500Y-132080000D03*
%TD*%
D13*
%TO.P,R14,1*%
%TO.N,/Spare_Thermostat*%
X38672000Y-148717000D03*
%TO.P,R14,2*%
%TO.N,/ESP32/IO18*%
X40322000Y-148717000D03*
%TD*%
D21*
%TO.P,R39,1*%
%TO.N,/Pump Out/Switched*%
X82677000Y-39307000D03*
%TO.P,R39,2*%
%TO.N,Net-(D12-Pad3)*%
X82677000Y-40957000D03*
%TD*%
D29*
%TO.P,D4,1,A1*%
%TO.N,/Valve Out 3/Switched*%
X43968000Y-97160000D03*
%TO.P,D4,2*%
%TO.N,N/C*%
X43968000Y-99440000D03*
%TO.P,D4,3,G*%
%TO.N,Net-(D4-Pad3)*%
X43968000Y-101720000D03*
D30*
%TO.P,D4,4,A2*%
%TO.N,LINE*%
X50268000Y-99440000D03*
%TD*%
D14*
%TO.P,D8,1*%
%TO.N,GND*%
X62308500Y-87442000D03*
%TO.P,D8,2*%
%TO.N,+3V3*%
X62308500Y-89342000D03*
%TO.P,D8,3*%
%TO.N,/ESP32/IO23*%
X64183500Y-88392000D03*
%TD*%
D31*
%TO.P,U9,1*%
%TO.N,Net-(R35-Pad2)*%
X45255000Y-46100000D03*
D32*
%TO.P,U9,2*%
%TO.N,GND*%
X45255000Y-48640000D03*
%TO.P,U9,3,NC*%
%TO.N,unconnected-(U9-Pad3)*%
X45255000Y-51180000D03*
%TO.P,U9,4*%
%TO.N,Net-(D11-Pad3)*%
X52875000Y-51180000D03*
%TO.P,U9,5,NC*%
%TO.N,unconnected-(U9-Pad5)*%
X52875000Y-48640000D03*
%TO.P,U9,6*%
%TO.N,Net-(R37-Pad1)*%
X52875000Y-46100000D03*
%TD*%
D33*
%TO.P,J11,S1,SHIELD*%
%TO.N,Net-(J11-PadS1)*%
X43305000Y-167737000D03*
D34*
X43305000Y-171917000D03*
X51945000Y-171917000D03*
D33*
X51945000Y-167737000D03*
D35*
%TO.P,J11,B12,GND*%
%TO.N,GND*%
X44375000Y-166822000D03*
%TO.P,J11,B9,VBUS*%
%TO.N,Net-(C8-Pad1)*%
X45175000Y-166822000D03*
D36*
%TO.P,J11,B8,SBU2*%
%TO.N,unconnected-(J11-PadB8)*%
X45875000Y-166822000D03*
%TO.P,J11,B7,D-*%
%TO.N,/ESP32/sheet61EA3917/USB_D-*%
X46875000Y-166822000D03*
%TO.P,J11,B6,D+*%
%TO.N,/ESP32/sheet61EA3917/USB_D+*%
X48375000Y-166822000D03*
%TO.P,J11,B5,CC2*%
%TO.N,Net-(J11-PadB5)*%
X49375000Y-166822000D03*
D35*
%TO.P,J11,B4,VBUS*%
%TO.N,Net-(C8-Pad1)*%
X50075000Y-166822000D03*
%TO.P,J11,B1,GND*%
%TO.N,GND*%
X50875000Y-166822000D03*
%TO.P,J11,A12,GND*%
X50875000Y-166822000D03*
%TO.P,J11,A9,VBUS*%
%TO.N,Net-(C8-Pad1)*%
X50075000Y-166822000D03*
D36*
%TO.P,J11,A8,SBU1*%
%TO.N,unconnected-(J11-PadA8)*%
X48875000Y-166822000D03*
%TO.P,J11,A7,D-*%
%TO.N,/ESP32/sheet61EA3917/USB_D-*%
X47875000Y-166822000D03*
%TO.P,J11,A6,D+*%
%TO.N,/ESP32/sheet61EA3917/USB_D+*%
X47375000Y-166822000D03*
%TO.P,J11,A5,CC1*%
%TO.N,Net-(J11-PadA5)*%
X46375000Y-166822000D03*
D35*
%TO.P,J11,A4,VBUS*%
%TO.N,Net-(C8-Pad1)*%
X45175000Y-166822000D03*
%TO.P,J11,A1,GND*%
%TO.N,GND*%
X44375000Y-166822000D03*
%TD*%
D37*
%TO.P,R1,2*%
%TO.N,/ESP32/~{RESET}*%
X92863520Y-168873520D03*
%TO.P,R1,1*%
%TO.N,+3V3*%
X92863520Y-170523520D03*
%TD*%
D21*
%TO.P,R36,1*%
%TO.N,/Boiler Out/Switched*%
X40469000Y-39052000D03*
%TO.P,R36,2*%
%TO.N,Net-(D11-Pad3)*%
X40469000Y-40702000D03*
%TD*%
D38*
%TO.P,C10,2*%
%TO.N,GND*%
X47866000Y-147447000D03*
%TO.P,C10,1*%
%TO.N,+3V3*%
X49416000Y-147447000D03*
%TD*%
D11*
%TO.P,JP2,2,B*%
%TO.N,Net-(JP2-Pad2)*%
X75576520Y-152680520D03*
D10*
%TO.P,JP2,1,A*%
%TO.N,/ESP32/IO34*%
X76876520Y-152680520D03*
%TD*%
D21*
%TO.P,R28,1*%
%TO.N,/ESP32/IO15*%
X55904000Y-131762000D03*
%TO.P,R28,2*%
%TO.N,Net-(R28-Pad2)*%
X55904000Y-133412000D03*
%TD*%
D39*
%TO.P,F2,1*%
%TO.N,Net-(F1-Pad1)*%
X81026000Y-68443000D03*
%TO.P,F2,2*%
%TO.N,Net-(F2-Pad2)*%
X81026000Y-73543000D03*
%TD*%
D38*
%TO.P,C11,2*%
%TO.N,GND*%
X59348000Y-165660000D03*
%TO.P,C11,1*%
%TO.N,/ESP32/sheet61EA3917/VBUS*%
X60898000Y-165660000D03*
%TD*%
D37*
%TO.P,R17,1*%
%TO.N,Net-(R17-Pad1)*%
X58293000Y-63817000D03*
%TO.P,R17,2*%
%TO.N,LINE*%
X58293000Y-62167000D03*
%TD*%
D28*
%TO.P,C6,2*%
%TO.N,GND*%
X78679000Y-140716000D03*
%TO.P,C6,1*%
%TO.N,+3V3*%
X80579000Y-140716000D03*
%TD*%
D40*
%TO.P,FB1,2*%
%TO.N,Net-(C8-Pad1)*%
X59135500Y-163374000D03*
%TO.P,FB1,1*%
%TO.N,/ESP32/sheet61EA3917/VBUS*%
X61260500Y-163374000D03*
%TD*%
D15*
%TO.P,R8,2*%
%TO.N,+3V3*%
X71845520Y-155601520D03*
%TO.P,R8,1*%
%TO.N,Net-(JP3-Pad2)*%
X73495520Y-155601520D03*
%TD*%
D41*
%TO.P,Q1,6,C1*%
%TO.N,/ESP32/RTS*%
X100290520Y-166889520D03*
%TO.P,Q1,5,B2*%
%TO.N,Net-(Q1-Pad5)*%
X100290520Y-167539520D03*
%TO.P,Q1,4,E2*%
%TO.N,/ESP32/DTR*%
X100290520Y-168189520D03*
%TO.P,Q1,3,C2*%
%TO.N,/ESP32/GPIO_0*%
X98390520Y-168189520D03*
%TO.P,Q1,2,B1*%
%TO.N,Net-(Q1-Pad2)*%
X98390520Y-167539520D03*
%TO.P,Q1,1,E1*%
%TO.N,/ESP32/~{RESET}*%
X98390520Y-166889520D03*
%TD*%
D31*
%TO.P,U4,1*%
%TO.N,Net-(R15-Pad2)*%
X44664000Y-65913000D03*
D32*
%TO.P,U4,2*%
%TO.N,GND*%
X44664000Y-68453000D03*
%TO.P,U4,3,NC*%
%TO.N,unconnected-(U4-Pad3)*%
X44664000Y-70993000D03*
%TO.P,U4,4*%
%TO.N,Net-(D2-Pad3)*%
X52284000Y-70993000D03*
%TO.P,U4,5,NC*%
%TO.N,unconnected-(U4-Pad5)*%
X52284000Y-68453000D03*
%TO.P,U4,6*%
%TO.N,Net-(R17-Pad1)*%
X52284000Y-65913000D03*
%TD*%
D13*
%TO.P,R3,2*%
%TO.N,/ESP32/RTS*%
X100111520Y-169825520D03*
%TO.P,R3,1*%
%TO.N,Net-(Q1-Pad5)*%
X98461520Y-169825520D03*
%TD*%
%TO.P,R24,2*%
%TO.N,GND*%
X53276000Y-163374000D03*
%TO.P,R24,1*%
%TO.N,Net-(J11-PadB5)*%
X51626000Y-163374000D03*
%TD*%
D21*
%TO.P,R29,1*%
%TO.N,/Valve Out 4/Switched*%
X37548000Y-124396000D03*
%TO.P,R29,2*%
%TO.N,Net-(D6-Pad3)*%
X37548000Y-126046000D03*
%TD*%
D42*
%TO.P,J1,6,GND_2*%
%TO.N,GND*%
X107823000Y-159654000D03*
%TO.P,J1,5,GND_1*%
X107823000Y-164704000D03*
D43*
%TO.P,J1,4,NO_2*%
%TO.N,/ESP32/~{RESET}*%
X110823000Y-160329000D03*
%TO.P,J1,3,COM_2*%
%TO.N,GND*%
X110823000Y-164029000D03*
%TO.P,J1,2,NO_1*%
%TO.N,/ESP32/~{RESET}*%
X104823000Y-160329000D03*
%TO.P,J1,1,COM_1*%
%TO.N,GND*%
X104823000Y-164029000D03*
%TD*%
D42*
%TO.P,J2,6,GND_2*%
%TO.N,GND*%
X76353520Y-168671000D03*
%TO.P,J2,5,GND_1*%
X76353520Y-173721000D03*
D43*
%TO.P,J2,4,NO_2*%
%TO.N,/ESP32/GPIO_0*%
X79353520Y-169346000D03*
%TO.P,J2,3,COM_2*%
%TO.N,GND*%
X79353520Y-173046000D03*
%TO.P,J2,2,NO_1*%
%TO.N,/ESP32/GPIO_0*%
X73353520Y-169346000D03*
%TO.P,J2,1,COM_1*%
%TO.N,GND*%
X73353520Y-173046000D03*
%TD*%
D29*
%TO.P,D12,1,A1*%
%TO.N,/Pump Out/Switched*%
X87748000Y-36963000D03*
%TO.P,D12,2*%
%TO.N,N/C*%
X87748000Y-39243000D03*
%TO.P,D12,3,G*%
%TO.N,Net-(D12-Pad3)*%
X87748000Y-41523000D03*
D30*
%TO.P,D12,4,A2*%
%TO.N,LINE*%
X94048000Y-39243000D03*
%TD*%
D21*
%TO.P,R15,1*%
%TO.N,/ESP32/IO12*%
X58234000Y-66231000D03*
%TO.P,R15,2*%
%TO.N,Net-(R15-Pad2)*%
X58234000Y-67881000D03*
%TD*%
D13*
%TO.P,R31,1*%
%TO.N,/Valve_Microswitch_1*%
X63530000Y-71186000D03*
%TO.P,R31,2*%
%TO.N,/ESP32/IO22*%
X65180000Y-71186000D03*
%TD*%
D21*
%TO.P,R18,1*%
%TO.N,/ESP32/IO13*%
X57354000Y-86551000D03*
%TO.P,R18,2*%
%TO.N,Net-(R18-Pad2)*%
X57354000Y-88201000D03*
%TD*%
D37*
%TO.P,R30,1*%
%TO.N,Net-(R30-Pad1)*%
X55963000Y-129348000D03*
%TO.P,R30,2*%
%TO.N,LINE*%
X55963000Y-127698000D03*
%TD*%
D21*
%TO.P,R19,1*%
%TO.N,/Valve Out 2/Switched*%
X38998000Y-79185000D03*
%TO.P,R19,2*%
%TO.N,Net-(D3-Pad3)*%
X38998000Y-80835000D03*
%TD*%
D31*
%TO.P,U7,1*%
%TO.N,Net-(R21-Pad2)*%
X43683000Y-106552000D03*
D32*
%TO.P,U7,2*%
%TO.N,GND*%
X43683000Y-109092000D03*
%TO.P,U7,3,NC*%
%TO.N,unconnected-(U7-Pad3)*%
X43683000Y-111632000D03*
%TO.P,U7,4*%
%TO.N,Net-(D4-Pad3)*%
X51303000Y-111632000D03*
%TO.P,U7,5,NC*%
%TO.N,unconnected-(U7-Pad5)*%
X51303000Y-109092000D03*
%TO.P,U7,6*%
%TO.N,Net-(R27-Pad1)*%
X51303000Y-106552000D03*
%TD*%
D44*
%TO.P,F1,1*%
%TO.N,Net-(F1-Pad1)*%
X74041000Y-106553000D03*
%TO.P,F1,2*%
%TO.N,LINE*%
X76041000Y-96393000D03*
%TD*%
D13*
%TO.P,R41,1*%
%TO.N,/Valve_Microswitch_4*%
X61786000Y-128270000D03*
%TO.P,R41,2*%
%TO.N,/ESP32/IO27*%
X63436000Y-128270000D03*
%TD*%
D37*
%TO.P,R5,2*%
%TO.N,/ESP32/sheet61EA3917/D+*%
X55499000Y-154103000D03*
%TO.P,R5,1*%
%TO.N,Net-(R5-Pad1)*%
X55499000Y-155753000D03*
%TD*%
D29*
%TO.P,D6,1,A1*%
%TO.N,/Valve Out 4/Switched*%
X42619000Y-122052000D03*
%TO.P,D6,2*%
%TO.N,N/C*%
X42619000Y-124332000D03*
%TO.P,D6,3,G*%
%TO.N,Net-(D6-Pad3)*%
X42619000Y-126612000D03*
D30*
%TO.P,D6,4,A2*%
%TO.N,LINE*%
X48919000Y-124332000D03*
%TD*%
D21*
%TO.P,R22,1*%
%TO.N,/Valve Out 3/Switched*%
X38897000Y-99504000D03*
%TO.P,R22,2*%
%TO.N,Net-(D4-Pad3)*%
X38897000Y-101154000D03*
%TD*%
D45*
%TO.P,C12,2*%
%TO.N,GND*%
X58596000Y-168454000D03*
%TO.P,C12,1*%
%TO.N,/ESP32/sheet61EA3917/VBUS*%
X61546000Y-168454000D03*
%TD*%
D13*
%TO.P,R26,1*%
%TO.N,/DHW_Thermostat*%
X38926000Y-156464000D03*
%TO.P,R26,2*%
%TO.N,/ESP32/IO21*%
X40576000Y-156464000D03*
%TD*%
D46*
%TO.P,C5,2*%
%TO.N,+3V3*%
X79375000Y-142941000D03*
%TO.P,C5,1*%
%TO.N,GND*%
X79375000Y-144841000D03*
%TD*%
D37*
%TO.P,R37,1*%
%TO.N,Net-(R37-Pad1)*%
X58884000Y-44004000D03*
%TO.P,R37,2*%
%TO.N,LINE*%
X58884000Y-42354000D03*
%TD*%
D14*
%TO.P,D7,1*%
%TO.N,GND*%
X63403000Y-66233000D03*
%TO.P,D7,2*%
%TO.N,+3V3*%
X63403000Y-68133000D03*
%TO.P,D7,3*%
%TO.N,/ESP32/IO22*%
X65278000Y-67183000D03*
%TD*%
D13*
%TO.P,R32,1*%
%TO.N,/Valve_Microswitch_2*%
X61981000Y-91872000D03*
%TO.P,R32,2*%
%TO.N,/ESP32/IO23*%
X63631000Y-91872000D03*
%TD*%
D46*
%TO.P,C2,2*%
%TO.N,+3V3*%
X82195520Y-143033520D03*
%TO.P,C2,1*%
%TO.N,GND*%
X82195520Y-144933520D03*
%TD*%
D31*
%TO.P,U10,1*%
%TO.N,Net-(R38-Pad2)*%
X87463000Y-46355000D03*
D32*
%TO.P,U10,2*%
%TO.N,GND*%
X87463000Y-48895000D03*
%TO.P,U10,3,NC*%
%TO.N,unconnected-(U10-Pad3)*%
X87463000Y-51435000D03*
%TO.P,U10,4*%
%TO.N,Net-(D12-Pad3)*%
X95083000Y-51435000D03*
%TO.P,U10,5,NC*%
%TO.N,unconnected-(U10-Pad5)*%
X95083000Y-48895000D03*
%TO.P,U10,6*%
%TO.N,Net-(R40-Pad1)*%
X95083000Y-46355000D03*
%TD*%
D13*
%TO.P,R4,2*%
%TO.N,/ESP32/~{RESET}*%
X86068520Y-168428520D03*
%TO.P,R4,1*%
%TO.N,/ESP32/EN*%
X84418520Y-168428520D03*
%TD*%
D21*
%TO.P,R38,1*%
%TO.N,/ESP32/IO17*%
X101033000Y-46673000D03*
%TO.P,R38,2*%
%TO.N,Net-(R38-Pad2)*%
X101033000Y-48323000D03*
%TD*%
%TO.P,R35,1*%
%TO.N,/Boiler Out/Trigger*%
X58825000Y-46418000D03*
%TO.P,R35,2*%
%TO.N,Net-(R35-Pad2)*%
X58825000Y-48068000D03*
%TD*%
D15*
%TO.P,R25,2*%
%TO.N,GND*%
X43752000Y-163120000D03*
%TO.P,R25,1*%
%TO.N,Net-(J11-PadA5)*%
X45402000Y-163120000D03*
%TD*%
D21*
%TO.P,R6,2*%
%TO.N,/ESP32/sheet61EA3917/D-*%
X55499000Y-152769000D03*
%TO.P,R6,1*%
%TO.N,Net-(R6-Pad1)*%
X55499000Y-151119000D03*
%TD*%
D28*
%TO.P,C7,2*%
%TO.N,GND*%
X78679000Y-137668000D03*
%TO.P,C7,1*%
%TO.N,+3V3*%
X80579000Y-137668000D03*
%TD*%
D21*
%TO.P,R16,1*%
%TO.N,/Valve Out 1/Switched*%
X39878000Y-58865000D03*
%TO.P,R16,2*%
%TO.N,Net-(D2-Pad3)*%
X39878000Y-60515000D03*
%TD*%
D37*
%TO.P,R40,1*%
%TO.N,Net-(R40-Pad1)*%
X101092000Y-44259000D03*
%TO.P,R40,2*%
%TO.N,LINE*%
X101092000Y-42609000D03*
%TD*%
D14*
%TO.P,D10,1*%
%TO.N,GND*%
X60228000Y-118363250D03*
%TO.P,D10,2*%
%TO.N,+3V3*%
X60228000Y-120263250D03*
%TO.P,D10,3*%
%TO.N,/ESP32/IO26*%
X62103000Y-119313250D03*
%TD*%
D37*
%TO.P,R11,2*%
%TO.N,/ESP32/GPIO_0*%
X95276520Y-169000520D03*
%TO.P,R11,1*%
%TO.N,+3V3*%
X95276520Y-170650520D03*
%TD*%
D13*
%TO.P,R34,1*%
%TO.N,/Valve_Microswitch_3*%
X59900500Y-122793250D03*
%TO.P,R34,2*%
%TO.N,/ESP32/IO26*%
X61550500Y-122793250D03*
%TD*%
D47*
%TO.P,R9,2*%
%TO.N,Net-(R10-Pad1)*%
X45593000Y-147066000D03*
%TO.P,R9,1*%
%TO.N,/ESP32/sheet61EA3917/VBUS*%
X44573000Y-147066000D03*
%TD*%
D14*
%TO.P,D1,1*%
%TO.N,GND*%
X38813500Y-143449000D03*
%TO.P,D1,2*%
%TO.N,+3V3*%
X38813500Y-145349000D03*
%TO.P,D1,3*%
%TO.N,/ESP32/IO18*%
X40688500Y-144399000D03*
%TD*%
D48*
%TO.P,U5,6,I/O1*%
%TO.N,/ESP32/sheet61EA3917/USB_D+*%
X59475000Y-161244500D03*
D49*
%TO.P,U5,5,VBUS*%
%TO.N,Net-(C8-Pad1)*%
X59400000Y-160707000D03*
D48*
%TO.P,U5,4,I/O2*%
%TO.N,/ESP32/sheet61EA3917/USB_D-*%
X59475000Y-160169500D03*
%TO.P,U5,3,I/O2*%
%TO.N,/ESP32/sheet61EA3917/D-*%
X61175000Y-160169500D03*
D49*
%TO.P,U5,2,GND*%
%TO.N,GND*%
X61250000Y-160707000D03*
D48*
%TO.P,U5,1,I/O1*%
%TO.N,/ESP32/sheet61EA3917/D+*%
X61175000Y-161244500D03*
%TD*%
D28*
%TO.P,C4,2*%
%TO.N,GND*%
X59121000Y-172010000D03*
%TO.P,C4,1*%
%TO.N,/ESP32/sheet61EA3917/VBUS*%
X61021000Y-172010000D03*
%TD*%
D29*
%TO.P,D11,1,A1*%
%TO.N,/Boiler Out/Switched*%
X45540000Y-36708000D03*
%TO.P,D11,2*%
%TO.N,N/C*%
X45540000Y-38988000D03*
%TO.P,D11,3,G*%
%TO.N,Net-(D11-Pad3)*%
X45540000Y-41268000D03*
D30*
%TO.P,D11,4,A2*%
%TO.N,LINE*%
X51840000Y-38988000D03*
%TD*%
D50*
%TO.P,R10,2*%
%TO.N,GND*%
X44573000Y-145669000D03*
%TO.P,R10,1*%
%TO.N,Net-(R10-Pad1)*%
X45593000Y-145669000D03*
%TD*%
D31*
%TO.P,U8,1*%
%TO.N,Net-(R28-Pad2)*%
X42334000Y-131444000D03*
D32*
%TO.P,U8,2*%
%TO.N,GND*%
X42334000Y-133984000D03*
%TO.P,U8,3,NC*%
%TO.N,unconnected-(U8-Pad3)*%
X42334000Y-136524000D03*
%TO.P,U8,4*%
%TO.N,Net-(D6-Pad3)*%
X49954000Y-136524000D03*
%TO.P,U8,5,NC*%
%TO.N,unconnected-(U8-Pad5)*%
X49954000Y-133984000D03*
%TO.P,U8,6*%
%TO.N,Net-(R30-Pad1)*%
X49954000Y-131444000D03*
%TD*%
D15*
%TO.P,R21,1*%
%TO.N,/ESP32/IO14*%
X58610000Y-108204000D03*
%TO.P,R21,2*%
%TO.N,Net-(R21-Pad2)*%
X56960000Y-108204000D03*
%TD*%
D13*
%TO.P,R2,2*%
%TO.N,/ESP32/DTR*%
X100165520Y-171476520D03*
%TO.P,R2,1*%
%TO.N,Net-(Q1-Pad2)*%
X98515520Y-171476520D03*
%TD*%
D38*
%TO.P,C8,2*%
%TO.N,GND*%
X55486000Y-163374000D03*
%TO.P,C8,1*%
%TO.N,Net-(C8-Pad1)*%
X57036000Y-163374000D03*
%TD*%
D31*
%TO.P,U6,1*%
%TO.N,Net-(R18-Pad2)*%
X43784000Y-86233000D03*
D32*
%TO.P,U6,2*%
%TO.N,GND*%
X43784000Y-88773000D03*
%TO.P,U6,3,NC*%
%TO.N,unconnected-(U6-Pad3)*%
X43784000Y-91313000D03*
%TO.P,U6,4*%
%TO.N,Net-(D3-Pad3)*%
X51404000Y-91313000D03*
%TO.P,U6,5,NC*%
%TO.N,unconnected-(U6-Pad5)*%
X51404000Y-88773000D03*
%TO.P,U6,6*%
%TO.N,Net-(R20-Pad1)*%
X51404000Y-86233000D03*
%TD*%
D15*
%TO.P,R7,2*%
%TO.N,+3V3*%
X71845520Y-152680520D03*
%TO.P,R7,1*%
%TO.N,Net-(JP2-Pad2)*%
X73495520Y-152680520D03*
%TD*%
D51*
%TO.P,C1,2*%
%TO.N,GND*%
X86066520Y-170714520D03*
%TO.P,C1,1*%
%TO.N,/ESP32/EN*%
X84166520Y-170714520D03*
%TD*%
D29*
%TO.P,D2,1,A1*%
%TO.N,/Valve Out 1/Switched*%
X44949000Y-56521000D03*
%TO.P,D2,2*%
%TO.N,N/C*%
X44949000Y-58801000D03*
%TO.P,D2,3,G*%
%TO.N,Net-(D2-Pad3)*%
X44949000Y-61081000D03*
D30*
%TO.P,D2,4,A2*%
%TO.N,LINE*%
X51249000Y-58801000D03*
%TD*%
D37*
%TO.P,R27,1*%
%TO.N,Net-(R27-Pad1)*%
X57312000Y-104456000D03*
%TO.P,R27,2*%
%TO.N,LINE*%
X57312000Y-102806000D03*
%TD*%
%TO.P,R20,1*%
%TO.N,Net-(R20-Pad1)*%
X57413000Y-84137000D03*
%TO.P,R20,2*%
%TO.N,LINE*%
X57413000Y-82487000D03*
%TD*%
D15*
%TO.P,R12,2*%
%TO.N,Net-(R12-Pad2)*%
X50610000Y-158750000D03*
%TO.P,R12,1*%
%TO.N,/ESP32/ESP_RXD*%
X52260000Y-158750000D03*
%TD*%
D52*
%TO.P,U2,29,GND*%
%TO.N,GND*%
X47625000Y-153087000D03*
D53*
%TO.P,U2,28,~{DTR}*%
%TO.N,/ESP32/DTR*%
X49125000Y-155537000D03*
%TO.P,U2,27,~{DSR}*%
%TO.N,unconnected-(U2-Pad27)*%
X48625000Y-155537000D03*
%TO.P,U2,26,TXD*%
%TO.N,Net-(R12-Pad2)*%
X48125000Y-155537000D03*
%TO.P,U2,25,RXD*%
%TO.N,Net-(R13-Pad2)*%
X47625000Y-155537000D03*
%TO.P,U2,24,~{RTS}*%
%TO.N,/ESP32/RTS*%
X47125000Y-155537000D03*
%TO.P,U2,23,~{CTS}*%
%TO.N,unconnected-(U2-Pad23)*%
X46625000Y-155537000D03*
%TO.P,U2,22,GPIO.4*%
%TO.N,unconnected-(U2-Pad22)*%
X46125000Y-155537000D03*
D54*
%TO.P,U2,21,GPIO.5*%
%TO.N,unconnected-(U2-Pad21)*%
X45175000Y-154587000D03*
%TO.P,U2,20,GPIO.6*%
%TO.N,unconnected-(U2-Pad20)*%
X45175000Y-154087000D03*
%TO.P,U2,19,~{TXT}/GPIO.0*%
%TO.N,unconnected-(U2-Pad19)*%
X45175000Y-153587000D03*
%TO.P,U2,18,~{RXT}/GPIO.1*%
%TO.N,unconnected-(U2-Pad18)*%
X45175000Y-153087000D03*
%TO.P,U2,17,RS485/GPIO.2*%
%TO.N,unconnected-(U2-Pad17)*%
X45175000Y-152587000D03*
%TO.P,U2,16,~{WAKEUP}/GPIO.3*%
%TO.N,unconnected-(U2-Pad16)*%
X45175000Y-152087000D03*
%TO.P,U2,15,CHR0*%
%TO.N,unconnected-(U2-Pad15)*%
X45175000Y-151587000D03*
D53*
%TO.P,U2,14,CHR1*%
%TO.N,unconnected-(U2-Pad14)*%
X46125000Y-150637000D03*
%TO.P,U2,13,CHREN*%
%TO.N,unconnected-(U2-Pad13)*%
X46625000Y-150637000D03*
%TO.P,U2,12,SUSPEND*%
%TO.N,unconnected-(U2-Pad12)*%
X47125000Y-150637000D03*
%TO.P,U2,11,~{SUSPENDb}*%
%TO.N,unconnected-(U2-Pad11)*%
X47625000Y-150637000D03*
%TO.P,U2,10,NC*%
%TO.N,unconnected-(U2-Pad10)*%
X48125000Y-150637000D03*
%TO.P,U2,9,~{RSTb}*%
%TO.N,unconnected-(U2-Pad9)*%
X48625000Y-150637000D03*
%TO.P,U2,8,VBUS*%
%TO.N,Net-(R10-Pad1)*%
X49125000Y-150637000D03*
D54*
%TO.P,U2,7,REGIN*%
%TO.N,+3V3*%
X50075000Y-151587000D03*
%TO.P,U2,6,VDD*%
X50075000Y-152087000D03*
%TO.P,U2,5,D-*%
%TO.N,Net-(R6-Pad1)*%
X50075000Y-152587000D03*
%TO.P,U2,4,D+*%
%TO.N,Net-(R5-Pad1)*%
X50075000Y-153087000D03*
%TO.P,U2,3,GND*%
%TO.N,GND*%
X50075000Y-153587000D03*
%TO.P,U2,2,~{RI}/CLK*%
%TO.N,unconnected-(U2-Pad2)*%
X50075000Y-154087000D03*
%TO.P,U2,1,~{DCD}*%
%TO.N,unconnected-(U2-Pad1)*%
X50075000Y-154587000D03*
%TD*%
D29*
%TO.P,D3,1,A1*%
%TO.N,/Valve Out 2/Switched*%
X44069000Y-76841000D03*
%TO.P,D3,2*%
%TO.N,N/C*%
X44069000Y-79121000D03*
%TO.P,D3,3,G*%
%TO.N,Net-(D3-Pad3)*%
X44069000Y-81401000D03*
D30*
%TO.P,D3,4,A2*%
%TO.N,LINE*%
X50369000Y-79121000D03*
%TD*%
D55*
%TO.P,C3,2*%
%TO.N,GND*%
X77089000Y-144780000D03*
%TO.P,C3,1*%
%TO.N,+3V3*%
X77089000Y-142880000D03*
%TD*%
D56*
%TO.N,/ESP32/IO12*%
X75438000Y-126111000D03*
%TO.N,NEUT*%
X39370000Y-30988000D03*
X38862000Y-44577000D03*
D57*
%TO.N,GND*%
X93662500Y-149161500D03*
%TO.N,/Spare_Thermostat_4*%
X37465000Y-159131000D03*
%TO.N,+3V3*%
X36322000Y-157353000D03*
%TO.N,/ESP32/IO35*%
X36830000Y-169799000D03*
X66040000Y-155575000D03*
%TO.N,/ESP32/IO34*%
X69850000Y-154051000D03*
X69850000Y-151765000D03*
X60579000Y-148844000D03*
%TO.N,/ESP32/IO32*%
X65214500Y-146748500D03*
%TO.N,/ESP32/IO34*%
X26515500Y-168973500D03*
%TO.N,+3V3*%
X72390000Y-143129000D03*
%TO.N,GND*%
X74168000Y-130302000D03*
X80264000Y-167513000D03*
%TO.N,+3V3*%
X51054000Y-143891000D03*
X36515000Y-153858000D03*
X75120500Y-143827500D03*
%TO.N,/ESP32/IO32*%
X74549000Y-160909000D03*
%TO.N,GND*%
X55880000Y-91186000D03*
%TO.N,/ESP32/IO17*%
X101854000Y-49276000D03*
X109982000Y-49657000D03*
%TO.N,GND*%
X83820000Y-48514000D03*
X68072000Y-47244000D03*
X56370511Y-50055489D03*
X60629750Y-67995750D03*
X41318500Y-65107500D03*
X42037000Y-54356000D03*
%TO.N,/Boiler Out/Trigger*%
X78295500Y-72326500D03*
X74422000Y-68453000D03*
%TO.N,/ESP32/IO22*%
X81366561Y-89575439D03*
X78572561Y-86781439D03*
%TO.N,/ESP32/IO12*%
X79819500Y-90868500D03*
X77302202Y-88351202D03*
%TO.N,/ESP32/IO22*%
X69809561Y-78018439D03*
%TO.N,/ESP32/IO12*%
X67691000Y-79375000D03*
X64643000Y-76327000D03*
%TO.N,/ESP32/IO22*%
X66444061Y-74652939D03*
%TO.N,/Boiler Out/Trigger*%
X66675000Y-60706000D03*
X61531500Y-55562500D03*
%TO.N,+3V3*%
X61214000Y-80518000D03*
X62039500Y-69786500D03*
X61214000Y-85471000D03*
X60388500Y-89979500D03*
X62484000Y-98425000D03*
X64960500Y-119189500D03*
X58039000Y-119507000D03*
%TO.N,/ESP32/IO14*%
X69532500Y-118554500D03*
X69723000Y-122174000D03*
D56*
%TO.N,+3V3*%
X76962000Y-121158000D03*
X81788000Y-121158000D03*
X76962000Y-131445000D03*
X98933000Y-116332000D03*
D57*
%TO.N,/ESP32/DTR*%
X50419000Y-157226000D03*
X101219000Y-163449000D03*
%TO.N,+3V3*%
X93218000Y-172212000D03*
X84709000Y-166497000D03*
X64706500Y-153733500D03*
X61658500Y-153733500D03*
%TO.N,/ESP32/IO26*%
X65087500Y-128841500D03*
X65087500Y-123253500D03*
%TO.N,/ESP32/IO23*%
X66040000Y-92456000D03*
X66675000Y-98425000D03*
X66675000Y-125349000D03*
X101981000Y-138430000D03*
%TO.N,GND*%
X100139500Y-137223500D03*
%TO.N,/ESP32/IO19*%
X71247000Y-135001000D03*
X102171500Y-145097500D03*
%TO.N,/ESP32/IO26*%
X85471000Y-146558000D03*
X89916000Y-145161000D03*
X89281000Y-141351000D03*
X77216000Y-139446000D03*
X78994000Y-135001000D03*
X71120000Y-128905000D03*
%TO.N,/ESP32/IO14*%
X63119000Y-112268000D03*
X73152000Y-132969000D03*
X69088000Y-143891000D03*
X85471000Y-152019000D03*
%TO.N,/ESP32/IO27*%
X85471000Y-150749000D03*
X80264000Y-149606000D03*
X75501500Y-141160500D03*
X65659000Y-131064000D03*
%TO.N,GND*%
X66675000Y-134239000D03*
%TO.N,+3V3*%
X61214000Y-134747000D03*
X65532000Y-139446000D03*
X65151000Y-141224000D03*
%TO.N,/ESP32/IO15*%
X56974000Y-134179000D03*
X99187000Y-151384000D03*
%TO.N,/ESP32/IO33*%
X90551000Y-147193000D03*
X83058000Y-153035000D03*
%TO.N,/ESP32/IO12*%
X85471000Y-155448000D03*
X70993000Y-149352000D03*
X75311000Y-134747000D03*
X59309000Y-76327000D03*
X56388000Y-72644000D03*
%TO.N,GND*%
X36830000Y-88773000D03*
X36322000Y-81915000D03*
X36830000Y-111125000D03*
X36830000Y-102743000D03*
%TO.N,/Valve_Microswitch_2*%
X61595000Y-93472000D03*
X54356000Y-94488000D03*
%TO.N,/ESP32/IO13*%
X67564000Y-93980000D03*
X68453000Y-99187000D03*
X68453000Y-124841000D03*
X90297000Y-138938000D03*
%TO.N,GND*%
X94932500Y-147764500D03*
X95821500Y-139890500D03*
%TO.N,/ESP32/ESP_RXD*%
X85852000Y-157099000D03*
X95758000Y-149860000D03*
%TO.N,/ESP32/ESP_TXD*%
X100330000Y-140716000D03*
X87947500Y-157543500D03*
%TO.N,/ESP32/IO18*%
X102870000Y-146939000D03*
X38481000Y-172847000D03*
%TO.N,GND*%
X40513000Y-150368000D03*
X39878000Y-138430000D03*
X46228000Y-144907000D03*
X52006500Y-154749500D03*
X42862500Y-164782500D03*
X41454000Y-163120000D03*
%TO.N,/Spare_Thermostat_2*%
X44069000Y-141097000D03*
%TO.N,GND*%
X84328000Y-136779000D03*
%TO.N,/ESP32/ESP_TXD*%
X66421000Y-168402000D03*
%TO.N,/ESP32/ESP_RXD*%
X66040000Y-167259000D03*
%TO.N,/ESP32/ESP_TXD*%
X57785000Y-158877000D03*
%TO.N,/ESP32/ESP_RXD*%
X56769000Y-157099000D03*
%TO.N,/ESP32/RTS*%
X91186000Y-173101000D03*
X99949000Y-164973000D03*
%TO.N,/ESP32/GPIO_0*%
X95631000Y-165862000D03*
%TO.N,/Boiler Out/Trigger*%
X107696000Y-151130000D03*
X108712000Y-138049000D03*
X107886500Y-120205500D03*
X108077000Y-116586000D03*
%TO.N,GND*%
X28448000Y-127254000D03*
X28448000Y-121920000D03*
%TO.N,/Valve_Microswitch_4*%
X45339000Y-131445000D03*
%TO.N,GND*%
X59116000Y-131130000D03*
X51816000Y-135128000D03*
X87730480Y-170714520D03*
%TO.N,/ESP32/GPIO_0*%
X95504000Y-167894000D03*
X97282000Y-169164000D03*
D56*
%TO.N,GND*%
X107823000Y-162306000D03*
%TO.N,/Pump Out/Switched*%
X57912000Y-32893000D03*
X62230000Y-37084000D03*
D57*
%TO.N,/ESP32/IO17*%
X110490000Y-144018000D03*
X110490000Y-138176000D03*
X109220000Y-120396000D03*
X109918500Y-116649500D03*
%TO.N,/ESP32/IO22*%
X96647000Y-116840000D03*
X96774000Y-119126000D03*
%TO.N,GND*%
X59118500Y-146494500D03*
X76353520Y-171550480D03*
X57479000Y-172010000D03*
X53975000Y-166243000D03*
X53276000Y-161862000D03*
X58114000Y-165660000D03*
X56971000Y-168454000D03*
X90678000Y-152146000D03*
X77089000Y-146177000D03*
X79375000Y-146177000D03*
X82195520Y-146150480D03*
X76962000Y-137668000D03*
X76708000Y-140716000D03*
%TD*%
D58*
%TO.N,GND*%
X28816500Y-167779500D02*
X28816500Y-170754000D01*
X29972000Y-162433000D02*
X29972000Y-166624000D01*
X29972000Y-166624000D02*
X28816500Y-167779500D01*
%TO.N,/ESP32/IO12*%
X78232000Y-126111000D02*
X75438000Y-126111000D01*
X87630000Y-116713000D02*
X78232000Y-126111000D01*
X85794521Y-112972521D02*
X87630000Y-114808000D01*
X84963000Y-107188000D02*
X85794521Y-108019521D01*
X84963000Y-93807596D02*
X84963000Y-107188000D01*
X82128202Y-90972798D02*
X84963000Y-93807596D01*
X85794521Y-108019521D02*
X85794521Y-112972521D01*
X87630000Y-114808000D02*
X87630000Y-116713000D01*
X79923798Y-90972798D02*
X82128202Y-90972798D01*
X79819500Y-90868500D02*
X79923798Y-90972798D01*
%TO.N,+3V3*%
X26240500Y-172654000D02*
X28816500Y-172654000D01*
X24777500Y-174117000D02*
X26240500Y-172654000D01*
X17780000Y-174117000D02*
X24777500Y-174117000D01*
X17060460Y-173397460D02*
X17780000Y-174117000D01*
X17060460Y-170856968D02*
X17060460Y-173397460D01*
X19413980Y-170129480D02*
X17787948Y-170129480D01*
X19634020Y-170349520D02*
X19413980Y-170129480D01*
X19634020Y-171108408D02*
X19634020Y-170349520D01*
X18572000Y-172170428D02*
X19634020Y-171108408D01*
X18572000Y-172654000D02*
X18572000Y-172170428D01*
X17787948Y-170129480D02*
X17060460Y-170856968D01*
%TO.N,GND*%
X26096000Y-170754000D02*
X28816500Y-170754000D01*
X23241000Y-173609000D02*
X26096000Y-170754000D01*
X17509980Y-171816020D02*
X17509980Y-173084980D01*
X17509980Y-173084980D02*
X18034000Y-173609000D01*
X18572000Y-170754000D02*
X17509980Y-171816020D01*
X18034000Y-173609000D02*
X23241000Y-173609000D01*
%TO.N,/Spare_Thermostat_3*%
X17974213Y-157353000D02*
X29972000Y-157353000D01*
X15396489Y-165383489D02*
X13432489Y-163419489D01*
X20349489Y-165383489D02*
X15396489Y-165383489D01*
X23134500Y-168168500D02*
X20349489Y-165383489D01*
X13432489Y-163419489D02*
X13432489Y-161894724D01*
X23134500Y-170734000D02*
X23134500Y-168168500D01*
X13432489Y-161894724D02*
X17974213Y-157353000D01*
%TO.N,/Spare_Thermostat_4*%
X33141000Y-168396000D02*
X33141000Y-170496000D01*
X33141000Y-170496000D02*
X33379000Y-170734000D01*
X33141000Y-168396000D02*
X37142480Y-164394520D01*
%TO.N,/ESP32/IO35*%
X35964000Y-169799000D02*
X35029000Y-170734000D01*
X36830000Y-169799000D02*
X35964000Y-169799000D01*
%TO.N,+3V3*%
X29878520Y-168532408D02*
X36322000Y-162088928D01*
X29878520Y-171108408D02*
X29878520Y-168532408D01*
X28816500Y-172170428D02*
X29878520Y-171108408D01*
D59*
%TO.N,NEUT*%
X95377000Y-30988000D02*
X39370000Y-30988000D01*
X107950000Y-43561000D02*
X95377000Y-30988000D01*
X107950000Y-66344000D02*
X107950000Y-43561000D01*
X104698000Y-69596000D02*
X107950000Y-66344000D01*
X37084000Y-46355000D02*
X38862000Y-44577000D01*
X32462000Y-46355000D02*
X37084000Y-46355000D01*
X17222000Y-46355000D02*
X32462000Y-46355000D01*
%TO.N,/Pump Out/Switched*%
X32462000Y-35814000D02*
X35383000Y-32893000D01*
X35383000Y-32893000D02*
X57912000Y-32893000D01*
X32462000Y-41275000D02*
X32462000Y-35814000D01*
%TO.N,/Boiler Out/Switched*%
X34209511Y-44680489D02*
X40469000Y-38421000D01*
X20627489Y-44680489D02*
X34209511Y-44680489D01*
X17222000Y-41275000D02*
X20627489Y-44680489D01*
%TO.N,NEUT*%
X13793000Y-49784000D02*
X13208000Y-49784000D01*
X17222000Y-46355000D02*
X13793000Y-49784000D01*
X13208000Y-66548000D02*
X13208000Y-49784000D01*
D58*
%TO.N,GND*%
X94932500Y-147764500D02*
X94932500Y-147891500D01*
X94932500Y-147891500D02*
X93662500Y-149161500D01*
%TO.N,/Spare_Thermostat_4*%
X37142480Y-164394520D02*
X37142480Y-159453520D01*
X37142480Y-159453520D02*
X37465000Y-159131000D01*
%TO.N,+3V3*%
X36322000Y-162088928D02*
X36322000Y-157353000D01*
X28816500Y-172654000D02*
X28816500Y-172170428D01*
%TO.N,/ESP32/IO35*%
X34059000Y-171704000D02*
X30691500Y-171704000D01*
X35029000Y-170734000D02*
X34059000Y-171704000D01*
X70739000Y-157607000D02*
X68707000Y-155575000D01*
X68707000Y-155575000D02*
X66040000Y-155575000D01*
X75311000Y-157607000D02*
X70739000Y-157607000D01*
X76876520Y-156041480D02*
X75311000Y-157607000D01*
X76876520Y-155474520D02*
X76876520Y-156041480D01*
%TO.N,/ESP32/IO34*%
X76876520Y-153501480D02*
X76581000Y-153797000D01*
X76876520Y-152680520D02*
X76876520Y-153501480D01*
X73787000Y-153797000D02*
X76581000Y-153797000D01*
X76876520Y-152680520D02*
X79475480Y-152680520D01*
X72771000Y-154813000D02*
X73787000Y-153797000D01*
X72771000Y-155892823D02*
X72771000Y-154813000D01*
X72262783Y-156401040D02*
X72771000Y-155892823D01*
X71428257Y-156401040D02*
X72262783Y-156401040D01*
X69850000Y-154822783D02*
X71428257Y-156401040D01*
X69850000Y-154051000D02*
X69850000Y-154822783D01*
X60579000Y-148844000D02*
X66929000Y-148844000D01*
X66929000Y-148844000D02*
X69850000Y-151765000D01*
%TO.N,+3V3*%
X59854489Y-149144103D02*
X59854489Y-146393511D01*
X64443886Y-153733500D02*
X59854489Y-149144103D01*
X64706500Y-153733500D02*
X64443886Y-153733500D01*
X59854489Y-146393511D02*
X60850000Y-145398000D01*
X60850000Y-145398000D02*
X60850000Y-143498000D01*
%TO.N,/ESP32/IO32*%
X65930000Y-146033000D02*
X65930000Y-143498000D01*
X65214500Y-146748500D02*
X65930000Y-146033000D01*
%TO.N,/ESP32/IO34*%
X24755000Y-170734000D02*
X26515500Y-168973500D01*
X23814500Y-171704000D02*
X24784500Y-170734000D01*
X20447000Y-171704000D02*
X23814500Y-171704000D01*
%TO.N,+3V3*%
X67437000Y-164719000D02*
X67437000Y-160782000D01*
X70141489Y-169380511D02*
X65315489Y-169380511D01*
X65315489Y-169380511D02*
X65315489Y-166840511D01*
X65315489Y-166840511D02*
X67437000Y-164719000D01*
X73025000Y-166497000D02*
X70141489Y-169380511D01*
X84709000Y-166497000D02*
X73025000Y-166497000D01*
%TO.N,/ESP32/DTR*%
X101117511Y-172428511D02*
X100165520Y-171476520D01*
X102743000Y-171966614D02*
X102281103Y-172428511D01*
X102743000Y-164973000D02*
X102743000Y-171966614D01*
X102281103Y-172428511D02*
X101117511Y-172428511D01*
X101219000Y-163449000D02*
X102743000Y-164973000D01*
%TO.N,GND*%
X45465000Y-109092000D02*
X43683000Y-109092000D01*
X46880489Y-110507489D02*
X45465000Y-109092000D01*
X52372239Y-110507489D02*
X46880489Y-110507489D01*
X60228000Y-118363250D02*
X52372239Y-110507489D01*
D59*
%TO.N,+3V3*%
X72390000Y-143129000D02*
X72390000Y-152136040D01*
D58*
%TO.N,GND*%
X97472500Y-139890500D02*
X95821500Y-139890500D01*
X100139500Y-137223500D02*
X97472500Y-139890500D01*
X81661000Y-136779000D02*
X80010000Y-135128000D01*
X84328000Y-136779000D02*
X81661000Y-136779000D01*
X80010000Y-135128000D02*
X80010000Y-136337000D01*
X80010000Y-132207000D02*
X80010000Y-135128000D01*
X77978000Y-130175000D02*
X80010000Y-132207000D01*
X80010000Y-136337000D02*
X78679000Y-137668000D01*
X75463007Y-130175000D02*
X77978000Y-130175000D01*
X75336007Y-130302000D02*
X75463007Y-130175000D01*
X74168000Y-130302000D02*
X75336007Y-130302000D01*
X82296000Y-170381493D02*
X83678547Y-171764040D01*
X83678547Y-171764040D02*
X85017000Y-171764040D01*
X85017000Y-171764040D02*
X86066520Y-170714520D01*
X82296000Y-169545000D02*
X82296000Y-170381493D01*
X80264000Y-167513000D02*
X82296000Y-169545000D01*
%TO.N,+3V3*%
X50607000Y-143891000D02*
X49591000Y-144907000D01*
X51054000Y-143891000D02*
X50607000Y-143891000D01*
X36515000Y-153858000D02*
X39067500Y-153858000D01*
X66537540Y-153733500D02*
X67590520Y-152680520D01*
X64706500Y-153733500D02*
X66537540Y-153733500D01*
X76068000Y-142880000D02*
X75120500Y-143827500D01*
X77089000Y-142880000D02*
X76068000Y-142880000D01*
%TO.N,/ESP32/IO32*%
X74549000Y-161559000D02*
X73294000Y-162814000D01*
X74549000Y-160909000D02*
X74549000Y-161559000D01*
D59*
%TO.N,+3V3*%
X62484000Y-107442000D02*
X62484000Y-98425000D01*
X64960500Y-109918500D02*
X62484000Y-107442000D01*
X64960500Y-119189500D02*
X64960500Y-109918500D01*
D58*
%TO.N,GND*%
X56388000Y-90678000D02*
X55880000Y-91186000D01*
X57251500Y-90678000D02*
X56388000Y-90678000D01*
%TO.N,/ESP32/IO17*%
X111633000Y-51308000D02*
X109982000Y-49657000D01*
X111633000Y-114935000D02*
X111633000Y-51308000D01*
X109918500Y-116649500D02*
X111633000Y-114935000D01*
%TO.N,GND*%
X90696489Y-50310489D02*
X89281000Y-48895000D01*
X98925989Y-50310489D02*
X90696489Y-50310489D01*
X89281000Y-48895000D02*
X87463000Y-48895000D01*
X101066500Y-52451000D02*
X98925989Y-50310489D01*
X68072000Y-47244000D02*
X82550000Y-47244000D01*
X82550000Y-47244000D02*
X83820000Y-48514000D01*
X56370511Y-50055489D02*
X48531489Y-50055489D01*
X60629750Y-67995750D02*
X58140500Y-70485000D01*
X30099000Y-70408000D02*
X32462000Y-72771000D01*
X30099000Y-65405000D02*
X30099000Y-70408000D01*
X30396500Y-65107500D02*
X30099000Y-65405000D01*
X41318500Y-65107500D02*
X30396500Y-65107500D01*
X55407000Y-54356000D02*
X42037000Y-54356000D01*
X58447000Y-51316000D02*
X55407000Y-54356000D01*
X48531489Y-50055489D02*
X47116000Y-48640000D01*
X57186489Y-50055489D02*
X56370511Y-50055489D01*
X47116000Y-48640000D02*
X45255000Y-48640000D01*
X58447000Y-51316000D02*
X57186489Y-50055489D01*
D59*
%TO.N,Net-(F1-Pad1)*%
X79258000Y-68443000D02*
X81026000Y-68443000D01*
X75184000Y-72517000D02*
X79258000Y-68443000D01*
X75184000Y-73152000D02*
X75184000Y-72517000D01*
D58*
%TO.N,/Boiler Out/Trigger*%
X66675000Y-60706000D02*
X74422000Y-68453000D01*
D59*
%TO.N,Net-(F1-Pad1)*%
X79672072Y-77640072D02*
X75184000Y-73152000D01*
X79672072Y-89460984D02*
X79672072Y-77640072D01*
X78613000Y-90520056D02*
X79672072Y-89460984D01*
X78613000Y-101981000D02*
X78613000Y-90520056D01*
X74041000Y-106553000D02*
X78613000Y-101981000D01*
D58*
%TO.N,/ESP32/IO22*%
X81366561Y-89575439D02*
X96647000Y-104855878D01*
%TO.N,/ESP32/IO12*%
X77302202Y-88351202D02*
X77302202Y-86146798D01*
X70825202Y-79669798D02*
X67985798Y-79669798D01*
X77302202Y-86146798D02*
X70825202Y-79669798D01*
X67985798Y-79669798D02*
X67691000Y-79375000D01*
D59*
%TO.N,LINE*%
X73184000Y-111411000D02*
X76041000Y-111411000D01*
X70866000Y-109093000D02*
X73184000Y-111411000D01*
X76041000Y-111411000D02*
X76041000Y-118807944D01*
X70866000Y-104394000D02*
X70866000Y-109093000D01*
X76041000Y-102203000D02*
X73057000Y-102203000D01*
X76041000Y-96393000D02*
X76041000Y-102203000D01*
X73057000Y-102203000D02*
X70866000Y-104394000D01*
X63373000Y-79248000D02*
X64389000Y-79248000D01*
X69342000Y-74295000D02*
X64389000Y-79248000D01*
D58*
%TO.N,/ESP32/IO22*%
X69809561Y-78018439D02*
X78572561Y-86781439D01*
D59*
%TO.N,LINE*%
X65405000Y-63627000D02*
X67310000Y-63627000D01*
X60261500Y-58483500D02*
X65405000Y-63627000D01*
X60261500Y-58483500D02*
X64770000Y-53975000D01*
X69342000Y-65659000D02*
X69342000Y-74295000D01*
X59944000Y-58801000D02*
X60261500Y-58483500D01*
X67310000Y-63627000D02*
X69342000Y-65659000D01*
X64770000Y-45339000D02*
X58419000Y-38988000D01*
X64770000Y-53975000D02*
X64770000Y-45339000D01*
X51249000Y-58801000D02*
X59944000Y-58801000D01*
D58*
%TO.N,/Boiler Out/Trigger*%
X61531500Y-55562500D02*
X60535642Y-54566642D01*
%TO.N,+3V3*%
X63403000Y-68133000D02*
X62039500Y-69496500D01*
X62039500Y-69496500D02*
X62039500Y-69786500D01*
X61214000Y-80518000D02*
X61214000Y-85471000D01*
X61026000Y-89342000D02*
X60388500Y-89979500D01*
X62308500Y-89342000D02*
X61026000Y-89342000D01*
X59471750Y-119507000D02*
X58039000Y-119507000D01*
X60228000Y-120263250D02*
X59471750Y-119507000D01*
%TO.N,/ESP32/IO14*%
X69532500Y-121983500D02*
X69532500Y-118554500D01*
X69723000Y-122174000D02*
X69532500Y-121983500D01*
D59*
%TO.N,+3V3*%
X81788000Y-121158000D02*
X76962000Y-121158000D01*
D58*
%TO.N,/ESP32/IO21*%
X42545000Y-151305500D02*
X40942500Y-152908000D01*
X42545000Y-141097000D02*
X42545000Y-151305500D01*
X45021500Y-138620500D02*
X42545000Y-141097000D01*
X60261500Y-138620500D02*
X45021500Y-138620500D01*
X67564000Y-131318000D02*
X60261500Y-138620500D01*
X72453500Y-129349500D02*
X70485000Y-131318000D01*
X88263196Y-117856000D02*
X76769696Y-129349500D01*
X76769696Y-129349500D02*
X72453500Y-129349500D01*
X112649000Y-117856000D02*
X88263196Y-117856000D01*
X70485000Y-131318000D02*
X67564000Y-131318000D01*
X112649000Y-141732000D02*
X112649000Y-117856000D01*
X111379000Y-143002000D02*
X112649000Y-141732000D01*
X104639000Y-143002000D02*
X111379000Y-143002000D01*
D59*
%TO.N,+3V3*%
X74484520Y-140653480D02*
X72390000Y-142748000D01*
X72390000Y-152136040D02*
X71845520Y-152680520D01*
X76962000Y-135477338D02*
X74484520Y-137954818D01*
X72390000Y-142748000D02*
X72390000Y-143129000D01*
X76962000Y-131445000D02*
X76962000Y-135477338D01*
X74484520Y-137954818D02*
X74484520Y-140653480D01*
D58*
%TO.N,/ESP32/IO12*%
X69977359Y-149352359D02*
X70992641Y-149352359D01*
X70992641Y-149352359D02*
X70993000Y-149352000D01*
X73660000Y-139954717D02*
X69977359Y-143637358D01*
X69977359Y-143637358D02*
X69977359Y-149352359D01*
X73660000Y-135509000D02*
X73660000Y-139954717D01*
X74422000Y-134747000D02*
X73660000Y-135509000D01*
X75311000Y-134747000D02*
X74422000Y-134747000D01*
D59*
%TO.N,+3V3*%
X98151000Y-107197000D02*
X98151000Y-115550000D01*
X98151000Y-115550000D02*
X98933000Y-116332000D01*
D58*
%TO.N,/ESP32/DTR*%
X49125000Y-155537000D02*
X49125000Y-155932000D01*
X49125000Y-155932000D02*
X50419000Y-157226000D01*
%TO.N,+3V3*%
X93218000Y-170878000D02*
X92863520Y-170523520D01*
X93218000Y-172212000D02*
X93218000Y-170878000D01*
X65024000Y-160782000D02*
X67437000Y-160782000D01*
X67437000Y-160782000D02*
X69197257Y-160782000D01*
%TO.N,Net-(JP2-Pad2)*%
X73495520Y-152680520D02*
X75576520Y-152680520D01*
%TO.N,+3V3*%
X72584000Y-158663000D02*
X73383520Y-159462520D01*
X71316257Y-158663000D02*
X72584000Y-158663000D01*
X69197257Y-160782000D02*
X71316257Y-158663000D01*
X64706500Y-160464500D02*
X65024000Y-160782000D01*
X64706500Y-153733500D02*
X64706500Y-160464500D01*
X58319480Y-150394480D02*
X61658500Y-153733500D01*
X51767520Y-150394480D02*
X58319480Y-150394480D01*
X50075000Y-152087000D02*
X51767520Y-150394480D01*
%TO.N,/Valve_Microswitch_3*%
X55991250Y-122793250D02*
X45954511Y-112756511D01*
X45954511Y-112756511D02*
X34728511Y-112756511D01*
X32462000Y-110490000D02*
X34728511Y-112756511D01*
X59900500Y-122793250D02*
X55991250Y-122793250D01*
%TO.N,/ESP32/IO26*%
X65087500Y-128841500D02*
X65151000Y-128905000D01*
X65151000Y-128905000D02*
X71120000Y-128905000D01*
X64627250Y-122793250D02*
X65087500Y-123253500D01*
X61550500Y-122793250D02*
X64627250Y-122793250D01*
D59*
%TO.N,LINE*%
X55081000Y-127598000D02*
X55963000Y-127598000D01*
X52324000Y-124841000D02*
X49428000Y-124841000D01*
X63500000Y-124841000D02*
X52324000Y-124841000D01*
X52324000Y-124841000D02*
X55081000Y-127598000D01*
X49428000Y-124841000D02*
X48919000Y-124332000D01*
X65153851Y-126494851D02*
X63500000Y-124841000D01*
X76041000Y-118807944D02*
X68354093Y-126494851D01*
X68354093Y-126494851D02*
X65153851Y-126494851D01*
D58*
%TO.N,/ESP32/IO23*%
X66040000Y-92456000D02*
X64215000Y-92456000D01*
X64215000Y-92456000D02*
X63631000Y-91872000D01*
X66675000Y-125349000D02*
X66675000Y-98425000D01*
X102489000Y-137922000D02*
X101981000Y-138430000D01*
X104639000Y-137922000D02*
X102489000Y-137922000D01*
%TO.N,GND*%
X100711000Y-136652000D02*
X100139500Y-137223500D01*
X104639000Y-136652000D02*
X100711000Y-136652000D01*
%TO.N,/ESP32/IO19*%
X69660000Y-136525000D02*
X69723000Y-136525000D01*
X69723000Y-136525000D02*
X71247000Y-135001000D01*
X102616000Y-145542000D02*
X102171500Y-145097500D01*
X104639000Y-145542000D02*
X102616000Y-145542000D01*
%TO.N,/ESP32/IO26*%
X85344000Y-146685000D02*
X85344000Y-148844000D01*
X85344000Y-148844000D02*
X85852000Y-149352000D01*
X85852000Y-149352000D02*
X87639000Y-149352000D01*
X85471000Y-146558000D02*
X85344000Y-146685000D01*
%TO.N,/ESP32/IO32*%
X74368511Y-163888511D02*
X73294000Y-162814000D01*
X81602489Y-163888511D02*
X74368511Y-163888511D01*
X84582000Y-160909000D02*
X81602489Y-163888511D01*
X84582000Y-155321000D02*
X84582000Y-160909000D01*
X83782511Y-154521511D02*
X84582000Y-155321000D01*
X83782511Y-149822511D02*
X83782511Y-154521511D01*
X83566000Y-149606000D02*
X83782511Y-149822511D01*
X84465040Y-148706960D02*
X83566000Y-149606000D01*
X84465040Y-145542000D02*
X84465040Y-148706960D01*
X84465040Y-145542000D02*
X87639000Y-145542000D01*
%TO.N,/ESP32/IO35*%
X80010359Y-151765359D02*
X84015520Y-147760198D01*
X84015520Y-147760198D02*
X84015520Y-144907000D01*
X80010359Y-153923641D02*
X80010359Y-151765359D01*
X78459480Y-155474520D02*
X80010359Y-153923641D01*
X84015520Y-144907000D02*
X84650520Y-144272000D01*
X84650520Y-144272000D02*
X87639000Y-144272000D01*
X76876520Y-155474520D02*
X78459480Y-155474520D01*
%TO.N,/ESP32/IO34*%
X83947000Y-143002000D02*
X83566000Y-143383000D01*
X83566000Y-143383000D02*
X83566000Y-147574000D01*
X87639000Y-143002000D02*
X83947000Y-143002000D01*
X83566000Y-147574000D02*
X79475480Y-151664520D01*
X79475480Y-151664520D02*
X79475480Y-152680520D01*
%TO.N,/ESP32/IO26*%
X90043000Y-145161000D02*
X89916000Y-145161000D01*
X90043000Y-142113000D02*
X90043000Y-145161000D01*
X89281000Y-141351000D02*
X90043000Y-142113000D01*
X76237489Y-137367897D02*
X76237489Y-138467489D01*
X78604386Y-135001000D02*
X76237489Y-137367897D01*
X76237489Y-138467489D02*
X77216000Y-139446000D01*
X78994000Y-135001000D02*
X78604386Y-135001000D01*
%TO.N,/ESP32/IO14*%
X73152000Y-139827000D02*
X69088000Y-143891000D01*
X73152000Y-132969000D02*
X73152000Y-139827000D01*
%TO.N,/ESP32/IO26*%
X61550500Y-122793250D02*
X62103000Y-122240750D01*
%TO.N,GND*%
X61366500Y-117224750D02*
X61366500Y-114681000D01*
X60228000Y-118363250D02*
X61366500Y-117224750D01*
%TO.N,/ESP32/IO14*%
X62982000Y-112131000D02*
X63119000Y-112268000D01*
X61444000Y-112131000D02*
X62982000Y-112131000D01*
X85598000Y-151892000D02*
X85471000Y-152019000D01*
X87639000Y-151892000D02*
X85598000Y-151892000D01*
%TO.N,/ESP32/IO27*%
X85598000Y-150622000D02*
X85471000Y-150749000D01*
X87639000Y-150622000D02*
X85598000Y-150622000D01*
X73787000Y-148209000D02*
X75184000Y-149606000D01*
X73787000Y-142875000D02*
X73787000Y-148209000D01*
X75184000Y-149606000D02*
X80264000Y-149606000D01*
X75501500Y-141160500D02*
X73787000Y-142875000D01*
X64961000Y-131762000D02*
X65659000Y-131064000D01*
X63436000Y-131762000D02*
X63436000Y-131938500D01*
X63436000Y-131762000D02*
X64961000Y-131762000D01*
X63436000Y-128270000D02*
X63436000Y-131762000D01*
%TO.N,GND*%
X65610500Y-135303500D02*
X66675000Y-134239000D01*
X65610500Y-135575000D02*
X65610500Y-135303500D01*
%TO.N,+3V3*%
X61214000Y-133235500D02*
X61419500Y-133030000D01*
X61214000Y-134747000D02*
X61214000Y-133235500D01*
X65532000Y-137553500D02*
X65610500Y-137475000D01*
X65532000Y-139446000D02*
X65532000Y-137553500D01*
X64704000Y-140777000D02*
X65151000Y-141224000D01*
X63571000Y-140777000D02*
X64704000Y-140777000D01*
X60850000Y-143498000D02*
X63571000Y-140777000D01*
%TO.N,/ESP32/IO15*%
X99187000Y-151515000D02*
X99187000Y-151384000D01*
X100584000Y-152912000D02*
X99187000Y-151515000D01*
X100584000Y-154162000D02*
X100584000Y-152912000D01*
%TO.N,/ESP32/IO33*%
X90170000Y-146812000D02*
X87639000Y-146812000D01*
X90551000Y-147193000D02*
X90170000Y-146812000D01*
%TO.N,/ESP32/EN*%
X91313000Y-141859000D02*
X88646000Y-139192000D01*
X88963511Y-149805103D02*
X91313000Y-147455614D01*
X88646000Y-139192000D02*
X87639000Y-139192000D01*
X91313000Y-147455614D02*
X91313000Y-141859000D01*
%TO.N,/ESP32/IO13*%
X92314489Y-140730511D02*
X90521978Y-138938000D01*
X92329000Y-147320000D02*
X92314489Y-147305489D01*
X91694000Y-147955000D02*
X92329000Y-147320000D01*
X92314489Y-147305489D02*
X92314489Y-140730511D01*
X91694000Y-154162000D02*
X91694000Y-147955000D01*
X90521978Y-138938000D02*
X90297000Y-138938000D01*
%TO.N,/ESP32/EN*%
X88963511Y-163883529D02*
X88963511Y-149805103D01*
%TO.N,/ESP32/IO33*%
X81915000Y-154178000D02*
X83058000Y-153035000D01*
X81915000Y-158750000D02*
X81915000Y-154178000D01*
X77851000Y-162814000D02*
X81915000Y-158750000D01*
X77485000Y-162814000D02*
X77851000Y-162814000D01*
%TO.N,+3V3*%
X77622520Y-158521520D02*
X77622520Y-159792520D01*
X74168000Y-158115000D02*
X77216000Y-158115000D01*
X73383520Y-158899480D02*
X74168000Y-158115000D01*
X73383520Y-159462520D02*
X73383520Y-158899480D01*
X77216000Y-158115000D02*
X77622520Y-158521520D01*
%TO.N,/ESP32/IO12*%
X85471000Y-155330000D02*
X87639000Y-153162000D01*
X85471000Y-155448000D02*
X85471000Y-155330000D01*
X59309000Y-76327000D02*
X64643000Y-76327000D01*
X56388000Y-72644000D02*
X56779000Y-73035000D01*
%TO.N,Net-(D14-Pad2)*%
X59715500Y-73032500D02*
X59713000Y-73035000D01*
X59715500Y-70485000D02*
X59715500Y-73032500D01*
%TO.N,/ESP32/IO12*%
X56779000Y-73035000D02*
X58063000Y-73035000D01*
X56134000Y-71247000D02*
X56134000Y-72390000D01*
X59033520Y-68347480D02*
X56134000Y-71247000D01*
X56134000Y-72390000D02*
X56388000Y-72644000D01*
X59033520Y-67030520D02*
X59033520Y-68347480D01*
X58234000Y-66231000D02*
X59033520Y-67030520D01*
%TO.N,GND*%
X62392500Y-66233000D02*
X60629750Y-67995750D01*
X63403000Y-66233000D02*
X62392500Y-66233000D01*
%TO.N,/ESP32/IO22*%
X96647000Y-104855878D02*
X96647000Y-116840000D01*
X65180000Y-73388878D02*
X66444061Y-74652939D01*
X65180000Y-71186000D02*
X65180000Y-73388878D01*
%TO.N,/Valve_Microswitch_1*%
X63530000Y-72741000D02*
X63530000Y-71186000D01*
X34544000Y-67691000D02*
X41529000Y-74676000D01*
X41529000Y-74676000D02*
X61595000Y-74676000D01*
X61595000Y-74676000D02*
X63530000Y-72741000D01*
X32462000Y-67691000D02*
X34544000Y-67691000D01*
%TO.N,GND*%
X36322000Y-88265000D02*
X36830000Y-88773000D01*
X36322000Y-81915000D02*
X36322000Y-88265000D01*
X36830000Y-102743000D02*
X36830000Y-111125000D01*
%TO.N,/Valve_Microswitch_2*%
X61595000Y-92258000D02*
X61981000Y-91872000D01*
X61595000Y-93472000D02*
X61595000Y-92258000D01*
X38939000Y-94488000D02*
X54356000Y-94488000D01*
X32462000Y-88011000D02*
X38939000Y-94488000D01*
%TO.N,/ESP32/IO13*%
X55372000Y-93218000D02*
X57214000Y-93218000D01*
X54356000Y-92202000D02*
X55372000Y-93218000D01*
X54356000Y-90678000D02*
X54356000Y-92202000D01*
X55155520Y-89878480D02*
X54356000Y-90678000D01*
X56933520Y-89878480D02*
X55155520Y-89878480D01*
X58153520Y-88658480D02*
X56933520Y-89878480D01*
X58153520Y-87350520D02*
X58153520Y-88658480D01*
X57354000Y-86551000D02*
X58153520Y-87350520D01*
%TO.N,GND*%
X57277000Y-90678000D02*
X60513000Y-87442000D01*
X57251500Y-90678000D02*
X57277000Y-90678000D01*
X60513000Y-87442000D02*
X62308500Y-87442000D01*
%TO.N,/ESP32/IO13*%
X58865000Y-94869000D02*
X57214000Y-93218000D01*
X66675000Y-94869000D02*
X58865000Y-94869000D01*
X67564000Y-93980000D02*
X66675000Y-94869000D01*
X68453000Y-124841000D02*
X68453000Y-99187000D01*
%TO.N,GND*%
X95139000Y-147558000D02*
X94932500Y-147764500D01*
X95139000Y-144152000D02*
X95139000Y-147558000D01*
X95139000Y-140573000D02*
X95821500Y-139890500D01*
X95139000Y-144152000D02*
X95139000Y-140573000D01*
%TO.N,/ESP32/ESP_TXD*%
X70231000Y-168402000D02*
X66421000Y-168402000D01*
X73845449Y-164787551D02*
X70231000Y-168402000D01*
X85784229Y-164787551D02*
X73845449Y-164787551D01*
X86301520Y-164270259D02*
X85784229Y-164787551D01*
X86301520Y-159189480D02*
X86301520Y-164270259D01*
X87947500Y-157543500D02*
X86301520Y-159189480D01*
%TO.N,/ESP32/ESP_RXD*%
X103886000Y-141732000D02*
X95758000Y-149860000D01*
X104639000Y-141732000D02*
X103886000Y-141732000D01*
%TO.N,/ESP32/ESP_TXD*%
X100584000Y-140462000D02*
X104639000Y-140462000D01*
X100330000Y-140716000D02*
X100584000Y-140462000D01*
%TO.N,/ESP32/IO18*%
X104512000Y-146939000D02*
X104639000Y-146812000D01*
X102870000Y-146939000D02*
X104512000Y-146939000D01*
X38354000Y-172974000D02*
X38481000Y-172847000D01*
X37592000Y-172212000D02*
X38354000Y-172974000D01*
X37592000Y-161662386D02*
X37592000Y-172212000D01*
X39814141Y-159440245D02*
X37592000Y-161662386D01*
X39814141Y-156009076D02*
X39814141Y-159440245D01*
X40259000Y-155564217D02*
X39814141Y-156009076D01*
X40259000Y-153633072D02*
X40259000Y-155564217D01*
X39880480Y-153254552D02*
X40259000Y-153633072D01*
X39880480Y-152561448D02*
X39880480Y-153254552D01*
X40462537Y-151979391D02*
X39880480Y-152561448D01*
X41235391Y-151979391D02*
X40462537Y-151979391D01*
X42095480Y-151119302D02*
X41235391Y-151979391D01*
X42095480Y-150490480D02*
X42095480Y-151119302D01*
X40322000Y-148717000D02*
X42095480Y-150490480D01*
%TO.N,/Spare_Thermostat*%
X14732000Y-157353000D02*
X23368000Y-148717000D01*
X23368000Y-148717000D02*
X38672000Y-148717000D01*
%TO.N,/DHW_Thermostat*%
X26797000Y-162433000D02*
X14732000Y-162433000D01*
X32766000Y-156464000D02*
X26797000Y-162433000D01*
X38926000Y-156464000D02*
X32766000Y-156464000D01*
%TO.N,/ESP32/IO21*%
X40942500Y-156097500D02*
X40576000Y-156464000D01*
X40942500Y-152908000D02*
X40942500Y-156097500D01*
%TO.N,/ESP32/IO18*%
X40688500Y-148350500D02*
X40688500Y-144399000D01*
X40322000Y-148717000D02*
X40688500Y-148350500D01*
%TO.N,GND*%
X39067500Y-151813500D02*
X40513000Y-150368000D01*
X39067500Y-151958000D02*
X39067500Y-151813500D01*
%TO.N,+3V3*%
X35697783Y-153299783D02*
X36256000Y-153858000D01*
X35697783Y-152908000D02*
X35697783Y-153299783D01*
X36256000Y-153858000D02*
X36515000Y-153858000D01*
X39396520Y-149209263D02*
X35697783Y-152908000D01*
X39396520Y-145932020D02*
X39396520Y-149209263D01*
X38813500Y-145349000D02*
X39396520Y-145932020D01*
%TO.N,GND*%
X38813500Y-139494500D02*
X39878000Y-138430000D01*
X38813500Y-143449000D02*
X38813500Y-139494500D01*
X46228000Y-144907000D02*
X45335000Y-144907000D01*
X45335000Y-144907000D02*
X44573000Y-145669000D01*
X47691000Y-144907000D02*
X46228000Y-144907000D01*
X47691000Y-147272000D02*
X47866000Y-147447000D01*
X47691000Y-144907000D02*
X47691000Y-147272000D01*
X50844000Y-153587000D02*
X52006500Y-154749500D01*
X50075000Y-153587000D02*
X50844000Y-153587000D01*
X48125000Y-153587000D02*
X50075000Y-153587000D01*
X47625000Y-153087000D02*
X48125000Y-153587000D01*
%TO.N,Net-(J11-PadS1)*%
X43305000Y-171917000D02*
X43305000Y-167737000D01*
X51945000Y-171917000D02*
X43305000Y-171917000D01*
X51945000Y-167737000D02*
X51945000Y-171917000D01*
%TO.N,Net-(C8-Pad1)*%
X49815479Y-168556752D02*
X49815479Y-167977248D01*
X49081231Y-169291000D02*
X49815479Y-168556752D01*
X46748273Y-169291000D02*
X49081231Y-169291000D01*
X49815479Y-167977248D02*
X50075000Y-167717727D01*
X45175000Y-167717727D02*
X46748273Y-169291000D01*
X50075000Y-167717727D02*
X50075000Y-166822000D01*
X45175000Y-166822000D02*
X45175000Y-167717727D01*
%TO.N,GND*%
X44375000Y-166822000D02*
X44375000Y-166295000D01*
X44375000Y-166295000D02*
X42862500Y-164782500D01*
X43752000Y-163120000D02*
X41454000Y-163120000D01*
%TO.N,/Spare_Thermostat_2*%
X44838520Y-140327480D02*
X44069000Y-141097000D01*
X44838520Y-140327480D02*
X67507520Y-140327480D01*
X71310000Y-136525000D02*
X67507520Y-140327480D01*
%TO.N,GND*%
X84455000Y-136652000D02*
X84328000Y-136779000D01*
X87639000Y-136652000D02*
X84455000Y-136652000D01*
%TO.N,/ESP32/ESP_RXD*%
X85598031Y-164338031D02*
X85852000Y-164084062D01*
X73532969Y-164338031D02*
X85598031Y-164338031D01*
X70612000Y-167259000D02*
X73532969Y-164338031D01*
X85852000Y-164084062D02*
X85852000Y-157099000D01*
X66040000Y-167259000D02*
X70612000Y-167259000D01*
%TO.N,/ESP32/ESP_TXD*%
X56070000Y-158877000D02*
X57785000Y-158877000D01*
%TO.N,/ESP32/ESP_RXD*%
X53911000Y-157099000D02*
X56769000Y-157099000D01*
X52260000Y-158750000D02*
X53911000Y-157099000D01*
%TO.N,Net-(R12-Pad2)*%
X48125000Y-156265000D02*
X50610000Y-158750000D01*
X48125000Y-155537000D02*
X48125000Y-156265000D01*
%TO.N,Net-(R13-Pad2)*%
X53747480Y-159549520D02*
X54420000Y-158877000D01*
X47625000Y-156981783D02*
X50192737Y-159549520D01*
X47625000Y-155537000D02*
X47625000Y-156981783D01*
X50192737Y-159549520D02*
X53747480Y-159549520D01*
%TO.N,/ESP32/RTS*%
X47125000Y-156710000D02*
X45910500Y-157924500D01*
X45910500Y-157924500D02*
X42862500Y-157924500D01*
X40005000Y-160782000D02*
X42862500Y-157924500D01*
X47125000Y-155537000D02*
X47125000Y-156710000D01*
X40005000Y-172974000D02*
X40005000Y-160782000D01*
X41402000Y-174371000D02*
X40005000Y-172974000D01*
X81207542Y-174371000D02*
X41402000Y-174371000D01*
X81842542Y-173736000D02*
X81207542Y-174371000D01*
X90551000Y-173736000D02*
X81842542Y-173736000D01*
X91186000Y-173101000D02*
X90551000Y-173736000D01*
X100290520Y-165314520D02*
X99949000Y-164973000D01*
X100290520Y-166889520D02*
X100290520Y-165314520D01*
%TO.N,/ESP32/GPIO_0*%
X104639000Y-157742283D02*
X96519283Y-165862000D01*
X96519283Y-165862000D02*
X95631000Y-165862000D01*
X104639000Y-153162000D02*
X104639000Y-157742283D01*
%TO.N,/Boiler Out/Trigger*%
X107696000Y-151130000D02*
X107188000Y-150622000D01*
X107188000Y-150622000D02*
X104639000Y-150622000D01*
X110264020Y-136496980D02*
X108712000Y-138049000D01*
X110264020Y-122583020D02*
X110264020Y-136496980D01*
X107886500Y-120205500D02*
X110264020Y-122583020D01*
X100795521Y-109304521D02*
X100795521Y-94826521D01*
X100795521Y-94826521D02*
X78295500Y-72326500D01*
X108077000Y-116586000D02*
X100795521Y-109304521D01*
X60535642Y-54566642D02*
X60960000Y-54142283D01*
X60436763Y-54665520D02*
X60535642Y-54566642D01*
%TO.N,Net-(D15-Pad2)*%
X58826500Y-93180500D02*
X58864000Y-93218000D01*
X58826500Y-90678000D02*
X58826500Y-93180500D01*
%TO.N,/ESP32/IO14*%
X61444000Y-111038000D02*
X58610000Y-108204000D01*
X61444000Y-112131000D02*
X61444000Y-111038000D01*
%TO.N,Net-(D16-Pad2)*%
X59794000Y-114678500D02*
X59791500Y-114681000D01*
X59794000Y-112131000D02*
X59794000Y-114678500D01*
D59*
%TO.N,/Valve Out 4/Switched*%
X21286000Y-124333000D02*
X37538000Y-124333000D01*
X17349000Y-128270000D02*
X21286000Y-124333000D01*
D58*
%TO.N,GND*%
X30734000Y-115570000D02*
X32462000Y-115570000D01*
X28448000Y-121920000D02*
X28448000Y-117856000D01*
X28448000Y-117856000D02*
X30734000Y-115570000D01*
X28448000Y-134289000D02*
X32589000Y-138430000D01*
X28448000Y-127254000D02*
X28448000Y-134289000D01*
D59*
%TO.N,/Valve Out 3/Switched*%
X23759000Y-98873000D02*
X17222000Y-105410000D01*
X38897000Y-98873000D02*
X23759000Y-98873000D01*
%TO.N,/Valve Out 2/Switched*%
X20968000Y-79185000D02*
X17222000Y-82931000D01*
X38998000Y-79185000D02*
X20968000Y-79185000D01*
%TO.N,/Valve Out 1/Switched*%
X26225000Y-58865000D02*
X39878000Y-58865000D01*
X24384000Y-59944000D02*
X25146000Y-59944000D01*
X21717000Y-62611000D02*
X24384000Y-59944000D01*
X25146000Y-59944000D02*
X26225000Y-58865000D01*
X17222000Y-62611000D02*
X21717000Y-62611000D01*
%TO.N,NEUT*%
X14351000Y-67691000D02*
X13208000Y-66548000D01*
X12573000Y-69469000D02*
X14351000Y-67691000D01*
X12573000Y-85979000D02*
X12573000Y-69469000D01*
X14351000Y-67691000D02*
X17222000Y-67691000D01*
X14605000Y-88011000D02*
X12573000Y-85979000D01*
X17222000Y-88011000D02*
X14605000Y-88011000D01*
X12446000Y-89789000D02*
X14224000Y-88011000D01*
X14224000Y-88011000D02*
X17222000Y-88011000D01*
X12446000Y-108204000D02*
X12446000Y-89789000D01*
X14732000Y-110490000D02*
X12446000Y-108204000D01*
X17222000Y-110490000D02*
X14732000Y-110490000D01*
X13970000Y-110490000D02*
X17222000Y-110490000D01*
X12065000Y-112395000D02*
X13970000Y-110490000D01*
X12065000Y-128066000D02*
X12065000Y-112395000D01*
X17349000Y-133350000D02*
X12065000Y-128066000D01*
D58*
%TO.N,/Valve_Microswitch_4*%
X48361480Y-128422520D02*
X45339000Y-131445000D01*
X61633480Y-128422520D02*
X48361480Y-128422520D01*
X61786000Y-128270000D02*
X61633480Y-128422520D01*
%TO.N,/ESP32/IO27*%
X63436000Y-131938500D02*
X63294500Y-132080000D01*
%TO.N,GND*%
X61419500Y-131130000D02*
X59116000Y-131130000D01*
X53672000Y-135232500D02*
X51920500Y-135232500D01*
X51816000Y-135128000D02*
X51920500Y-135232500D01*
X86066520Y-170714520D02*
X87730480Y-170714520D01*
%TO.N,/ESP32/GPIO_0*%
X94679000Y-169598040D02*
X95276520Y-169000520D01*
X89078777Y-172890520D02*
X92371257Y-169598040D01*
X82898040Y-172890520D02*
X89078777Y-172890520D01*
X92371257Y-169598040D02*
X94679000Y-169598040D01*
X79353520Y-169346000D02*
X82898040Y-172890520D01*
X79353520Y-169269520D02*
X79353520Y-169346000D01*
X78205489Y-168121489D02*
X79353520Y-169269520D01*
X74578031Y-168121489D02*
X78205489Y-168121489D01*
X73353520Y-169346000D02*
X74578031Y-168121489D01*
X95504000Y-168773040D02*
X95276520Y-169000520D01*
X95504000Y-167894000D02*
X95504000Y-168773040D01*
X98390520Y-168309480D02*
X97536000Y-169164000D01*
X97536000Y-169164000D02*
X97282000Y-169164000D01*
X98390520Y-168189520D02*
X98390520Y-168309480D01*
%TO.N,Net-(Q1-Pad2)*%
X97001480Y-167539520D02*
X98390520Y-167539520D01*
X96520000Y-170942000D02*
X96520000Y-168021000D01*
X97054520Y-171476520D02*
X96520000Y-170942000D01*
X98515520Y-171476520D02*
X97054520Y-171476520D01*
X96520000Y-168021000D02*
X97001480Y-167539520D01*
%TO.N,Net-(Q1-Pad5)*%
X99187000Y-168657322D02*
X98461520Y-169382802D01*
X99187000Y-168068040D02*
X99187000Y-168657322D01*
X100290520Y-167539520D02*
X99715520Y-167539520D01*
X99715520Y-167539520D02*
X99187000Y-168068040D01*
X98461520Y-169382802D02*
X98461520Y-169825520D01*
%TO.N,/ESP32/DTR*%
X99387000Y-169093040D02*
X100290520Y-168189520D01*
X99387000Y-170317783D02*
X99387000Y-169093040D01*
X100165520Y-171096303D02*
X99387000Y-170317783D01*
X100165520Y-171476520D02*
X100165520Y-171096303D01*
%TO.N,/ESP32/RTS*%
X101357520Y-166889520D02*
X100290520Y-166889520D01*
X101319480Y-169825520D02*
X101854000Y-169291000D01*
X101854000Y-169291000D02*
X101854000Y-167386000D01*
X100111520Y-169825520D02*
X101319480Y-169825520D01*
X101854000Y-167386000D02*
X101357520Y-166889520D01*
%TO.N,/ESP32/~{RESET}*%
X93587480Y-166889520D02*
X98390520Y-166889520D01*
X92837000Y-167640000D02*
X93587480Y-166889520D01*
X92837000Y-168847000D02*
X92837000Y-167640000D01*
X92863520Y-168873520D02*
X92837000Y-168847000D01*
X102688000Y-160329000D02*
X98390520Y-164626480D01*
X104823000Y-160329000D02*
X102688000Y-160329000D01*
X98390520Y-164626480D02*
X98390520Y-166889520D01*
%TO.N,GND*%
X107823000Y-162306000D02*
X107823000Y-164704000D01*
%TO.N,/ESP32/~{RESET}*%
X106529000Y-158623000D02*
X104823000Y-160329000D01*
X109117000Y-158623000D02*
X106529000Y-158623000D01*
X110823000Y-160329000D02*
X109117000Y-158623000D01*
%TO.N,GND*%
X107823000Y-159654000D02*
X107823000Y-162306000D01*
X110148000Y-164704000D02*
X110823000Y-164029000D01*
X107823000Y-164704000D02*
X110148000Y-164704000D01*
X107148000Y-164029000D02*
X107823000Y-164704000D01*
X104823000Y-164029000D02*
X107148000Y-164029000D01*
%TO.N,/ESP32/EN*%
X84418520Y-168428520D02*
X88963511Y-163883529D01*
%TO.N,/ESP32/IO19*%
X67485500Y-136525000D02*
X69660000Y-136525000D01*
D59*
%TO.N,/Pump Out/Switched*%
X63822000Y-38676000D02*
X62230000Y-37084000D01*
X82677000Y-38676000D02*
X63822000Y-38676000D01*
%TO.N,/Boiler Out/Switched*%
X40469000Y-39052000D02*
X40382489Y-38965489D01*
%TO.N,NEUT*%
X104698000Y-78124000D02*
X105771000Y-79197000D01*
X104698000Y-69596000D02*
X104698000Y-78124000D01*
%TO.N,Net-(F2-Pad2)*%
X86680000Y-79197000D02*
X90571000Y-79197000D01*
X81026000Y-73543000D02*
X86680000Y-79197000D01*
%TO.N,Net-(F1-Pad1)*%
X82179000Y-69596000D02*
X81026000Y-68443000D01*
X89458000Y-69596000D02*
X82179000Y-69596000D01*
%TO.N,LINE*%
X61849000Y-33655000D02*
X92202000Y-33655000D01*
X58419000Y-37085000D02*
X61849000Y-33655000D01*
X94048000Y-35501000D02*
X94048000Y-39243000D01*
X58419000Y-38988000D02*
X58419000Y-37085000D01*
X92202000Y-33655000D02*
X94048000Y-35501000D01*
X58419000Y-38988000D02*
X51840000Y-38988000D01*
X65278000Y-80264000D02*
X64135000Y-79121000D01*
X65278000Y-80264000D02*
X64262000Y-79248000D01*
X64135000Y-79121000D02*
X63246000Y-79121000D01*
X76041000Y-91027000D02*
X65278000Y-80264000D01*
X63373000Y-79248000D02*
X63246000Y-79121000D01*
X64262000Y-79248000D02*
X63373000Y-79248000D01*
X63246000Y-79121000D02*
X50369000Y-79121000D01*
X76041000Y-96393000D02*
X76041000Y-91027000D01*
X58926000Y-96393000D02*
X55879000Y-99440000D01*
X76041000Y-96393000D02*
X58926000Y-96393000D01*
X57312000Y-100873000D02*
X55879000Y-99440000D01*
X57312000Y-102806000D02*
X57312000Y-100873000D01*
X55879000Y-99440000D02*
X50268000Y-99440000D01*
D58*
%TO.N,/ESP32/IO17*%
X110490000Y-144018000D02*
X110490000Y-147828000D01*
X110490000Y-147828000D02*
X108966000Y-149352000D01*
X108966000Y-149352000D02*
X104639000Y-149352000D01*
X111173799Y-137492201D02*
X110490000Y-138176000D01*
X111173799Y-122349799D02*
X111173799Y-137492201D01*
X109220000Y-120396000D02*
X111173799Y-122349799D01*
X101832520Y-49742480D02*
X101832520Y-47472520D01*
X101029000Y-50546000D02*
X101832520Y-49742480D01*
X101832520Y-47472520D02*
X101033000Y-46673000D01*
%TO.N,Net-(D19-Pad2)*%
X102641500Y-50583500D02*
X102679000Y-50546000D01*
X102641500Y-52451000D02*
X102641500Y-50583500D01*
%TO.N,/Boiler Out/Trigger*%
X60007000Y-46418000D02*
X58825000Y-46418000D01*
X60960000Y-47371000D02*
X60007000Y-46418000D01*
X60960000Y-54142283D02*
X60960000Y-47371000D01*
X59169020Y-54665520D02*
X60436763Y-54665520D01*
X58369500Y-53866000D02*
X59169020Y-54665520D01*
%TO.N,Net-(D18-Pad2)*%
X60022000Y-53863500D02*
X60019500Y-53866000D01*
X60022000Y-51316000D02*
X60022000Y-53863500D01*
%TO.N,/ESP32/IO22*%
X111622960Y-118491000D02*
X97409000Y-118491000D01*
X111623319Y-118491359D02*
X111622960Y-118491000D01*
X111623319Y-139006161D02*
X111623319Y-118491359D01*
X111437480Y-139192000D02*
X111623319Y-139006161D01*
X97409000Y-118491000D02*
X96774000Y-119126000D01*
X104639000Y-139192000D02*
X111437480Y-139192000D01*
%TO.N,GND*%
X59118500Y-146494500D02*
X59055000Y-146431000D01*
X58310000Y-145940000D02*
X58928000Y-146558000D01*
X59182000Y-146558000D02*
X59118500Y-146494500D01*
X58310000Y-143498000D02*
X58310000Y-145940000D01*
X58928000Y-146558000D02*
X59182000Y-146558000D01*
%TO.N,+3V3*%
X71845520Y-152680520D02*
X67590520Y-152680520D01*
X71845520Y-155601520D02*
X71845520Y-152680520D01*
%TO.N,Net-(JP3-Pad2)*%
X75449520Y-155601520D02*
X75576520Y-155474520D01*
X73495520Y-155601520D02*
X75449520Y-155601520D01*
%TO.N,Net-(JP4-Pad1)*%
X75972520Y-162601520D02*
X76185000Y-162814000D01*
X75972520Y-159792520D02*
X75972520Y-162601520D01*
%TO.N,Net-(JP1-Pad1)*%
X71733520Y-162553520D02*
X71994000Y-162814000D01*
X71733520Y-159462520D02*
X71733520Y-162553520D01*
%TO.N,+3V3*%
X92863520Y-170523520D02*
X95149520Y-170523520D01*
X95149520Y-170523520D02*
X95276520Y-170650520D01*
%TO.N,/ESP32/~{RESET}*%
X92418520Y-168428520D02*
X92863520Y-168873520D01*
X86068520Y-168428520D02*
X92418520Y-168428520D01*
%TO.N,/ESP32/EN*%
X84166520Y-168680520D02*
X84418520Y-168428520D01*
X84166520Y-170714520D02*
X84166520Y-168680520D01*
%TO.N,GND*%
X76353520Y-171550480D02*
X76353520Y-173721000D01*
X76353520Y-168671000D02*
X76353520Y-171550480D01*
X78678520Y-173721000D02*
X79353520Y-173046000D01*
X76353520Y-173721000D02*
X78678520Y-173721000D01*
X75678520Y-173046000D02*
X76353520Y-173721000D01*
X73353520Y-173046000D02*
X75678520Y-173046000D01*
%TO.N,/ESP32/sheet61EA3917/VBUS*%
X61021000Y-165783000D02*
X61021000Y-172010000D01*
X60898000Y-165660000D02*
X61021000Y-165783000D01*
%TO.N,GND*%
X61250000Y-160707000D02*
X62028000Y-160707000D01*
X62028000Y-160707000D02*
X62357000Y-161036000D01*
X61595000Y-161798000D02*
X62357000Y-161036000D01*
X61426511Y-161798000D02*
X61595000Y-161798000D01*
X59897520Y-163326991D02*
X61426511Y-161798000D01*
X59897520Y-165110480D02*
X59897520Y-163326991D01*
X59348000Y-165660000D02*
X59897520Y-165110480D01*
%TO.N,/ESP32/sheet61EA3917/VBUS*%
X61260500Y-165297500D02*
X60898000Y-165660000D01*
X61260500Y-163374000D02*
X61260500Y-165297500D01*
X63119000Y-161515500D02*
X61260500Y-163374000D01*
X63119000Y-153162000D02*
X63119000Y-161515500D01*
X52705000Y-142748000D02*
X63119000Y-153162000D01*
X44704000Y-142748000D02*
X52705000Y-142748000D01*
X43053000Y-144399000D02*
X44704000Y-142748000D01*
X43053000Y-145546000D02*
X43053000Y-144399000D01*
X44573000Y-147066000D02*
X43053000Y-145546000D01*
%TO.N,Net-(R10-Pad1)*%
X49125000Y-149074000D02*
X49125000Y-150637000D01*
X48895000Y-148844000D02*
X49125000Y-149074000D01*
X47371000Y-148844000D02*
X48895000Y-148844000D01*
X45593000Y-147066000D02*
X47371000Y-148844000D01*
X45593000Y-147066000D02*
X45593000Y-145669000D01*
%TO.N,+3V3*%
X50075000Y-149008000D02*
X50075000Y-152087000D01*
X49416000Y-148349000D02*
X50075000Y-149008000D01*
X49416000Y-147447000D02*
X49416000Y-148349000D01*
X49591000Y-147272000D02*
X49416000Y-147447000D01*
X49591000Y-144907000D02*
X49591000Y-147272000D01*
%TO.N,GND*%
X57837000Y-172010000D02*
X57479000Y-172010000D01*
X59121000Y-172010000D02*
X57837000Y-172010000D01*
X51454000Y-166243000D02*
X53975000Y-166243000D01*
X50875000Y-166822000D02*
X51454000Y-166243000D01*
X53276000Y-163374000D02*
X53276000Y-161862000D01*
X55486000Y-163374000D02*
X53276000Y-163374000D01*
X56971000Y-168454000D02*
X56324000Y-168454000D01*
X56324000Y-168454000D02*
X55816000Y-167946000D01*
X58596000Y-168454000D02*
X56971000Y-168454000D01*
X59348000Y-165660000D02*
X58114000Y-165660000D01*
X90424000Y-152400000D02*
X90678000Y-152146000D01*
X90424000Y-154162000D02*
X90424000Y-152400000D01*
%TO.N,+3V3*%
X80833000Y-137922000D02*
X87639000Y-137922000D01*
X80579000Y-137668000D02*
X80833000Y-137922000D01*
%TO.N,GND*%
X78679000Y-140716000D02*
X78679000Y-137668000D01*
%TO.N,+3V3*%
X80579000Y-140716000D02*
X80579000Y-137668000D01*
X80579000Y-141737000D02*
X80579000Y-140716000D01*
X79375000Y-142941000D02*
X80579000Y-141737000D01*
X82042000Y-142880000D02*
X82195520Y-143033520D01*
X77089000Y-142880000D02*
X82042000Y-142880000D01*
%TO.N,GND*%
X82195520Y-144933520D02*
X82195520Y-146150480D01*
X79375000Y-144841000D02*
X79375000Y-146177000D01*
X77089000Y-144780000D02*
X77089000Y-146177000D01*
X78679000Y-137668000D02*
X76962000Y-137668000D01*
X78679000Y-140716000D02*
X76708000Y-140716000D01*
%TO.N,/ESP32/IO23*%
X64183500Y-91354500D02*
X64183500Y-88392000D01*
X63666000Y-91872000D02*
X64183500Y-91354500D01*
X63631000Y-91872000D02*
X63666000Y-91872000D01*
%TO.N,/ESP32/IO15*%
X56974000Y-132832000D02*
X55904000Y-131762000D01*
X56974000Y-134179000D02*
X56974000Y-132832000D01*
X55958000Y-135195000D02*
X56974000Y-134179000D01*
%TO.N,Net-(D17-Pad2)*%
X55920500Y-136807500D02*
X55958000Y-136845000D01*
X53672000Y-136807500D02*
X55920500Y-136807500D01*
%TO.N,Net-(J11-PadS1)*%
X52154000Y-167946000D02*
X51945000Y-167737000D01*
X54166000Y-167946000D02*
X52154000Y-167946000D01*
%TO.N,Net-(C8-Pad1)*%
X55372000Y-165152000D02*
X50673000Y-165152000D01*
X57036000Y-163488000D02*
X55372000Y-165152000D01*
X57036000Y-163374000D02*
X57036000Y-163488000D01*
X50673000Y-165152000D02*
X50075000Y-165750000D01*
X50075000Y-165750000D02*
X50075000Y-166822000D01*
%TO.N,Net-(J11-PadB5)*%
X49375000Y-164418000D02*
X49375000Y-166822000D01*
X50419000Y-163374000D02*
X49375000Y-164418000D01*
X51626000Y-163374000D02*
X50419000Y-163374000D01*
%TO.N,Net-(J11-PadA5)*%
X46375000Y-165426000D02*
X46375000Y-166822000D01*
X45402000Y-164453000D02*
X46375000Y-165426000D01*
X45402000Y-163120000D02*
X45402000Y-164453000D01*
%TO.N,Net-(C8-Pad1)*%
X59135500Y-163374000D02*
X57036000Y-163374000D01*
X60049511Y-162459989D02*
X59135500Y-163374000D01*
X60049511Y-160732489D02*
X60049511Y-162459989D01*
X60024022Y-160707000D02*
X60049511Y-160732489D01*
X59400000Y-160707000D02*
X60024022Y-160707000D01*
%TO.N,Net-(R30-Pad1)*%
X53867000Y-131444000D02*
X55963000Y-129348000D01*
X49954000Y-131444000D02*
X53867000Y-131444000D01*
%TO.N,LINE*%
X55963000Y-127698000D02*
X52597000Y-124332000D01*
X52597000Y-124332000D02*
X48919000Y-124332000D01*
%TO.N,Net-(D6-Pad3)*%
X42619000Y-126612000D02*
X38114000Y-126612000D01*
X38114000Y-126612000D02*
X37548000Y-126046000D01*
D59*
%TO.N,/Valve Out 4/Switched*%
X37548000Y-124396000D02*
X37548000Y-123765000D01*
X37548000Y-123765000D02*
X39261000Y-122052000D01*
X39261000Y-122052000D02*
X42619000Y-122052000D01*
D58*
%TO.N,Net-(D6-Pad3)*%
X49954000Y-136524000D02*
X45998000Y-136524000D01*
X45998000Y-136524000D02*
X44873489Y-135399489D01*
X40029000Y-129202000D02*
X42619000Y-126612000D01*
X44873489Y-135399489D02*
X42159189Y-135399489D01*
X40029000Y-133269300D02*
X40029000Y-129202000D01*
X42159189Y-135399489D02*
X40029000Y-133269300D01*
%TO.N,Net-(R28-Pad2)*%
X42334000Y-131444000D02*
X43749489Y-132859489D01*
X55351489Y-132859489D02*
X55904000Y-133412000D01*
X43749489Y-132859489D02*
X55351489Y-132859489D01*
%TO.N,Net-(R20-Pad1)*%
X55317000Y-86233000D02*
X57413000Y-84137000D01*
X51404000Y-86233000D02*
X55317000Y-86233000D01*
%TO.N,LINE*%
X57413000Y-82487000D02*
X54047000Y-79121000D01*
X54047000Y-79121000D02*
X50369000Y-79121000D01*
%TO.N,Net-(D3-Pad3)*%
X44069000Y-81401000D02*
X39564000Y-81401000D01*
X39564000Y-81401000D02*
X38998000Y-80835000D01*
D59*
%TO.N,/Valve Out 2/Switched*%
X38998000Y-79185000D02*
X38998000Y-78554000D01*
X38998000Y-78554000D02*
X40711000Y-76841000D01*
X40711000Y-76841000D02*
X44069000Y-76841000D01*
D58*
%TO.N,Net-(D3-Pad3)*%
X51404000Y-91313000D02*
X47448000Y-91313000D01*
X47448000Y-91313000D02*
X46323489Y-90188489D01*
X41479000Y-83991000D02*
X44069000Y-81401000D01*
X46323489Y-90188489D02*
X43609189Y-90188489D01*
X41479000Y-88058300D02*
X41479000Y-83991000D01*
X43609189Y-90188489D02*
X41479000Y-88058300D01*
%TO.N,Net-(R18-Pad2)*%
X43784000Y-86233000D02*
X45199489Y-87648489D01*
X56801489Y-87648489D02*
X57354000Y-88201000D01*
X45199489Y-87648489D02*
X56801489Y-87648489D01*
%TO.N,Net-(R17-Pad1)*%
X56197000Y-65913000D02*
X58293000Y-63817000D01*
X52284000Y-65913000D02*
X56197000Y-65913000D01*
%TO.N,LINE*%
X58293000Y-62167000D02*
X54927000Y-58801000D01*
X54927000Y-58801000D02*
X51249000Y-58801000D01*
%TO.N,Net-(D2-Pad3)*%
X44949000Y-61081000D02*
X40444000Y-61081000D01*
X40444000Y-61081000D02*
X39878000Y-60515000D01*
D59*
%TO.N,/Valve Out 1/Switched*%
X39878000Y-58865000D02*
X39878000Y-58234000D01*
X39878000Y-58234000D02*
X41591000Y-56521000D01*
X41591000Y-56521000D02*
X44949000Y-56521000D01*
D58*
%TO.N,Net-(D2-Pad3)*%
X52284000Y-70993000D02*
X48328000Y-70993000D01*
X48328000Y-70993000D02*
X47203489Y-69868489D01*
X42359000Y-63671000D02*
X44949000Y-61081000D01*
X47203489Y-69868489D02*
X44489189Y-69868489D01*
X42359000Y-67738300D02*
X42359000Y-63671000D01*
X44489189Y-69868489D02*
X42359000Y-67738300D01*
%TO.N,Net-(R15-Pad2)*%
X44664000Y-65913000D02*
X46079489Y-67328489D01*
X57681489Y-67328489D02*
X58234000Y-67881000D01*
X46079489Y-67328489D02*
X57681489Y-67328489D01*
%TO.N,Net-(R40-Pad1)*%
X98996000Y-46355000D02*
X101092000Y-44259000D01*
X95083000Y-46355000D02*
X98996000Y-46355000D01*
%TO.N,LINE*%
X101092000Y-42609000D02*
X97726000Y-39243000D01*
X97726000Y-39243000D02*
X94048000Y-39243000D01*
%TO.N,Net-(D12-Pad3)*%
X87748000Y-41523000D02*
X83243000Y-41523000D01*
X83243000Y-41523000D02*
X82677000Y-40957000D01*
D59*
%TO.N,/Pump Out/Switched*%
X82677000Y-39307000D02*
X82677000Y-38676000D01*
X82677000Y-38676000D02*
X84390000Y-36963000D01*
X84390000Y-36963000D02*
X87748000Y-36963000D01*
D58*
%TO.N,Net-(D12-Pad3)*%
X95083000Y-51435000D02*
X91127000Y-51435000D01*
X91127000Y-51435000D02*
X90002489Y-50310489D01*
X85158000Y-44113000D02*
X87748000Y-41523000D01*
X90002489Y-50310489D02*
X87288189Y-50310489D01*
X85158000Y-48180300D02*
X85158000Y-44113000D01*
X87288189Y-50310489D02*
X85158000Y-48180300D01*
%TO.N,Net-(R38-Pad2)*%
X87463000Y-46355000D02*
X88878489Y-47770489D01*
X100480489Y-47770489D02*
X101033000Y-48323000D01*
X88878489Y-47770489D02*
X100480489Y-47770489D01*
%TO.N,Net-(R37-Pad1)*%
X56788000Y-46100000D02*
X58884000Y-44004000D01*
X52875000Y-46100000D02*
X56788000Y-46100000D01*
%TO.N,LINE*%
X58884000Y-42354000D02*
X55518000Y-38988000D01*
X55518000Y-38988000D02*
X51840000Y-38988000D01*
%TO.N,Net-(D11-Pad3)*%
X45540000Y-41268000D02*
X41035000Y-41268000D01*
X41035000Y-41268000D02*
X40469000Y-40702000D01*
D59*
%TO.N,/Boiler Out/Switched*%
X40469000Y-39052000D02*
X40469000Y-38421000D01*
X40469000Y-38421000D02*
X42182000Y-36708000D01*
X42182000Y-36708000D02*
X45540000Y-36708000D01*
D58*
%TO.N,Net-(D11-Pad3)*%
X52875000Y-51180000D02*
X48919000Y-51180000D01*
X48919000Y-51180000D02*
X47794489Y-50055489D01*
X42950000Y-43858000D02*
X45540000Y-41268000D01*
X47794489Y-50055489D02*
X45080189Y-50055489D01*
X42950000Y-47925300D02*
X42950000Y-43858000D01*
X45080189Y-50055489D02*
X42950000Y-47925300D01*
%TO.N,Net-(R35-Pad2)*%
X45255000Y-46100000D02*
X46670489Y-47515489D01*
X58272489Y-47515489D02*
X58825000Y-48068000D01*
X46670489Y-47515489D02*
X58272489Y-47515489D01*
%TO.N,Net-(R21-Pad2)*%
X45098489Y-107967489D02*
X56700489Y-107967489D01*
X43683000Y-106552000D02*
X45098489Y-107967489D01*
%TO.N,Net-(D4-Pad3)*%
X43508189Y-110507489D02*
X41378000Y-108377300D01*
X41378000Y-108377300D02*
X41378000Y-104310000D01*
X46222489Y-110507489D02*
X43508189Y-110507489D01*
X41378000Y-104310000D02*
X43968000Y-101720000D01*
X47347000Y-111632000D02*
X46222489Y-110507489D01*
X51303000Y-111632000D02*
X47347000Y-111632000D01*
%TO.N,/ESP32/IO26*%
X62103000Y-122240750D02*
X62103000Y-119313250D01*
D59*
%TO.N,/Valve Out 3/Switched*%
X40610000Y-97160000D02*
X43968000Y-97160000D01*
X38897000Y-98873000D02*
X40610000Y-97160000D01*
X38897000Y-99504000D02*
X38897000Y-98873000D01*
D58*
%TO.N,/ESP32/IO22*%
X65278000Y-71088000D02*
X65180000Y-71186000D01*
X65278000Y-67183000D02*
X65278000Y-71088000D01*
%TO.N,Net-(D4-Pad3)*%
X39463000Y-101720000D02*
X38897000Y-101154000D01*
X43968000Y-101720000D02*
X39463000Y-101720000D01*
%TO.N,Net-(R27-Pad1)*%
X51303000Y-106552000D02*
X55216000Y-106552000D01*
X55216000Y-106552000D02*
X57312000Y-104456000D01*
D60*
%TO.N,/ESP32/sheet61EA3917/USB_D+*%
X47375000Y-165275000D02*
X47625000Y-165025000D01*
X47879000Y-165025000D02*
X47625000Y-165025000D01*
X48375000Y-166822000D02*
X48375000Y-165521000D01*
X48375000Y-165521000D02*
X47879000Y-165025000D01*
X47375000Y-166822000D02*
X47375000Y-165275000D01*
%TO.N,/ESP32/sheet61EA3917/USB_D-*%
X47875000Y-168585000D02*
X47875000Y-166822000D01*
X47117000Y-168835000D02*
X47625000Y-168835000D01*
X47625000Y-168835000D02*
X47875000Y-168585000D01*
X46875000Y-168593000D02*
X47117000Y-168835000D01*
X46875000Y-166822000D02*
X46875000Y-168593000D01*
D58*
%TO.N,Net-(R6-Pad1)*%
X53911000Y-151119000D02*
X52443000Y-152587000D01*
X55499000Y-151119000D02*
X53911000Y-151119000D01*
%TO.N,Net-(R5-Pad1)*%
X54990000Y-155753000D02*
X55499000Y-155753000D01*
X52324000Y-153087000D02*
X50075000Y-153087000D01*
X54990000Y-155753000D02*
X52324000Y-153087000D01*
%TO.N,Net-(R6-Pad1)*%
X52443000Y-152587000D02*
X50075000Y-152587000D01*
D60*
%TO.N,/ESP32/sheet61EA3917/D-*%
X60736397Y-160169500D02*
X61175000Y-160169500D01*
X60550000Y-159983103D02*
X60736397Y-160169500D01*
X60550000Y-157560000D02*
X60550000Y-159983103D01*
X60550000Y-155787800D02*
X60550000Y-156360000D01*
X55940999Y-153210999D02*
X57973199Y-153210999D01*
X61061434Y-156871434D02*
X61061434Y-156960000D01*
X55499000Y-152769000D02*
X55940999Y-153210999D01*
X57973199Y-153210999D02*
X60550000Y-155787800D01*
X60550000Y-157471434D02*
X60550000Y-157560000D01*
X60550017Y-157471434D02*
G75*
G02*
X60805717Y-157215717I255683J34D01*
G01*
X60805717Y-157215734D02*
G75*
G03*
X61061434Y-156960000I-17J255734D01*
G01*
X61061383Y-156871434D02*
G75*
G03*
X60805717Y-156615717I-255683J34D01*
G01*
X60805717Y-156615700D02*
G75*
G02*
X60550000Y-156360000I-17J255700D01*
G01*
%TO.N,/ESP32/sheet61EA3917/D+*%
X55940999Y-153661001D02*
X55499000Y-154103000D01*
X60625489Y-160694989D02*
X60100000Y-160169500D01*
X61087011Y-161156511D02*
X60625489Y-161156511D01*
X60100000Y-160169500D02*
X60100000Y-155974200D01*
X60100000Y-155974200D02*
X57786801Y-153661001D01*
X57786801Y-153661001D02*
X55940999Y-153661001D01*
X61175000Y-161244500D02*
X61087011Y-161156511D01*
X60625489Y-161156511D02*
X60625489Y-160694989D01*
%TO.N,/ESP32/sheet61EA3917/USB_D+*%
X59099999Y-161244500D02*
X59475000Y-161244500D01*
X59012010Y-161156511D02*
X59099999Y-161244500D01*
X58775489Y-161156511D02*
X59012010Y-161156511D01*
X58775489Y-160932000D02*
X58775489Y-161156511D01*
X56220000Y-160932000D02*
X58775489Y-160932000D01*
X55920000Y-161262318D02*
X55920000Y-161232000D01*
X55320000Y-161232000D02*
X55320000Y-161262318D01*
X47350000Y-163840200D02*
X50258200Y-160932000D01*
X50258200Y-160932000D02*
X55020000Y-160932000D01*
X47350000Y-165709499D02*
X47350000Y-163840200D01*
X56220000Y-160932000D02*
G75*
G03*
X55920000Y-161232000I0J-300000D01*
G01*
X47375000Y-165734499D02*
X47350000Y-165709499D01*
X55920018Y-161262318D02*
G75*
G02*
X55620000Y-161562318I-300018J18D01*
G01*
X55620000Y-161562300D02*
G75*
G02*
X55320000Y-161262318I0J300000D01*
G01*
X47375000Y-166822000D02*
X47375000Y-165734499D01*
X55320000Y-161232000D02*
G75*
G03*
X55020000Y-160932000I-300000J0D01*
G01*
%TO.N,/ESP32/sheet61EA3917/USB_D-*%
X59099999Y-160169500D02*
X59475000Y-160169500D01*
X59012010Y-160257489D02*
X59099999Y-160169500D01*
X58775489Y-160257489D02*
X59012010Y-160257489D01*
X50071800Y-160482000D02*
X58775489Y-160482000D01*
X46900000Y-163653800D02*
X50071800Y-160482000D01*
X46900000Y-165709499D02*
X46900000Y-163653800D01*
X46875000Y-165734499D02*
X46900000Y-165709499D01*
X46875000Y-166822000D02*
X46875000Y-165734499D01*
X58775489Y-160482000D02*
X58775489Y-160257489D01*
%TD*%
M02*
